/* XPM */
static char *result[] = {
/* columns rows colors chars-per-pixel */
"50 50 146 2 ",
"   c #2D2D2F",
".  c #2B3238",
"X  c #36353B",
"o  c #38373C",
"O  c #373A3F",
"+  c #3B3A3E",
"@  c #363B41",
"#  c #3B3D43",
"$  c #363F48",
"%  c #3A3E49",
"&  c #413F42",
"*  c #3B4145",
"=  c #3E444B",
"-  c #424247",
";  c #44454A",
":  c #49474E",
">  c #44494D",
",  c #48494E",
"<  c #414755",
"1  c #414A51",
"2  c #4C4C53",
"3  c #454C5A",
"4  c #4B4E5F",
"5  c #504F54",
"6  c #4E5157",
"7  c #4C525C",
"8  c #525155",
"9  c #54555B",
"0  c #54595F",
"q  c #5A5A5D",
"w  c #505362",
"e  c #545B61",
"r  c #5D5D64",
"t  c #545B69",
"y  c #605E63",
"u  c #57616D",
"i  c #5A616F",
"p  c #5E6672",
"a  c #5F6975",
"s  c #616166",
"d  c #64646A",
"f  c #68666B",
"g  c #69696D",
"h  c #636676",
"j  c #626A75",
"k  c #6C6C72",
"l  c #646D7A",
"z  c #706E73",
"x  c #677077",
"c  c #6D7176",
"v  c #65727B",
"b  c #6B747C",
"n  c #737375",
"m  c #73757A",
"M  c #78777C",
"N  c #737A7E",
"B  c #79797C",
"V  c #6D7581",
"C  c #727782",
"Z  c #737B83",
"A  c #7C7C81",
"S  c #757E8A",
"D  c #7C8187",
"F  c #77818D",
"G  c #7B848E",
"H  c #7F888F",
"J  c #7D8691",
"K  c #7E8892",
"L  c #828185",
"P  c #84858B",
"I  c #89878C",
"U  c #89888D",
"Y  c #818796",
"T  c #8B8790",
"R  c #828B94",
"E  c #8D8D93",
"W  c #848D99",
"Q  c #908F94",
"!  c #948F9A",
"~  c #859094",
"^  c #85939C",
"/  c #8A939C",
"(  c #929196",
")  c #94949A",
"_  c #98969E",
"`  c #92999F",
"'  c #9A9B9D",
"]  c #8D96A2",
"[  c #8C99A3",
"{  c #939BA5",
"}  c #9C9DA2",
"|  c #949EAA",
" . c #9C9FB0",
".. c #A19FA5",
"X. c #97A0A7",
"o. c #9EA1A5",
"O. c #96A2AB",
"+. c #9AA4AD",
"@. c #9DA9AF",
"#. c #9BA6B2",
"$. c #9FAAB3",
"%. c #A2A2A7",
"&. c #A4A5AB",
"*. c #A2A9AF",
"=. c #A9A8AD",
"-. c #A3A7B0",
";. c #A2ACB5",
":. c #ABABB1",
">. c #A4AEBA",
",. c #ABAFBA",
"<. c #A6B1B7",
"1. c #AAB0B5",
"2. c #A5B2BB",
"3. c #AAB4BE",
"4. c #ADB8BE",
"5. c #B1B4BB",
"6. c #B2B9BE",
"7. c #ACB6C1",
"8. c #AEBAC2",
"9. c #B1B7C1",
"0. c #B2BCC4",
"q. c #BABEC6",
"w. c #B5BEC9",
"e. c #BABFC9",
"r. c #B4C0C6",
"t. c #B9C0C6",
"y. c #B4C0C9",
"u. c #BBC3CB",
"i. c #BFC8CF",
"p. c #C1C5CB",
"a. c #C3CBD2",
"s. c #C9CDD3",
"d. c #CAD1D7",
"f. c #CDD2DA",
"g. c #D3D7DD",
"h. c #D5DCE3",
"j. c #DBDFE5",
"k. c #DBE1E7",
"l. c #D8E3E9",
"z. c #E2E5EB",
"x. c #E5EAF1",
"c. c #E9ECF3",
"v. c #EEF3FA",
"b. c #F6F9FF",
"n. c #F9FAFF",
"m. c None",
/* pixels */
"m.m.m.m.m.m.m.m.m.m.m.m.m.m.m.m.m.m.m.m.m.m.m.m.m.m.m.m.m.m.m.m.m.m.m.m.m.m.m.m.m.m.m.m.m.m.m.m.m.m.",
"m.m.m.m.m.m.m.m.m.m.m.m.m.m.m.m.m.m.m.m.m.m.m.m.m.m.m.m.m.m.m.m.m.m.m.m.m.m.m.m.m.m.m.m.m.m.m.m.m.m.",
"m.m.m.m.m.m.m.m.m.m.m.m.m.m.m.m.m.m.m.m.Q A B L m.m.m.m.m.m.m.m.m.m.m.m.m.m.m.m.m.m.m.m.m.m.m.m.m.m.",
"m.m.m.m.m.m.m.m.m.m.m.m.m.m.m.m.m.m.m.m.- & q 9 ( m.m.m.m.m.m.m.m.m.m.m.m.m.m.m.m.m.m.m.m.m.m.m.m.m.",
"m.m.m.m.m.m.m.m.m.m.m.m.m.m.m.m.m.m.m.m.; I m.m.) g m.m.m.m.m.m.m.m.m.m.m.m.m.m.m.m.m.m.m.m.m.m.m.m.",
"m.m.m.m.m.m.m.m.m.m.m.m.m.m.m.m.m.m.m.m.- } m.m.m.( U m.m.m.m.m.m.m.m.m.m.m.m.m.m.m.m.m.m.m.m.m.m.m.",
"m.m.m.m.m.m.m.m.m.m.m.m.m.m.m.m.m.m.m.m.z ( m.m.m.m.g ' m.m.m.m.m.m.m.m.m.m.m.m.m.m.m.m.m.m.m.m.m.m.",
"m.m.m.m.m.m.m.m.m.m.m.m.m.m.m.m.m.m.m.m.m.Q g m.m.m.m.Q f m.m.m.m.m.m.z : ; - m.m.m.m.m.m.m.m.m.m.m.",
"m.m.m.m.m.m.m.m.m.m.m.m.m.m.m.m.m.m.m.m.m.L 4 m.m.m.m.m._ U E m.m.m.E ( m.P + U m.m.m.m.m.m.m.m.m.m.",
"m.m.m.m.m.m.m.m.m.m.m.m.m.m.m.m.m.m.m.m.m.P d m.m.m.m.m.p.d * 6 m.c > m.m.m.8 L m.m.m.m.m.m.m.m.m.m.",
"m.m.m.m.m.m.m.m.m.m.m.m.m.m.s : > ; 2 > > C ;.9.u.q.p.q.e.%.3.5.0 O > m.m.m.8 U m.m.m.m.m.m.m.m.m.m.",
"m.m.m.m.m.m.m.m.' E Q ) Q Q Q Q E Z N x j ] w.8.0.w.e.7.w.6.u.0.Z N { m.m.m.2 I m.m.m.m.m.m.m.m.m.m.",
"m.m.m.m.m.m.m.m.+ X ; & - A z.n.x.l.i.r.y.8.7.w.8.7.8.8.0.0.7.w.r.a.g.v.m.m.g P m.m.m.m.m.m.m.m.m.m.",
"m.m.m.m.m.m.m.m.; E m.m.m.j.m.g.i.y.8.7.7.8.y.8.w.w.w.7.7.y.7.0.8.r.r.i.j.m.m.} n m.m.m.m.m.m.m.m.m.",
"m.m.m.m.m.m.m.m.; =.m.m.m.m.j.s.8.8.8.8.8.>.O.| | ] ] [ #.#.>.8.8.7.4.4.d.g.m.' - m.m.m.m.m.m.m.m.m.",
"m.m.m.m.m.m.m.m.y ..m.m.m.c.q.6.w.7.8.r.$.#.[ ] S a l F [ W #.>.3.w.8.4.0.a.c.) , m.m.m.m.m.m.m.m.m.",
"m.m.m.m.m.m.m.m.m.D 6 w ;.h.u.7.8.w.0.3.[ O.2.<.K v j ~ 2.>.] J 7.0.7.7.w.8.l.~ > m.m.m.m.m.m.m.m.m.",
"m.m.m.m.m.m.m.m.m.m.c . Y i.0.7.0.4.;.X.O.2.8.4.H a p [ y.0.O.W ] #.w.8.8.w.i.D * m.m.m.m.m.m.m.m.m.",
"m.m.m.m.m.m.m.m.m.m.:.e Y 7.8.u.0.$.+.O.8.8.r.r.[ D v [ w.w.7.>.J ^ $.7.7.8.8.Z > m.m.m.m.m.m.m.m.m.",
"m.m.m.m.m.m.m.m.m.) k &.0.0.3.0.-.K [ <.2.8.2.2.@.$.$.<.7.8.w.8.#.] J 7.w.w.7.v = m.m.m.B q q 8 m.m.",
"m.m.m.m.m.m.m.m.m.B 7 6.u.w.w.| W W O.w.8.y.y.r.y.4.4.w.w.8.8.8.w. .K | 2.w.0.W b ) } ) P A n + M m.",
"m.m.m.m.m.m.m.m.m.D r *.e.<.>.Z a #.8.w.8.8.2.y.<.$.-.2.7.8.8.8.8.7.7.| { 8.9.8.' u - r m.m.m.q B m.",
"m.m.m.m.m.m.m.m.m o.t.6.w.7.0.Z i 7.8.7.y.8.7.7.D = = K w.y.8.8.w.0.7.[ O.y.8.0.r.p.m.m.m.m.m.q B m.",
"m.m.m.m.m.m.m.) P m.m.t.0.0.7.b t J Y ] 8.7.$.K Z D Z Z K $.8.7.[ | ] F | 7.8.8.t.m.m.m.m.m.:.L 1.m.",
"m.m.m.m.m.m.A M m.m.m.u.0.0.3.S 3 3 4 a $.7.| = / v.v.Y > | 0.;.V V a V J 8.8.w.q.m.m.m.m...f m.m.m.",
"m.m.m.m.m.M } m.m.m.m.p.6.0.3.C < 4 3 i $.w.[ = { m.m.E # { 6.;.V V a i K 7.8.7.u.c.m.m.L ( m.m.m.m.",
"m.m.m.m.m.L m.m.m.m.m.q.7.0.3.S w h V J <.7.#.a D ,.,.G k -.0.<.^ W F Z | 8.8.w.a.c.m.:.B =.m.m.m.m.",
"m.m.m.m z m.m.m.m.m.m.t.0.0.,.V h  .7.7.w.8.8.$.Z # # C 3.0.4.w.7.7.$./ O.8.8.w.5.x.&.y m.m.m.m.m.m.",
"m.m.m.z y m.m.m.m f Z ;.9.0.8.V i 7.9.7.8.r.2.8.[ P / { 5.0.w.7.7.w.7.{ O.4.4.4.4.m U m.m.m.m.m.m.m.",
"m.m.m.n 5 m.m.m.m m m H #.0.8.W S ] >.0.r.r.r.8.r.0.6.y.0.9.8.8.w.>.O.O.;.4.r.t.<.+ P m.m.m.m.m.m.m.",
"m.m.m.m + - ; m m.m.m.7 J 3.8.7.#.J ] 7.7.2.y.4.2.<.<.8.8.8.8.8.7.#.O.<.4.8.r.r.6.9 E m.m.m.m.m.m.m.",
"m.m.m.m.m.m.m.m.m.m.m.# Z 0.8.7.7.| K ^ 2.r.8.8.^ b v ] 8.8.8.7.O.O.<.8.7.r.2.` c o.m.m.m.m.m.m.m.m.",
"m.m.m.m.m.m.m.m.m.m.m.= D i.6.8.8.8.[ J O.$.w.7.S 3 3 S 0.w.7.| [ >.y.2.0.7.u.Z # ) m.m.m.m.m.m.m.m.",
"m.m.m.m.m.m.m.m.m.m.m.- ~ f.t.0.y.8.8.O.F [ 7.7.S 3 4 S 7.3.] V >.2.2.r.w.u.f.Q X - E m.m.m.m.m.m.m.",
"m.m.m.m.m.m.m.m.m.m.m.> o.k.r.0.8.2.8.7.[ K V a t 3 4 u v v K #.2.y.y.y.9.e.x.f.5.=.( Q m.m.m.m.m.m.",
"m.m.m.m.m.m.m.m.m.m.m.- ;.m.d.u.7.r.y.7.y.] u V a a a a j v ^ 8.8.8.8.2.u.f.b.m.m.m.} - m.m.m.m.m.m.",
"m.m.m.m.m.m.m.m.m.m.m.q o.m.m.f.y.w.0.4.8.>.-.>.>.>.$.$.<.;.<.8.r.8.w.0.j.b.m.m.m.m.' ; m.m.m.m.m.m.",
"m.m.m.m.m.m.m.m.m.m.m.m.I o.m.m.h.a.y.w.9.w.e.7.8.w.w.8.7.8.8.r.8.i.d.j.c.c._ B M B 5 + m.m.m.m.m.m.",
"m.m.m.m.m.m.m.m.m.m.m.m.A q m.m.m.0.X. .0.0.6.0.7.8.7.w.r.r.@.~ ] | 1.p.p.5.B 9 y y 9 M m.m.m.m.m.m.",
"m.m.m.m.m.m.m.m.m.m.m.m.N q m.m.m.7 % r w.u.9.9.w.w.0.q.8.<.N * $ @ , # ; y m.m.m.m.m.m.m.m.m.m.m.m.",
"m.m.m.m.m.m.m.m.m.m.m.m.m q m.m.m.; d } C k C s.z.k.z.h.s.A C =.o.%.%.m.m.m.m.m.m.m.m.m.m.m.m.m.m.m.",
"m.m.m.m.m.m.m.m.m.m.m.m.A 8 m.m.m.d m.m.k 8 k p.m.m.m.m.m.- _ m.m.m.m.m.m.m.m.m.m.m.m.m.m.m.m.m.m.m.",
"m.m.m.m.m.m.m.m.m.m.m.m.B   ; - f m.m.m.m.m.m.r &.m.m.m.m.; ] m.m.m.m.m.m.m.m.m.m.m.m.m.m.m.m.m.m.m.",
"m.m.m.m.m.m.m.m.m.m.m.m.m.' ..' m.m.m.m.m.m.m.:.Q } m.m.m.m.T } m.m.m.m.m.m.m.m.m.m.m.m.m.m.m.m.m.m.",
"m.m.m.m.m.m.m.m.m.m.m.m.m.m.m.m.m.m.m.m.m.m.m.m.} g m.m.m.m.Q 2 m.m.m.m.m.m.m.m.m.m.m.m.m.m.m.m.m.m.",
"m.m.m.m.m.m.m.m.m.m.m.m.m.m.m.m.m.m.m.m.m.m.m.m.m.m.s m.m.m.! & m.m.m.m.m.m.m.m.m.m.m.m.m.m.m.m.m.m.",
"m.m.m.m.m.m.m.m.m.m.m.m.m.m.m.m.m.m.m.m.m.m.m.m.m.m.&.Q ! Q 9 - m.m.m.m.m.m.m.m.m.m.m.m.m.m.m.m.m.m.",
"m.m.m.m.m.m.m.m.m.m.m.m.m.m.m.m.m.m.m.m.m.m.m.m.m.m.m.m.: & : k m.m.m.m.m.m.m.m.m.m.m.m.m.m.m.m.m.m.",
"m.m.m.m.m.m.m.m.m.m.m.m.m.m.m.m.m.m.m.m.m.m.m.m.m.m.m.m.m.m.m.m.m.m.m.m.m.m.m.m.m.m.m.m.m.m.m.m.m.m.",
"m.m.m.m.m.m.m.m.m.m.m.m.m.m.m.m.m.m.m.m.m.m.m.m.m.m.m.m.m.m.m.m.m.m.m.m.m.m.m.m.m.m.m.m.m.m.m.m.m.m."
};
