/* XPM */
static char *result[] = {
/* columns rows colors chars-per-pixel */
"50 50 145 2 ",
"   c #1F282F",
".  c #22222F",
"X  c #2E2A29",
"o  c #262D37",
"O  c #2B2B36",
"+  c #242C38",
"@  c #2D2E39",
"#  c #2A3137",
"$  c #2C353C",
"%  c #3A3635",
"&  c #33363E",
"*  c #38373D",
"=  c #353A3E",
"-  c #3C393C",
";  c #2C3144",
":  c #2F3943",
">  c #333441",
",  c #383742",
"<  c #343A44",
"1  c #3C3E46",
"2  c #363F4A",
"3  c #3A3E4A",
"4  c #374047",
"5  c #3E4145",
"6  c #3B434C",
"7  c #3E4651",
"8  c #434347",
"9  c #4B4746",
"0  c #4C4847",
"q  c #44444D",
"w  c #47484A",
"e  c #414652",
"r  c #444B54",
"t  c #4C4B52",
"y  c #464C59",
"u  c #494D5B",
"i  c #4B535C",
"p  c #515157",
"a  c #53555D",
"s  c #59575A",
"d  c #51585E",
"f  c #5E5D5F",
"g  c #4D5560",
"h  c #4C5961",
"j  c #515762",
"k  c #545B64",
"l  c #5C5D64",
"z  c #565D69",
"x  c #5B5F6A",
"c  c #586166",
"v  c #576069",
"b  c #5C636C",
"n  c #5E6672",
"m  c #626265",
"M  c #62656D",
"N  c #676B6E",
"B  c #6B696C",
"V  c #706E6C",
"C  c #616672",
"Z  c #636A75",
"A  c #6A6D75",
"S  c #656C79",
"D  c #6A6E78",
"F  c #716F72",
"G  c #677077",
"H  c #6F7375",
"J  c #67717A",
"K  c #6C737C",
"L  c #6F787F",
"P  c #73747B",
"I  c #75797F",
"U  c #7B7D7E",
"Y  c #807D7C",
"T  c #6D7482",
"R  c #6E7881",
"E  c #727682",
"W  c #737B84",
"Q  c #7B7D83",
"!  c #757D8A",
"~  c #7B7F8A",
"^  c #7B8187",
"/  c #77818C",
"(  c #7B838D",
")  c #7C8592",
"_  c #7E8992",
"`  c #828187",
"'  c #83858C",
"]  c #818590",
"[  c #828B94",
"{  c #848D99",
"}  c #86929B",
"|  c #8A939D",
" . c #95979E",
".. c #98989C",
"X. c #8D96A1",
"o. c #8F99A2",
"O. c #9097A7",
"+. c #929CA5",
"@. c #949EA9",
"#. c #999EAA",
"$. c #96A2AB",
"%. c #9AA4AD",
"&. c #9DA8AE",
"*. c #9DA6B1",
"=. c #9FAAB4",
"-. c #A1A7B1",
";. c #A3ABB5",
":. c #A5AEB9",
">. c #A9AEBB",
",. c #A5B0B6",
"<. c #A6B2BB",
"1. c #AAB5BE",
"2. c #ACB9BF",
"3. c #ADB6C1",
"4. c #ADBAC2",
"5. c #AFBDC8",
"6. c #B1B7C3",
"7. c #B2BCC5",
"8. c #B5BEC9",
"9. c #AFC0C8",
"0. c #B4C0C7",
"q. c #B5C2CA",
"w. c #BAC4CC",
"e. c #BCC9CE",
"r. c #BEC6D2",
"t. c #BDCBD2",
"y. c #C1CCD4",
"u. c #C5D3DB",
"i. c #CAD6DE",
"p. c #CCD8DB",
"a. c #D0D9DE",
"s. c #C6D7E1",
"d. c #CED7E2",
"f. c #CCD9E2",
"g. c #D2DDE5",
"h. c #DCE5E6",
"j. c #D7E5EC",
"k. c #D8E0EB",
"l. c #DEE9F1",
"z. c #E3EDF5",
"x. c #E5F2FC",
"c. c #EAF3FC",
"v. c #F0F6FF",
"b. c #F4FEFF",
"n. c None",
/* pixels */
"n.n.n.n.n.n.n.n.n.n.n.n.n.n.n.n.n.n.n.n.n.n.n.n.n.n.n.n.n.n.n.n.n.n.n.n.n.n.n.n.n.n.n.n.n.n.n.n.n.n.",
"n.n.n.n.n.n.n.n.n.n.n.n.n.n.n.n.n.n.n.n.n.n.n.n.n.n.n.n.n.n.n.n.n.n.n.n.n.n.n.n.n.n.n.n.n.n.n.n.n.n.",
"n.n.n.n.n.n.n.n.n.n.n.n.n.n.n.n.n.n.n.n.n.n.n.n.n.n.n.n.m Q ` I n.n.n.n.n.n.n.n.n.n.n.n.n.n.n.n.n.n.",
"n.n.n.n.n.n.n.n.n.n.n.n.n.n.n.n.n.n.n.n.n.n.n.n.n.n.n.n.8 * a l ` n.n.n.n.n.n.n.n.n.n.n.n.n.n.n.n.n.",
"n.n.n.n.n.n.n.n.n.n.X X X % - - n.n.n.n.n.n.n.n.n.n.n.n.8 ' n.n.H m n.n.n.n.n.n.n.n.n.n.n.n.n.n.n.n.",
"n.n.n.n.n.n.n.n.n.n.% 0 n.n.n.w 5 * n.n.n.n.n.n.n.n.n.n.1 ' n.n.I 8 n.n.n.n.n.n.n.n.n.n.n.n.n.n.n.n.",
"n.n.n.n.n.n.n.n.n.n.% n.n.n.n.n.w a 8 n.n.n.n.n.n.n.n.E A E n.n.E M  .n.n.n.n.n.n.n.n.n.n.n.n.n.n.n.",
"n.n.n.n.n.n.n.n.n.n.0 n.n.n.n.n.n.n.n.k q l n.n.n.n.Z m n.n.n.n.n.n.b ' n.n.n.n.n.n.n.n.n.n.n.n.n.n.",
"n.n.n.n.n.n.n.n.n.n.Y V n.n.n.n.n.n.n.j C ^ K P Q P h i n.n.n.n.n.n.e ^ n.n.n.n.n.n.n.n.n.n.n.n.n.n.",
"n.n.n.n.n.n.n.n.n.n.n.B m n.n.n.n.n.n.n.n.<.g 6 > 7 4 z 8.n.n.n.n.n.b [ n.n.n.n.n.n.n.n.n.n.n.n.n.n.",
"n.n.n.n.n.n.n.n.n.n.n.F m n.n.n.n.n.n.n.d.7.*.@.=.O.%.$.t.i.f.n.n.n.n.[ M n.n.n.n.P q 8 w 3 n.n.n.n.",
"n.n.n.n.n.n.n.n.n.n.n...U H n.n.n.n.i.g.t.0.1.8.3.7.0.4.0.w.u.f.i.n.n.} 7 n.n.I P B M p q 8 n.n.n.n.",
"n.n.n.n.n.n.n.n.n.n.n.n.' 5 ` n.i.y.2.4.1.3.8.1.3.7.2.7.<.5.q.2.t.f.c.{ 6 n.W q e l n.n.n.& n.n.n.n.",
"n.n.n.n.n.n.n.n.n.n.m 8 = # U w.e.,.0.q.7.6.7.8.7.7.7.7.q.1.2.2.0.q.w.R   < A n.n.n.n.n.n.@ n.n.n.n.",
"n.n.n.n.n.n.n.m m B A Q W L $.1.0.7.4.4.;.;.%.X.| | +.$.&.<.0.2.4.9.2.} I L n.n.n.n.n.n.n.O n.n.n.n.",
"n.n.n.n.n.n.n.t w N n.n.n.7.1.0.2.7.<.4.%.} | / Z Z /  .} %.,.4.1.0.4.4.0.n.n.n.n.n.n.n.n.. n.n.n.n.",
"n.n.n.n.s t m n.n.n.n.n.t.5.8.3.2.7.1. .%.2.-.[ Z A { ;.6.| ( 1.7.5.2.7.0.p.n.n.n.n.n.6 > n.n.n.n.n.",
"n.n.n.t t m f n.n.n.n.n.e.q.:.5.7.,.%.%.,.2.8.' Z M O.7.1.$.{ X.*.5.1.4.4.t.i.n.n.n.n.e , n.n.n.n.n.",
"n.n.t t n.n.n.n.n.n.n.e.4.4.5.3.=.o.+.1.7.2.2. .L J @.4.3.5.;.! } ;.8.3.0.q.i.n.n.n.n.y n.n.n.n.n.n.",
"n.n.q s n.n.n.n.n.n.n.t.2.5.8.*._ $.1.<.7.7.2.,.-.$.>.7.5.5.3.=.X._ ;.1.4.2.g.b.n.@.C n.n.n.n.n.n.n.",
"n.n.1 t q l n.n.n.n.y.q.6.3.X.| _ %.4.4.4.5.2.0.7.7.7.4.5.5.4.3.#.{ *.3.8.2.w.z.v.| 6 n.n.n.n.n.n.n.",
"n.n., q q 8 P n.n.n.8.7.3.6.T n ,.4.3.q.4.1.7.=.*.*.1.5.<.5.8.4.3.>.O.o.1.7.w.7.k.@.C n.n.n.n.n.n.n.",
"n.n.n.n.n.n.j c j E 1.>.8.3.E S =.q.5.5.1.7.1.( 7 i / 7.q.3.4.5.7.4.O.*.7.2.4.:.S [ n.n.n.n.n.n.n.n.",
"n.n.n.n.n.n.n.M 6 i *.7.8.3.E k ) _ o.<.0.,.( W W W R { ;.5.3.$.O.X./ O.6.7.7.%.6 ] n.n.n.n.n.n.n.n.",
"n.n.n.n.n.n.n.n.n y ,.9.7.<.K u u u C ;.8.+.3 +.c.c.~ 6 -.6.;.W T T n X.3.3.4.%.6 ( n.n.n.n.n.n.n.n.",
"n.n.n.n.n.n.n.n.G i $.0.6.2.! e y t C -.2.| 3 #.n.n.[ e #.7.-.T n S n { 3.5.5.$.e / n.n.n.n.n.n.n.n.",
"n.n.n.n.n.n.n.n.G 7 =.4.7.1.A j S T ' >.2.-.Z ' 1.-.~ P *.3.>.X.) ) W X.3.8.3.$.4 b ! n.n.n.n.n.n.n.",
"n.n.n.n.n.n.n.n./ h <.0.2.2.E n *.>.>.w.6.6.-.K 1 6 E ,.8.7.7.>.3.:.} @.4.4.3.*.h : Z n.n.n.n.n.n.n.",
"n.n.n.n.n.n.n.Z } 4.4.9.<.3./ b >.8.3.5.3.3.w.O.] ] &.0.1.7.7.7.q.1.X.%.9.4.4.9.<.<./ ! Z Z g n.n.n.",
"n.n.n.n.n.n.n.6 X.n.s.9.q.<._ ! { 3.5.4.4.4.7.7.0.0.7.7.3.8.1.7.<.*.+.;.4.4.q.t.n.n.n.! Z n > j n.n.",
"n.n.n.n.n.n.n.k n.n.x.s.9.4.4.$.) @.<.3.5.7.2.<.,.,.<.2.9.4.<.4.%.%.=.2.4.9.t.l.n.n.n.n.n.n.u C n.n.",
"n.n.n.n.n.n.k n.n.n.n.s.4.9.5.<.O._ X.3.2.7.7.| G J | 4.4.9.1.$.$.,.2.9.2.2.f.c.n.n.n.n.n.n.g D n.n.",
"n.n.n.n.n.d c n.n.n.n.g.e.0.2.2.4.o.} O.<.5.>.E y u ~ 3.8.=.o.$.<.4.4.4.7.t.g.n.n.n.n.n.! / R S n.n.",
"n.n.n.n.n.c b n.n.n.n.h.p.2.2.0.2.4.+.! O.4.3.! y u ~ 3.;.X._ %.4.2.8.7.q.u.x.n.n.n.n.D y z n.n.n.n.",
"n.n.n.n.< r n.n.n.n.n.n.a.w.2.2.4.9.4.$.) T T z y y x T T / @.5.7.3.2.7.w.z.b.z.} P R ) / n.n.n.n.n.",
"n.n.n.n.6 n.n.n.n.n.n.n.,.+.,.2.9.<.1.2.{ n Z S T n S n T X.3.3.1.8.7.%. .2.2.;.H C K n.n.n.n.n.n.n.",
"n.n.n.n.y n.n.n.n.n.n.S q > ) q.5.w.9.2.2.>.-.>.*.-.>.>.-.3.8.8.7.7.7.E $ 7 y l n.n.n.n.n.n.n.n.n.n.",
"n.n.n.n.6 n.n.n.n.j z D D 3 O.d.t.e.2.2.6.7.7.2.6.6.6.8.3.3.8.8.w.g.g._ $ ^ [ L n.n.n.n.n.n.n.n.n.n.",
"n.n.n.n.e e n.n.z x z n.n.2 { n.l.p.w.w.7.2.7.7.6.6.6.3.6.r.d.8.d.l.n.-.J _ n.n.n.n.n.n.n.n.n.n.n.n.",
"n.n.n.n.2 < 6 g n.n.n.n.n.g n n.n.n.c.h.y.7.2.2.3.3.3.3.8.d.z.n.n.n.n.n.n.c P n.n.n.n.n.n.n.n.n.n.n.",
"n.n.n.n.n.n.n.n.n.n.n.n.n.n.x S n.n.n.n.z.w.K b b b b ! y.v.n.n.n.n.n.n.n.e E n.n.n.n.n.n.n.n.n.n.n.",
"n.n.n.n.n.n.n.n.n.n.n.n.n.n.i v n.n.n.n.n.<.4 < d i j D 1.8.n.n.n.n.n.n.n.E Q n.n.n.n.n.n.n.n.n.n.n.",
"n.n.n.n.n.n.n.n.n.n.n.n.n.n.6 v n.n.n.n.n.n.i b n.n.n.n.M 1 x n.n.n.n.n.n.n.P M n.n.n.n.n.n.n.n.n.n.",
"n.n.n.n.n.n.n.n.n.n.n.n.n.n.n.i g n.n.n.n.j y n.n.n.n.n.n.n.q t i d n.n.n.n.j 3 n.n.n.n.n.n.n.n.n.n.",
"n.n.n.n.n.n.n.n.n.n.n.n.n.n.n.n.7 n.n.n.e k n.n.n.n.n.n.n.n.n.= q 6 n.n.n.n.6 t n.n.n.n.n.n.n.n.n.n.",
"n.n.n.n.n.n.n.n.n.n.n.n.n.n.n.n.7 n.n.n.7 < n.n.n.n.n.n.n.n.n.n.n.n.< q q 3 @ 3 n.n.n.n.n.n.n.n.n.n.",
"n.n.n.n.n.n.n.n.n.n.n.n.n.n.n.n.n.; ; + 6 3 n.n.n.n.n.n.n.n.n.n.n.n.n.n.n.n.n.n.n.n.n.n.n.n.n.n.n.n.",
"n.n.n.n.n.n.n.n.n.n.n.n.n.n.n.n.n.n.2 < 2 + n.n.n.n.n.n.n.n.n.n.n.n.n.n.n.n.n.n.n.n.n.n.n.n.n.n.n.n.",
"n.n.n.n.n.n.n.n.n.n.n.n.n.n.n.n.n.n.n.n.n.n.n.n.n.n.n.n.n.n.n.n.n.n.n.n.n.n.n.n.n.n.n.n.n.n.n.n.n.n.",
"n.n.n.n.n.n.n.n.n.n.n.n.n.n.n.n.n.n.n.n.n.n.n.n.n.n.n.n.n.n.n.n.n.n.n.n.n.n.n.n.n.n.n.n.n.n.n.n.n.n."
};
