/* XPM */
static char *result[] = {
/* columns rows colors chars-per-pixel */
"50 50 45 1 ",
"  c black",
". c #010000",
"X c #020102",
"o c #040303",
"O c #050304",
"+ c gray4",
"@ c #0B0A0A",
"# c gray7",
"$ c #1C1012",
"% c #191818",
"& c gray12",
"* c #231416",
"= c #281618",
"- c #2C1819",
"; c #321A1C",
": c #2F2417",
"> c #3D1D21",
", c #232323",
"< c #282828",
"1 c #2C2D2D",
"2 c #392520",
"3 c #3E2C2A",
"4 c gray19",
"5 c #353535",
"6 c #3A3A3A",
"7 c #3E3E3E",
"8 c #452125",
"9 c #4E252A",
"0 c #45322C",
"q c #533E27",
"w c #612C33",
"e c #62472E",
"r c #695030",
"t c #755B34",
"y c gray26",
"u c gray27",
"i c gray29",
"p c #4E4E4E",
"a c gray32",
"s c #565656",
"d c gray35",
"f c #5D5C5C",
"g c #626262",
"h c #896A3B",
"j c #333",
/* pixels */
"@OOO@#@OOOO@@OOO@@OOO@###@@@@@@OO@@@###@@@OO@OO@@@",
"@#,14454,&,1441<<11,,<5544<,11<&&<<,,<<<,&%%%%#%#O",
"@<adsaffpuisggfaaddaiissadaisdaiipiy67yy76654111#O",
"@4gddgfaiuiaffapaggfpiisffdafggfdfpuy7777y665411#O",
"@5fdfgaiiipssapiiaau655yiiuyyuiipppiiu667u766541%O",
"#4afffpiadfdpisi661%#%&&,,,&%%%<46uppiu67uu76651%@",
"@4fgspiaggdi7774,&%OOO@@@@@@OOO#&&46yiiuyu77y751#O",
"@6gfaipdfdp655<%@@+o..........o+@@%<5yiiiu77y761%O",
"#6gdaadsi7665<&#OOojjjjjjjjjjjjoOO#&<57iiuu76y74&#",
"@5ggdapi754<&%@ojjjjjjjjjjjjjjjjjjo@%&<7y777yu74%@",
"O1dggsi751,%%#O jjjjjjjjjjjjjjjjjj O##%155667y74%@",
"O,afggi54&%==$O jjjjjjjjjjjjjjjjjj O$==%,4554561&#",
"O<sggs74<&*--$O jjjjjjjjjjjjjjjjjj O$--*%,154455&#",
"@1fgdy4<,---=$O jjjjjjjjjjjjjjjjjj O$=--=%,46555&@",
"O<apu6,%;;--=$O jjjjjjjjjjjjjjjjjj O$=----%,5764&#",
"O<dp7<&;8>--=$O jjjjjjjjjjjjjjjjjj O$=-->8;,6y75&#",
"O1gd6%=8w8--=$O jjjjjjjjjjjjjjjjjj O$=--8w83y766,#",
"O<sp5%-8w8--=$O jjjjjjjjjjjjjjjjjj O$=--8w80au6y<#",
"O<as6%=8w8--=$O jjjjjjjjjjjjjjjjjj O$=--8w80fu56<#",
"@1fgy#*89>--=$O jjjjjjjjjjjjjjjjjj O$=-->9>0gu11&#",
"#5fd5#*89>=-=$O jjjjjjjjjjjjjjjjjj O$=-=>9>0gi41&#",
"#5dp4#*>833;=$O jjjjjjjjjjjjjjjjjj O$=;338;0gp51&#",
"#5ds6%**-et2*$O jjjjjjjjjjjjjjjjjj O$*2te-*5gp51%@",
"@4ai5&**-rhq2$O jjjjjjjjjjjjjjjjjj O$2qhr-*3fp65&@",
"@<i71&--;rht0*O jjjjjjjjjjjjjjjjjj O*0thr;=0spy6&@",
"@&65,%-;>ehrq:@ jjjjjjjjjjjjjjjjjj @:qrhe>;0sa74%@",
"O%45<%=-;etq0:@ jjjjjjjjjjjjjjjjjj @:0qte;=0fp61%#",
"O#45<%**-qr2::@ jjjjjjjjjjjjjjjjjj @::2rq-*3fp54&#",
"O%55,#*>992;-*O jjjjjjjjjjjjjjjjjj O*-;299>3ai75,#",
"O&65&@=8w8=-=$O jjjjjjjjjjjjjjjjjj O$=-=8w80sau7,#",
"@,y7<@*8w8--=$O jjjjjjjjjjjjjjjjjj O$=--8w80gfpu,@",
"O,iu1@*89>--=$O jjjjjjjjjjjjjjjjjj O$=-->9>0fdap<@",
"O<ai4#=>9>=-=$O jjjjjjjjjjjjjjjjjj O$=-=>9>0sapp<O",
"@1dp4%->9>;-=$O jjjjjjjjjjjjjjjjjj O$=-;>9>3puyp,O",
"O1fa5%*-;qe;*$O jjjjjjjjjjjjjjjjjj O$*;eq;=3au7p<O",
"O<dd7%**=rh0-$O jjjjjjjjjjjjjjjjjj O$-0hr=$3su7i<@",
"@<agi,==-rhr3$O jjjjjjjjjjjjjjjjjj O$3rhr-=3pu7u<#",
"@<ifu&-;;rhtq-O jjjjjjjjjjjjjjjjjj O-qthr;;3p757<#",
"@,ua7%=;;etrq:@ jjjjjjjjjjjjjjjjjj @:qrte;;3p645,#",
"#,7fi,**=qr32:@ jjjjjjjjjjjjjjjjjj @:23rq=*3i645&@",
"#&7di&=;>00;;-@ jjjjjjjjjjjjjjjjjj @-;;00>-3p644%O",
"@&6p6%=8w8--=$O jjjjjjjjjjjjjjjjjj O$=--8w83i611#O",
"#,6u5%-8w8--=$O jjjjjjjjjjjjjjjjjj O$=--8w83u611%O",
"#,674%-8w8--*$ojjjjjjjjjjjjjjjjjjjjo$*--8w83y5<1&@",
"@&661%->9>-*@XjjjjjjjjjjjjjjjjjjjjjjX@*->9>3y4,1&#",
"@&664&;>9>*@.jjjjjjjjjjjjjjjjjjjjjjjj.@*>9>261,,%@",
"@&551&->8-$XjjjjjjjjjjjjjjjjjjjjjjjjjjX$-8>251&&%@",
"#&1<&%*==@XjjjjjjjjjjjjjjjjjjjjjjjjjjjjX@=*,5<&&%#",
"#%&%#@@@OojjjjjjjjjjjjjjjjjjjjjjjjjjjjjjoO@#,%#%##",
"@##@@@OOOjjjjjjjjjjjjjjjjjjjjjjjjjjjjjjjjOOO#@@##@"
};
