/* XPM */
static char *result[] = {
/* columns rows colors chars-per-pixel */
"50 50 218 2 ",
"   c #0B071D",
".  c #26131F",
"X  c #0D0B23",
"o  c #140C28",
"O  c #161324",
"+  c #15142A",
"@  c #1B1A2D",
"#  c #1A1728",
"$  c #161632",
"%  c #1C1B32",
"&  c #161A38",
"*  c #0F193C",
"=  c #231A2D",
"-  c #211428",
";  c #331925",
":  c #231E34",
">  c #1F2338",
",  c #2A222B",
"<  c #21202E",
"1  c #362325",
"2  c #36232A",
"3  c #3A2324",
"4  c #272639",
"5  c #382936",
"6  c #3A353C",
"7  c #4D291D",
"8  c #4C1D27",
"9  c #531C29",
"0  c #541C28",
"q  c #472829",
"w  c #55252C",
"e  c #4A3123",
"r  c #5A3B27",
"t  c #442B36",
"y  c #542B33",
"u  c #5C2A34",
"i  c #483638",
"p  c #553937",
"a  c #62373E",
"s  c #652F3C",
"d  c #5A4538",
"f  c #73453C",
"g  c #744728",
"h  c #1E2247",
"j  c #2A2D43",
"k  c #2D2B4A",
"l  c #252648",
"z  c #322C42",
"x  c #362C4A",
"c  c #2D324A",
"v  c #323346",
"b  c #32354A",
"n  c #343C4C",
"m  c #2D3354",
"M  c #2C3458",
"N  c #353957",
"B  c #302E53",
"V  c #383C63",
"C  c #423646",
"Z  c #473F58",
"A  c #402E44",
"S  c #683B45",
"D  c #3D425A",
"F  c #3C4155",
"G  c #3C466A",
"H  c #5B4547",
"J  c #44445B",
"K  c #494858",
"L  c #514959",
"P  c #41414B",
"I  c #684548",
"U  c #764C4C",
"Y  c #724952",
"T  c #6A5456",
"R  c #775457",
"E  c #675051",
"W  c #77655E",
"Q  c #79604C",
"!  c #434B6D",
"~  c #444A68",
"^  c #4D5263",
"/  c #575667",
"(  c #444D74",
")  c #595E76",
"_  c #4B5070",
"`  c #6E5A63",
"'  c #5D6677",
"]  c #676769",
"[  c #796264",
"{  c #666778",
"}  c #74757E",
"|  c #6C7079",
" . c #845939",
".. c #985D52",
"X. c #83515C",
"o. c #88685B",
"O. c #B67457",
"+. c #B37054",
"@. c #8B5863",
"#. c #886669",
"$. c #877977",
"%. c #9A787A",
"&. c #936A73",
"*. c #A5766C",
"=. c #9D8579",
"-. c #B68D78",
";. c #B39079",
":. c #C7987B",
">. c #6C7181",
",. c #737688",
"<. c #837E8B",
"1. c #917A80",
"2. c #7E848D",
"3. c #878687",
"4. c #988785",
"5. c #858A94",
"6. c #868E9D",
"7. c #929192",
"8. c #999999",
"9. c #A6848A",
"0. c #AC9386",
"q. c #A9999A",
"w. c #B69995",
"e. c #B19589",
"r. c #BCA495",
"t. c #8B90A1",
"y. c #969AA8",
"u. c #999DB2",
"i. c #A29DA5",
"p. c #9CA3AD",
"a. c #97A1AC",
"s. c #92A1B3",
"d. c #9BA4B4",
"f. c #9CA6BA",
"g. c #9AAAB9",
"h. c #8FA0B4",
"j. c #A3A3AB",
"k. c #ABACAE",
"l. c #A7A5A6",
"z. c #B6A9A2",
"x. c #A2A5B3",
"c. c #A4AAB5",
"v. c #A4ABBC",
"b. c #AAABB7",
"n. c #ACB3BC",
"m. c #A9B4BB",
"M. c #B4B5B5",
"N. c #BDB5B4",
"B. c #B4B6BB",
"V. c #BCBABC",
"C. c #B6B8BD",
"Z. c #B7ADBE",
"A. c #C29984",
"S. c #C79C8A",
"D. c #CBA288",
"F. c #C3A496",
"G. c #CAAA9A",
"H. c #D6AD98",
"J. c #D7B29C",
"K. c #E0B09C",
"L. c #C3ABAD",
"P. c #CAADA8",
"I. c #CAB3A5",
"U. c #D8B7A8",
"Y. c #CBB9B6",
"T. c #D3BEBB",
"R. c #E8BDA9",
"E. c #D9C5BB",
"W. c #CEC1B9",
"Q. c #F1C6B3",
"!. c #ABB4C5",
"~. c #A7B9CC",
"^. c #B4BAC5",
"/. c #B5BCCB",
"(. c #BABECA",
"). c #B5B7C5",
"_. c #A9B9D1",
"`. c #B1B6C8",
"'. c #C9BEC4",
"]. c #BCC2CB",
"[. c #BCC0C1",
"{. c #BDC8D9",
"}. c #BBCEE5",
"|. c #CCC3C1",
" X c #C7C6CA",
".X c #D6CBC9",
"XX c #DBD4CE",
"oX c #C2C7D2",
"OX c #C4C9D4",
"+X c #CACDD6",
"@X c #C5CCDA",
"#X c #C8CBDB",
"$X c #D2CDD2",
"%X c #CCD2DD",
"&X c #C7D0DF",
"*X c #D2D5DC",
"=X c #DCDCDC",
"-X c #EACCC8",
";X c #E4E0DD",
":X c #F9E3D8",
">X c #C6CEE1",
",X c #C5D1E2",
"<X c #C8D3E3",
"1X c #D5DBE5",
"2X c #D9DBE3",
"3X c #D2D8E6",
"4X c #E0DFE4",
"5X c #DCE1E8",
"6X c #DEE6F3",
"7X c #E4E6EB",
"8X c #E6E7EB",
"9X c #E3E9F4",
"0X c #EAECF3",
"qX c #EAEBF8",
"wX c #EDF3F6",
"eX c #F6F6FD",
"rX c #F3EEF3",
"tX c None",
/* pixels */
"tXtXtXtXtXtXtXtXtXtXtXtXtXtXtXtXtXtXtXtXtXtXtXtXtXtXtXtXtXtXtXtXtXtXtXtXtXtXtXtXtXtXtXtXtXtXtXtXtXtX",
"tXtXtXtXtXtXtXtXtXtXtXtXtXtXtXtXtXtXtXtXtXtXtXtXtXtXtXtXtXtXtXtXtXtXtXtXtXtXtXtXtXtXtXtXtXtXtXtXtXtX",
"tXtXtXtXtXtXtXtXtXtXtXtXtXtXtXtXtXtXtXtXtXtXtXtXtXtXtXtXtXtXtXtXtXtXtXtXtXtXtXtXtXtXtXtXtXtXtXtXtXtX",
"tXtXtXtXtXtXtXtXtXtXtXtXtXtXtXtXtXtXtXtXtXtXtXtXtXtXtXtXtXtXtXtXtXtXtXtXtXtXtXtXtXtXtXtXtXtXtXtXtXtX",
"tXtXtXtXtXtXtXtXtXtXtXtXtXtXtXtXtXtXtXtXtXtXtXtXtXtXtXtXtXtXtXtXtXtXtXtXtXtXtXtXtXtXtXtXtXtXtXtXtXtX",
"tXtXtXtXtXtXtXtXtXtXtXtXtXtXtXtXtXtXtXtXtXtXtXtXtXtXtXtXtXtXtXtXtXtXtXtXtXtXtXtXtXtXtXtXtXtXtXtXtXtX",
"tXtXtXtXtXtXtXtXtXtXtXtXtXtXtXtXtXtXtXtXtXtXtXtXtXtXtXtXtXtX0X9X7X1X].a.!.3X%XtXtXtXtXtXtXtXtXtXtXtX",
"tXtXtXtXtXtXtXtXtXtXtXtXtXtXtXtXtXtXtXtXtXtXtXtXtXtXtXtXtXtX=XOXOXd.| n { g.c.^.$X$XtXtXtXtXtXtXtXtX",
"tXtXtXtXtXtXtXtXtXtXtXtXtXtXtXtXtXtXtXtXtXtXtXtXtXtXtXtXtXtX(.k.u./ K >.2.f.^. X$X$X$XtXtXtXtXtXtXtX",
"tXtXtXtXtXtXtXtXtXtXtXtXtXtXtXtXtXtXtXtXtXtXtXtXtXtXtXtXtXtX XoXb.{ / t.u.b.).Y.W.W.W.Y.tXtXtXtXtXtX",
"tXtXtXtXtXtXtXtXtXtXtXtXtXtXtXtXtXtXtXtXtXtXtXtXtXtXtXtXtXtXtXtX9Xv.6.x.i.w.L.P.G.G.J.G.XXtXtXtXtXtX",
"tXtXtXtXtXtXtXtXtXtXtXtXtXtXtXtXtXtXtXtXtXtXtXtXtXtXwX5X5X9X6X6X3X`.u.j.q.w.F.F.J.U.G.r..XtXtXtXtXtX",
"tXtXtXtXtXtXtXtXtXtXtXtXtXtXtXtXtXtXtXtXtXtXtXtXeXeX0X<XOXOXOX{.OXv.y.l.r.r.=.e.I.E.I.4.M.tXtXtXtXtX",
"tXtXtXtXtXtXtXtXtXtXtXtXtXtXtXtXtXtXtXtXtXtXtX0X*X*X#XOX!.x.v.v.g.p.p.l.r.;.r e d ;.r.H q.tXtXtXtXtX",
"tXtXtXtXtXtXtXtXtXtXtXtXtXB.tXtXtXtXtXtXtX0X9X1X@X@XOX/.!.d.v.u.a.p.p.q.D.:. .g g D.D.Q z.tXtXtXtXtX",
"tXtXtXtXtXtXtXtXtXtXtXtXtXc.%X@X%XtXtXtX5X+X%XOXOX%X(.!.b././.v.a.a.8.l.r.D.:.:.H.J.R.z.XXtXtXtXtXtX",
"tXtXtXtXtXtXtXtXtXtXtXtXOXx.OX>X<X3X1X1X%X#X@X{.,XOX*X5X8XtXtXOXc.p.a.p.N.Y.F.G.U..X.X X7XtXtXtXtXtX",
"tXtXtXtXtXtXtXtXtXtXtXtXtX^./.OX@X,X#X#X+X#X,X,X<X3X0XtXtXtXtXtX Xm.s.d.n.V.I.Y.|.|.(.(.1XwXtXtXtXtX",
"tXtXtXtXtXtXtXtXtXtXtXtXtXtX(./.>X@X#X#X*X#XOX>X<XqXtXtXtXtXtXtX0X Xc.p.d.b.V.V.l.c.d.f./.3XeXtXtXtX",
"tXtXtXtXtXtXtXtXtXtXtXtXtXtX3X(.!.!.(.OX#XOX/.<X6XtXtXtXtXtX=X0XtX0XOXn.p.d.^.c.a.m._._.~./.eXtXtXtX",
"tXtXtXtXtXtXtXtXtXtXtXtXtXtXtX2Xc.!.]. X].].^.<XtXtXtXtXtX;XV. XtXtX8X(.f.u.f.h.g.].{.}._.~.qXtXtXtX",
"tXtXtXtXtXT [ tXtXtXtXtXtXtXtXtXtX9X%Xb.p.^.1XtXtXtXtXtX;XN.8.l.$XrX8XV.n.!.s.h.h.h.~.}.~.!.9XtXtXtX",
"tXtXtXtX&.8 y #.tXtXtXtXtXtXtXtXtXtXtX+X X2XtXtXtXtX8X=XV.8.8.l.C.$X$XM.B.!.s.f.g.h.g.!.f.v.7XtXtXtX",
"tXtXtXtXtXu 8 u Y tXtXtXtXtXtXtXtXtXtXtXtXtXtXtXtX XN.k.8.7.k.k.M.M.M.k.k.x.y.u.g.s.d.p.p.).wXtXtXtX",
"tXtXtXtXtXtXy y u @.&.1.tXtXtXtXtXtXtXtXtXtXtXtX|.k.7.7.7.7.k.m.n.n.j.,.>.| / t.>X`.u.j.[.7XtXtXtXtX",
"tXtXtXtXtXtXtXS 9 9 9 u 1.tXtXtXtXtXtXtXtX|.|.z.4.4.=.2.2.2.m.p.y.t.,.^ F J { c.tX%XB.C.=XtXtXtXtXtX",
"tXtXtXtXtXtXtXtXy 8 u 9 S S S S.tXtXtXtXq.T d d d W $.7.3.2.k.2.) ) ! M c ^ ].tXtXtXtXtXtXtXtXtXtXtX",
"tXtXtXtXtXtXtXtXtXS 9 9 0 u 0 @.9.4.Y.tXE.=.d e e W 3.2.} ' 2.' J N B l h K %XtXtXtXtXtXtXtXtXtXtXtX",
"tXtXtXtXtXtXtXtXtX1.H I u 9 0 w w y #.-X-XU.o.r r #.=.] / D F F j k h h 4 L W.:XtXtXtXtXtXtXtXtXtXtX",
"tXtXtXtXtXtXtXtXtXtXtXtX[ 8 w 8 9 9 y Y R ..A.-.;.0.$.6 < + + + o $ $ + : i *.A.:.A.U.tXtXtXtXtXtXtX",
"tXtXtXtXtXtXtXtXtXtXtXtXtX1.%.Y 0 w 9 8 7 f J.R.H.r.3.K 4 & * + X o O @ ; y ..O.O.O.A.tXtXtXtXtXtXtX",
"tXtXtXtXtXtXtXtXtXtXtXtXtXtXtXw.s u u w 0 U H.Q.R.G.q.3./ l l > % % O = ; y ..O.+.+.:.tXtXtXtXtXtXtX",
"tXtXtXtXtXtXtXtXtXtXtXtXtXtXtXtXL.P.%.q q I U.-XE.z.3.C 4 & l h * * % = ; w ..O.+.+.S.tXtXtXtXtXtXtX",
"tXtXtXtXtXtXtXtXtXtXtXtXtXtXtXtXtXtXL.S q H 9.i.q.l.| #   X h l * * $ : . 3 U *.A.F.U.tXtXtXtXtXtXtX",
"tXtXtXtXtXtXtXtXtXtXtXtXtXtXtXtXtXtXZ.C 5 A Z L / ,.{ @ X X o + & : % = . . 1 $.tXtXtXtXtXtXtXtXtXtX",
"tXtXtXtXtXtXtXtXtXtXtXtXtXtXtXtXtXtX`.Z x B z x J { { 4 =     O o @ % $ < < O 2.tXtXtXtXtXtXtXtXtXtX",
"tXtXtXtXtXtXtXtXtXtXtXtXtXtXtXtXtXtXx.J l M M V _ _ _ n 4 X   @ : @ % + + > n 6.tXtXtXtXtXtXtXtXtXtX",
"tXtXtXtXtXtXtXtXtXtXtXtXtXtXtXtXtX5.^ k B M V V ( ! _ ~ b < # O @ + % % $ F tXtXtXtXtXtXtXtXtXtXtXtX",
"tXtXtXtXtXtXtXtXtXtXtXtXtXtXtXtXtX] 4 l M V G >.( ! G D v 4 , # # @ + % D tXtXtXtXtXtXtXtXtXtXtXtXtX",
"tXtXtXtXtXtXtXtXtXtXtXtXtXtXtXtXtX{ c B V V G G ! ~ N v 4 , 2 , @ : < z tXtXtXtXtXtXtXtXtXtXtXtXtXtX",
"tXtXtXtXtXtXtXtXtXtXtXtXtXtXtXtX,.J l m M G G G ~ J v 4 5 ; ; 2 , - L tXtXtXtXtXtXtXtXtXtXtXtXtXtXtX",
"tXtXtXtXtXtXtXtXtXtXtXtXtXtXtXtXz k B B l m V >.,.{ L 5 ; 5 R T ` / tXtXtXtXtXtXtXtXtXtXtXtXtXtXtXtX",
"tXtXtXtXtXtXtXtXtXtXtXtXtXtXtXtX5 x 5 v b 6 n 2.tXtXl.i 2 E tXtXtXtXtXtXtXtXtXtXtXtXtXtXtXtXtXtXtXtX",
"tXtXtXtXtXtXtXtXtXtXtXtXtXtXtXT ; i 5 C } y.8.tXtXtXtX6 [ tXtXtXtXtXtXtXtXtXtXtXtXtXtXtXtXtXtXtXtXtX",
"tXtXtXtXtXtXtXtXtXtXtXtXtXtXH 2 q e p T N.tXtXtXtXtXtX] tXtXtXtXtXtXtXtXtXtXtXtXtXtXtXtXtXtXtXtXtXtX",
"tXtXtXtXtXtXtXtXtXtXtXtXtXtXi q y q #.Y.tXtXtXtXtXtXtXtXtXtXtXtXtXtXtXtXtXtXtXtXtXtXtXtXtXtXtXtXtXtX",
"tXtXtXtXtXtXtXtXtXtXtXtXtXtXi 3 p #.L.tXtXtXtXtXtXtXtXtXtXtXtXtXtXtXtXtXtXtXtXtXtXtXtXtXtXtXtXtXtXtX",
"tXtXtXtXtXtXtXtXtXtXtXtXtX6 2 q I P.tXtXtXtXtXtXtXtXtXtXtXtXtXtXtXtXtXtXtXtXtXtXtXtXtXtXtXtXtXtXtXtX",
"tXtXtXtXtXtXtXtXtXtXtXtXtX1 1 3 p W N.tXtXtXtXtXtXtXtXtXtXtXtXtXtXtXtXtXtXtXtXtXtXtXtXtXtXtXtXtXtXtX",
"tXtXtXtXtXtXtXtXtXtXtXtXtXE T E T R w.tXtXtXtXtXtXtXtXtXtXtXtXtXtXtXtXtXtXtXtXtXtXtXtXtXtXtXtXtXtXtX"
};
