/* XPM */
static char *result[] = {
/* columns rows colors chars-per-pixel */
"50 50 222 2 ",
"   c #09071D",
".  c #2B181E",
"X  c #0A0B25",
"o  c #080925",
"O  c #140F23",
"+  c #1C1425",
"@  c #12122C",
"#  c #1A162C",
"$  c #1D192E",
"%  c #111227",
"&  c #1C1B32",
"*  c #161A37",
"=  c #0F132E",
"-  c #241B2B",
";  c #271C26",
":  c #391F23",
">  c #221D34",
",  c #1B213D",
"<  c #2D202B",
"1  c #2F2327",
"2  c #3A2326",
"3  c #232233",
"4  c #222139",
"5  c #2C2436",
"6  c #3C2C33",
"7  c #332E3C",
"8  c #342839",
"9  c #3D333C",
"0  c #4B2B1A",
"q  c #4D1C26",
"w  c #4D1E29",
"e  c #531D29",
"r  c #531D27",
"t  c #44252A",
"y  c #4D242B",
"u  c #442B2D",
"i  c #472B26",
"p  c #54222C",
"a  c #583724",
"s  c #432B37",
"d  c #592A34",
"f  c #582A34",
"g  c #4B3235",
"h  c #47373A",
"j  c #5E363E",
"k  c #61343D",
"l  c #673536",
"z  c #6A4A39",
"x  c #1E2441",
"c  c #2B2C44",
"v  c #2B2E4A",
"b  c #252B46",
"n  c #312C43",
"m  c #3A2E42",
"M  c #2C324B",
"N  c #2A3046",
"B  c #333249",
"V  c #2F3655",
"C  c #343451",
"Z  c #3A3A51",
"A  c #363C5A",
"S  c #453A46",
"D  c #513C49",
"F  c #623A42",
"G  c #3E4259",
"H  c #3A4669",
"J  c #3D4B72",
"K  c #59464A",
"L  c #47475A",
"P  c #52484E",
"I  c #624A46",
"U  c #685757",
"Y  c #745B51",
"T  c #734B50",
"R  c #766253",
"E  c #454662",
"W  c #454B63",
"Q  c #454B6B",
"!  c #4A4C64",
"~  c #4B506B",
"^  c #555567",
"/  c #444E72",
"(  c #435278",
")  c #575C73",
"_  c #524A62",
"`  c #725D62",
"'  c #5D637B",
"]  c #6B656E",
"[  c #6A687A",
"{  c #796B6C",
"}  c #875949",
"|  c #915A45",
" . c #976E5A",
".. c #AA745D",
"X. c #B4755A",
"o. c #855D65",
"O. c #86696A",
"+. c #8C6E73",
"@. c #857374",
"#. c #947678",
"$. c #916770",
"%. c #A77665",
"&. c #98837A",
"*. c #B98D6A",
"=. c #A8837A",
"-. c #B78A76",
";. c #B99579",
":. c #6D7489",
">. c #767887",
",. c #787C95",
"<. c #666A83",
"1. c #847B83",
"2. c #917F83",
"3. c #A37D84",
"4. c #7E8498",
"5. c #7F8EA3",
"6. c #84838A",
"7. c #8B8586",
"8. c #968886",
"9. c #95928D",
"0. c #898998",
"q. c #989499",
"w. c #9B8F91",
"e. c #B39583",
"r. c #A89B98",
"t. c #BB9F93",
"y. c #A98B8A",
"u. c #BCA48B",
"i. c #ABA19A",
"p. c #B7A498",
"a. c #9C9DAC",
"s. c #9497A9",
"d. c #959DB3",
"f. c #959EB5",
"g. c #8E9FB2",
"h. c #A39DA6",
"j. c #A29CAD",
"k. c #9DA1AD",
"l. c #8DA1B7",
"z. c #94A4B3",
"x. c #9BA3B3",
"c. c #98A8BA",
"v. c #A8A6A8",
"b. c #B8A8A7",
"n. c #A2A5B3",
"m. c #A2AAB5",
"M. c #AAACB6",
"N. c #A3ACBC",
"B. c #AAADBA",
"V. c #A1A3B8",
"C. c #ABB3BC",
"Z. c #A9B3B9",
"A. c #B6B4B8",
"S. c #BBB1A8",
"D. c #CA9C88",
"F. c #D29E89",
"G. c #C9A58C",
"H. c #D3AB8C",
"J. c #C5A598",
"K. c #D9B198",
"L. c #D7AD9F",
"P. c #E5B398",
"I. c #C7AEA3",
"U. c #CAB4A9",
"Y. c #D4B4A6",
"T. c #C8B7B7",
"R. c #D8BFB6",
"E. c #D5AFA4",
"W. c #E2BCA9",
"Q. c #C6C1BC",
"!. c #D7C2B9",
"~. c #E4C3AA",
"^. c #E2C5B5",
"/. c #F6CCB6",
"(. c #9CAEC2",
"). c #A3AFC3",
"_. c #AAB5C4",
"`. c #A8B8C6",
"'. c #B4BECC",
"]. c #B5BAC6",
"[. c #ACBDD1",
"{. c #BABDD0",
"}. c #C2BDC7",
"|. c #D6BCC4",
" X c #BDC4CD",
".X c #B9C5CB",
"XX c #BBC5D3",
"oX c #BDCADA",
"OX c #B9C4D8",
"+X c #C7C6C9",
"@X c #D5C4C2",
"#X c #DACECE",
"$X c #C4CBD6",
"%X c #CCCCD4",
"&X c #C3CBDC",
"*X c #CACCDB",
"=X c #C8C7D5",
"-X c #CAD2DC",
";X c #CDD2D2",
":X c #D4D4D4",
">X c #D7D8DB",
",X c #D0D1CD",
"<X c #E0DAD4",
"1X c #FDE3D6",
"2X c #C3CDE2",
"3X c #CCCEE2",
"4X c #CAD1E3",
"5X c #C5D0E4",
"6X c #DBDBE6",
"7X c #D6DAE7",
"8X c #D5DCF2",
"9X c #DCE0E7",
"0X c #DBE1EB",
"qX c #DBE4F4",
"wX c #E3E5EB",
"eX c #E4E6E6",
"rX c #E7EBF4",
"tX c #ECF4FA",
"yX c #F1F4F6",
"uX c #F8F5F7",
"iX c #F2E8E8",
"pX c None",
/* pixels */
"pXpXpXpXpXpXpXpXpXpXpXpXpXpXpXpXpXpXpXpXpXpXpXpXpXpXpXpXpXpXpXpXpXpXpXpXpXpXpXpXpXpXpXpXpXpXpXpXpXpX",
"pXpXpXpXpXpXpXpXpXpXpXpXpXpXpXpXpXpXpXpXpXpXpXpXpXpXpXpXpXpXpXpXpXpXpXpXpXpXpXpXpXpXpXpXpXpXpXpXpXpX",
"pXpXpXpXpXpXpXpXpXpXpXpXpXpXpXpXpXpXpXpXpXpXpXpXpXpXpXpXpXpXpXpXpXpXpXpXpXpXpXpXpXpXpXpXpXpXpXpXpXpX",
"pXpXpXpXpXpXpXpXpXpXpXpXpXpXpXpXpXpXpXpXpXpXpXpXpXpXpXpXpXpXpXpXpXpXpXpXpXpXpXpXpXpXpXpXpXpXpXpXpXpX",
"pXpXpXpXpXpXpXpXpXpXpXpXpXpXpXpXpXpXpXpXpXpXpXpXpXpXpXpXpXpXpXpXpXpXpXpXpXpXpXpXpXpXpXpXpXpXpXpXpXpX",
"pXpXpXpXpXpXpXpXpXpXpXpXpXpXpXpXpX>X*XpXpXpXpXpXpXpXpXpXpXpXpXpXpXpXpXpXpXpXpXpXpXpXpXpXpXpXpXpXpXpX",
"pXpXpXpXpXpXpXpXpXpXpX9X7X*X{.).m.] L 0.{.4X-XpXpXpXpXpXpXpXpXpXpXpXpXpXpXpXpXpXpXpXpXpXpXpXpXpXpXpX",
"pXpXpXpXpXpXpXpXpXpXeX%X%X%X}.B.a.>.W ) ,._.].+XpXpXpXpXpXpXpXpXpXpXpXpXpXpXpXpXpXpXpXpXpXpXpXpXpXpX",
"pXpXpXpXpXpXpXpXpXpX!.@X!.@X@XT.n.d.,.A ) x.Z.+XpXpXpXpXpXpXpXpXpXpXpXpXpXpXpXpXpXpXpXpXpXpXpXpXpXpX",
"pXpXpXpXpXpXpXpXpXpXU.I.U.U.U.S.h.j.d.,.f.7X9XpXpXpXpXpXpXpXpXpXpXpXpXpXpXpXpXpXpXpXpXpXpXpXpXpXpXpX",
"pXpXpXpXpXpXpXpXpXpXp.I.Y.U.u.p.t.h.a.d.$XrXpXpXpXpXpXpXpXpXpXpXpXpXpXpXpXpXpXpXpXpXpXpXpXpXpXpXpXpX",
"pXpXpXpXpXpXpXpX>XS.i.!.!.Y.p.;.u.p.r.s.`.2X4X4X-X-X4XpXpXpXpXpXpXpXpXpXpXpXpXpXpXpXpXpXpXpXpXpXpXpX",
"pXpXpXpXpXpXpXpXpX9.R T.r.R z R ;.u.r.i.c.).[.).`.OX5X8XqXwXpXpXpXpXpXpXpXpXpXpXpXpXpXpXpXpXpXpXpXpX",
"pXpXpXpXpXpXpXpXpX&.z I.&.a 0 z ;.G.i.v.x.f.c.f.z.`.OXoX&X$XwXuXpXpXpXpXpXpXpXpXpXpXpXpXpXpXpXpXpXpX",
"pXpXpXpXpXpXpXpXpXpXe.~.H.*.*.*.D.J.h.h.d.z.N.Z.Z.Z.Z..XoX*X-X;X7XrXpXpXpXpXpXpXpXpXpXpXpXpXpXpXpXpX",
"pXpXpXpXpXpXpXpXpXpXU.^.~.H.H.H.I.I.h.j.c.C..X:X;X,X$X-X-X&X=X%X=X7XrXrX7X*X$X Xm.pXpXpXpXpXpXpXpXpX",
"pXpXpXpXpXpXpXpXpXpX+X,X+X!.T.S.|.M.a.a.M.+X9XpXpXpXyX9X;X*X*X%X*X3X3X3X5X*X$X XM.pXpXpXpXpXpXpXpXpX",
"pXpXpXpXpXpXpXpX6X{.).N.m.B.A.+XN.x.x.M.+XwXpXpXpXpXpXyX0X>X*X3X4X&X&X2X&XoX'.C.pXpXpXpXpXpXpXpXpXpX",
"pXpXpXpXpXpXpXrX=X].).N.N.m.B.A.z.c.N.XX9XpXyXpXpXpXpXpXtX8X&X{.oX5X2X.X.X.XXX-XpXpXpXpXpXpXpXpXpXpX",
"pXpXpXpXpXpXpXwXB.].oXOX`.x.k.m.z.N.].wXpXtX;X;XyXpXpXpXpXtX&X_.oXoXOX.Xc.N.-XpXpXpXpXpXpXpXpXpXpXpX",
"pXpXpXpXpXpXpX9XB.'.2X[.(.l.z.x.m.Z.].uXyX,Xv.v.,XeXpXpXpXpXqX&X`.N..XXX4X6XpXpXpXpXpXpXpXpXpXpXpXpX",
"pXpXpXpXpXpXpX9XB._.`.(.l.l.l.c.C.A.}.>X:XS.i.q.i.,XyXpXpXpXpXrX.XZ..XqXpXpXpXpXpXpXpXpXpXpX$.y t 8.",
"pXpXpXpXpXpXpXwXn.x.(.l.l.c.l.c.Z.Z.A.+XT.A.b.i.9.v.Q.+X>XpXpXpXyXtXrXpXpXpXpXpXpXpXpXpXpXo.f e y pX",
"pXpXpXpXpXpXpXrX*X).g.l.(.OX5.:.4.0.9.n.A.A.A.v.9.9.q.i.S.>XpXpXpXpXpXpXpXpXpXpXpXpXpXpX#.y e F #.pX",
"pXpXpXpXpXpXpXpXpX-XN.N.4XrX0.L W W ) s.V.j.].n.6.6.1.6.9.i.:XiXiXpXpXpXpXpXpXpXpXy.d d f y k ` pXpX",
"pXpXpXpXpXpXpXpXpXpX6X0XpXpXpXs.G V G ' <.:.d.c.9.4.4.&.{ U R O.+.T.pXpXpXpXpXO.$.T p q w p pXpXpXpX",
"pXpXpXpXpXpXpXpXpXpXpXpXpXpXpX}.L 7 v A A ! :.0.:.>.7.4.U i i z O.T.pXpXpXpXo.q e e e e F +.pXpXpXpX",
"pXpXpXpXpXpXpXpXpXpXpXpXpXpXpXT.9 , 4 n v C L ^ ^ [ &.&.Y 0 a Y ^.pXpX+.F F d w e d f f pXpXpXpXpXpX",
"pXpXpXpXpXpXpXpXpXpXpXR.E.E.K.=.9 3 $ $ $ & 4 4 5 7 P &.=. .%.-.#.y.#.k w e e p e o.pXpXpXpXpXpXpXpX",
"pXpXpXpXpXpXpXpXpXpX1Xe.%.....} i 1 ; O   X @ @ % < S #.G.K.P.D.l w p r p e F T T pXpXpXpXpXpXpXpXpX",
"pXpXpXpXpXpXpXpXpXpXpX-.X.X.X.| 2 ; + # # * , , b ^ @.i.J.W./.F.l r r e p f pXpXpXpXpXpXpXpXpXpXpXpX",
"pXpXpXpXpXpXpXpXpXpXpX;.%.X.X.| 2 < + $ * * b b , G ] w.b.!./.D.l r k O.3.pXpXpXpXpXpXpXpXpXpXpXpXpX",
"pXpXpXpXpXpXpXpXpXpXpXpX=.=.%.Y 1 & $ * * * * x X % 3 >.b.T.R.y.D w D |.pXpXpXpXpXpXpXpXpXpXpXpXpXpX",
"pXpXpXpXpXpXpXpXpXpXpXpXpXpXO.t - $ # # * * * = =   - >.0.] ] U S S D pXpXpXpXpXpXpXpXpXpXpXpXpXpXpX",
"pXpXpXpXpXpXpXpXpXpXpXpXpXpXpX. + + & & & @ X o o @ B [ [ S 8 n 8 m _ %XpXpXpXpXpXpXpXpXpXpXpXpXpXpX",
"pXpXpXpXpXpXpXpXpXpXpXpXpXpXpX; > $ & & & # @ o o b L ^ ! E Z v B n _ }.pXpXpXpXpXpXpXpXpXpXpXpXpXpX",
"pXpXpXpXpXpXpXpXpXpXpXpXpXpXpXpX3 3 & $ # > > O & C Q E Q Q H V V b A >._.pXpXpXpXpXpXpXpXpXpXpXpXpX",
"pXpXpXpXpXpXpXpXpXpXpXpXpXpXpXpXpXn + $ - + + > n Z E / / / J H V v v M >.pXpXpXpXpXpXpXpXpXpXpXpXpX",
"pXpXpXpXpXpXpXpXpXpXpXpXpXpXpXpXpXpX3 O - - - 5 > m Z S Q Q ( J H A v v 4.pXpXpXpXpXpXpXpXpXpXpXpXpX",
"pXpXpXpXpXpXpXpXpXpXpXpXpXpXpXpXpXpXpX5 ; ; 1 1 < 8 n Z H H ( H H V v v ^ v.pXpXpXpXpXpXpXpXpXpXpXpX",
"pXpXpXpXpXpXpXpXpXpXpXpXpXpXpXpXpXpXpX^ 9 h h 9 6 ; 7 S L ) ~ H V v C c n P pXpXpXpXpXpXpXpXpXpXpXpX",
"pXpXpXpXpXpXpXpXpXpXpXpXpXpXpXpXpXpXpXpXpXpXpXpX6 1 S q.pXpX:.M C v B m 8 S pXpXpXpXpXpXpXpXpXpXpXpX",
"pXpXpXpXpXpXpXpXpXpXpXpXpXpXpXpXpXpXpXpXpXpXpXpX@.h P pXpXpXj.[ <._ B m 6 s 2.pXpXpXpXpXpXpXpXpXpXpX",
"pXpXpXpXpXpXpXpXpXpXpXpXpXpXpXpXpXpXpXpXpXpXpXpXpX7.P pXpXpXpXpXpXpXD s 6 : s { pXpXpXpXpXpXpXpXpXpX",
"pXpXpXpXpXpXpXpXpXpXpXpXpXpXpXpXpXpXpXpXpXpXpXpXpXpXpXpXpXpXpXpXpXpXpXU g t t I pXpXpXpXpXpXpXpXpXpX",
"pXpXpXpXpXpXpXpXpXpXpXpXpXpXpXpXpXpXpXpXpXpXpXpXpXpXpXpXpXpXpXpXpXpXpXpXK i t I pXpXpXpXpXpXpXpXpXpX",
"pXpXpXpXpXpXpXpXpXpXpXpXpXpXpXpXpXpXpXpXpXpXpXpXpXpXpXpXpXpXpXpXpXpXpXpXpXI : u K pXpXpXpXpXpXpXpXpX",
"pXpXpXpXpXpXpXpXpXpXpXpXpXpXpXpXpXpXpXpXpXpXpXpXpXpXpXpXpXpXpXpXpXpXpXpX&.i t 2 1 pXpXpXpXpXpXpXpXpX",
"pXpXpXpXpXpXpXpXpXpXpXpXpXpXpXpXpXpXpXpXpXpXpXpXpXpXpXpXpXpXpXpXpXpXpXpXK h g g h pXpXpXpXpXpXpXpXpX",
"pXpXpXpXpXpXpXpXpXpXpXpXpXpXpXpXpXpXpXpXpXpXpXpXpXpXpXpXpXpXpXpXpXpXpXpXpXpXpXpXpXpXpXpXpXpXpXpXpXpX"
};
