/* XPM */
static char *result[] = {
/* columns rows colors chars-per-pixel */
"50 50 215 2 ",
"   c #09071E",
".  c #3B1D1D",
"X  c #2E1E1F",
"o  c #3D211E",
"O  c #0B0A23",
"+  c #130E25",
"@  c #121425",
"#  c #14142A",
"$  c #1A162C",
"%  c #15192C",
"&  c #1A1A2E",
"*  c #1C1A32",
"=  c #191C33",
"-  c #0F1022",
";  c #221B2C",
":  c #361E23",
">  c #211E35",
",  c #261D38",
"<  c #1E2134",
"1  c #3B2527",
"2  c #272538",
"3  c #382B39",
"4  c #35353F",
"5  c #521D18",
"6  c #47271A",
"7  c #491D2A",
"8  c #431A22",
"9  c #541F27",
"0  c #4D232C",
"q  c #472728",
"w  c #53202B",
"e  c #51282A",
"r  c #4A332E",
"t  c #562934",
"y  c #493536",
"u  c #593939",
"i  c #573130",
"p  c #544234",
"a  c #7B5339",
"s  c #6D523F",
"d  c #2E2C44",
"f  c #2A2A48",
"g  c #332E44",
"h  c #302744",
"j  c #29304D",
"k  c #383848",
"l  c #273254",
"z  c #3A3C54",
"x  c #363B57",
"c  c #323F61",
"v  c #443D48",
"b  c #5B3B44",
"n  c #593A45",
"m  c #413E58",
"M  c #643A44",
"N  c #3A4457",
"B  c #394767",
"V  c #5B4C4C",
"C  c #5A4347",
"Z  c #47485A",
"A  c #534B56",
"S  c #544653",
"D  c #5C5450",
"F  c #6A444C",
"G  c #744B55",
"H  c #75585A",
"J  c #6F4D4A",
"K  c #7B604D",
"L  c #434A64",
"P  c #474B66",
"I  c #4C5366",
"U  c #555669",
"Y  c #575D72",
"T  c #4A506A",
"R  c #7E5A61",
"E  c #796766",
"W  c #686677",
"Q  c #756C78",
"!  c #73717E",
"~  c #885648",
"^  c #866D59",
"/  c #936F57",
"(  c #B9724E",
")  c #A26C5E",
"_  c #AD7555",
"`  c #B37453",
"'  c #B87B5E",
"]  c #806A6D",
"[  c #836366",
"{  c #88786E",
"}  c #8A797B",
"|  c #987977",
" . c #9A6F66",
".. c #A87768",
"X. c #8C817B",
"o. c #948173",
"O. c #B8886B",
"+. c #A98672",
"@. c #B88B74",
"#. c #BA9079",
"$. c #A8937E",
"%. c #CC9E7C",
"&. c #7B7C8D",
"*. c #747989",
"=. c #6F7389",
"-. c #977D82",
";. c #A27982",
":. c #7A8497",
">. c #82838B",
",. c #898586",
"<. c #9B8789",
"1. c #898798",
"2. c #8E9199",
"3. c #9A9C9E",
"4. c #97989D",
"5. c #919091",
"6. c #AA968C",
"7. c #B29587",
"8. c #AC989A",
"9. c #B59C98",
"0. c #AC8590",
"q. c #BAA49A",
"w. c #848DA3",
"e. c #9496A4",
"r. c #9D9DA4",
"t. c #9A9DAB",
"y. c #9A96AA",
"u. c #949CB3",
"i. c #9A9EB6",
"p. c #8E99AF",
"a. c #A69EA3",
"s. c #B69EA3",
"d. c #96A2AE",
"f. c #9CA1AE",
"g. c #97A5AB",
"h. c #9BA2B5",
"j. c #9DACB4",
"k. c #9AA5BC",
"l. c #9DA9BC",
"z. c #ACA3A2",
"x. c #A8A8AA",
"c. c #B4A8A5",
"v. c #B2B3AF",
"b. c #A3ABB5",
"n. c #ADACB3",
"m. c #A1A5BE",
"M. c #A3ACBB",
"N. c #A9A9B8",
"B. c #B3ADB5",
"V. c #ACB3BC",
"C. c #AAB0B6",
"Z. c #B4B3B4",
"A. c #BCBABE",
"S. c #B3B9BC",
"D. c #ACB0AF",
"F. c #C79D89",
"G. c #C8A48B",
"H. c #C5AA9C",
"J. c #CBAA94",
"K. c #D4AE98",
"L. c #D9B299",
"P. c #D2A88F",
"I. c #E9B79E",
"U. c #C9B4A7",
"Y. c #DABAA2",
"T. c #D4B9A8",
"R. c #C7BBB9",
"E. c #CEB3B3",
"W. c #E3BBA1",
"Q. c #DBC5B4",
"!. c #F5C2AD",
"~. c #E8C6B4",
"^. c #ECC9AF",
"/. c #9DA8C3",
"(. c #A4ACC7",
"). c #ABB4C4",
"_. c #ABBAC3",
"`. c #A9BAC6",
"'. c #B2BBC4",
"]. c #BCBFC4",
"[. c #B5BDCA",
"{. c #BAB9C6",
"}. c #ACBDD5",
"|. c #A6B7D1",
" X c #B9BDD2",
".X c #C3BFC7",
"XX c #BBC5CB",
"oX c #BCC3D3",
"OX c #BBCBD5",
"+X c #BBCBD8",
"@X c #B8C3D5",
"#X c #BCCEE4",
"$X c #C2C5CE",
"%X c #CDCCCD",
"&X c #C8C2C6",
"*X c #D2CCC9",
"=X c #C2CAD5",
"-X c #C5CCDB",
";X c #CACEDC",
":X c #C4C7D6",
">X c #D4CFD3",
",X c #CCD2DD",
"<X c #C2D1DE",
"1X c #D3D5DC",
"2X c #D7D7D9",
"3X c #D2D1CF",
"4X c #E2D2CE",
"5X c #F0E3DD",
"6X c #CACEE1",
"7X c #CAD2E1",
"8X c #D7D7E5",
"9X c #DEE6F3",
"0X c #DCE3EE",
"qX c #ECE6E9",
"wX c None",
/* pixels */
"wXwXwXwXwXwXwXwXwXwXwXwXwXwXwXwXwXwXwXwXwXwXwXwXwXwXwXwXwXwXwXwXwXwXwXwXwXwXwXwXwXwXwXwXwXwXwXwXwXwX",
"wXwXwXwXwXwXwXwXwXwXwXwXwXwXwXwXwXwXwXwXwXwXwXwXwXwXwXwXwXwXwXwXwXwXwXwXwXwXwXwXwXwXwXwXwXwXwXwXwXwX",
"wXwXwXwXwXwXwXwXwXwXwXwXwXwXwXwXwXwXwXwXwXwXwXwXwXwXwXwXwXwXwXwXwXwXwXwXwXwXwXwXwXwXwXwXwXwXwXwXwXwX",
"wXwXwXwXwXwXwXwXwXwXwXwXwXwXwXwXwXwXwXwXwXwXwXwXwXwXwXwXwXwXwXwXwXwXwXwXwXwXwXwXwXwXwXwXwXwXwXwXwXwX",
"wXwXwXwXwXwXwXwXwXwXwXwXwXwXwXwXwXwXwXwXwXwXwXwXwXwXwXwXwXwXwXwXwXwXwXwXwXwXwXwXwXwXwXwXwXwXwXwXwXwX",
"wXwXwXwXwXwXwXwXwXwXwXwXwXwXwXwXwXwXwXwXwXwXwXwXwXwXwXwXwXwXwXwXwXwXwXwXwXwXwXwXwXwXwXwXwXwXwXwXwXwX",
"wXwXwXwXwXwXwXwXwXwXwXwXwXwXwXwXwXwXwXwXwXwXwXwXwXwXwXwXwXwXwXwXwXwXwXwXwXwXwXwXwXwXwXwXwXwXwXwXwXwX",
"wXwXwXwXwXwXwXwXwXwXwXwXwXwXwXwXwXwXwXwXwXwXwXwXwXwXwXwXwXwXwX].+X7X;Xx.a.wXwXwXwXwXwXwXwXwXwXwXwXwX",
"wXwXwXwXwXwXwXwXwXwXwXwXwXwXwXwXwXwXwXwXwXwXwXwXwXwXwXwXwXwXwXV.}.}.w.I N :.f.C.&X;X,XwXwXwXwXwXwXwX",
"wXwXwXwXwXwXwXwXwXwXwXwXwXwXwXwXwXwXwXwXwXwXwXwXwXwXwXwXwXwXwXwX@X:.N U =.d.N.&X%X>X*X>X2XwXwXwXwXwX",
"wXwXwXwXwXwXwXwXwXwXwXwXwXwXwXwXwXwXwXwXwXwXwXwXwXwXwXwXwXwXwXwX8Xe.A =.p.t.n.R.T.T.T.Q.4X5XwXwXwXwX",
"wXwXwXwXwXwXwXwXwXwXwXwXwXwXwXwXwXwXwXwXwXwXwXwXwXwXwXwXwXwXwXwXwX1Xe.t.x.a.c.q.H.K.P.P.T.5XwXwXwXwX",
"wXwXwXwXwXwXwXwXwXwXwXwXwXwXwXwXwXwXwXwXwXwXwXwXwXwXwXwX9X0X9X9XwX6Xl.u.3.3.z.q.E.T.Y.H.c.2XwXwXwXwX",
"wXwXwXwXwXwXwXwXwXwXwXwXwXwXwXwXwXwXwXwXwXwXwXwXwXwX1X;X:XoXoXOX:X).l.d.c.q.6.o.6.H.~.q.5.wXwXwXwXwX",
"wXwXwXwXwXwXwXwXwXwXwXwXwXb.b.V.V.wXwXwXwXwXwX1X1X;X;X;X+X).l.h.b.f.g.z.J.%./ 6 o K G.E D wXwXwXwXwX",
"wXwXwXwXwXwXwXwXwXwXwXwXwXb.M.).V.-XwXwXwXwX8X;X,X$X[.'.).l.j.M.d.r.g.z.q.%.O.a a / Y.$.E wXwXwXwXwX",
"wXwXwXwXwXwXwXwXwXwXwXwXwXM.'.-X-X;X7X7X;X6X6X-X-X X).N.M.S.'.'.(.u.m.a.6.G.F.%.%.L.^.L.U.wXwXwXwXwX",
"wXwXwXwXwXwXwXwXwXwXwXwXwXb.'.7X-X;X-X;X6X;X XN.N. XwXwXwXwXwXwX[.l.t.r.x.R.U.G.L.L.Q.Q.*XwXwXwXwXwX",
"wXwXwXwXwXwXwXwXwXwXwXwXwX=X[.[.+X7X-XoX@XOXXXXX[.wXwXwXwXwXwXwXwX=Xx.g.x.V.A.R.&X&XXX].=XwXwXwXwXwX",
"wXwXwXwXwXwXwXwXwXwXwXwXwXwX,XM.@X+X+X_.g.j.OXwXwXwXwXwXwXwXwXwXwXwXS.b.g.d.).oXl.l.l.j.M.=XwXwXwXwX",
"wXwXwXwXwXwXwXwXwXwXwXwXwXwXwX1XXXM._.OXwXwXwXwXwXwXwXwXwXwXwXwXwXwXwXXXb.y.(.(.k.(.|.}.[._.wXwXwXwX",
"wXwXwXwXwXwXwXwXwXwXwXwXwXwXwXwXOX_.'.wXwXwXwXwXwXwXwXwXwXwXwXZ.wXwXwXwXV.N.m.i.k.(.|.#X+Xj.XXwXwXwX",
"wXwXwXwXwXwXwXwXwXwXwXwXwXwXwXwXwXwXwXwXwXwXwXwXwXwXwXwXwX>XB.4.Z.>XwXwXB.B.n.y.y.i.(.@X+Xj.XXwXwXwX",
"wXwXwXwXwXwXwXwXwXwXwXwXwXwXwXwXwXwXwXwXwXwXwXwXwXwXwXwX*Xx.3.3.D..X2X%XB.B.r.:.p.i.u.m.`.d._.wXwXwX",
"wXwXwXwXwXwXwXwXwXwXwXwXwXwXwXwXwXwXwXwXwXwXwXwXwXwXwX%XD.5.4.D.Z.Z.Z.{.n.b.:.I w./.u./.k.p.M.).wXwX",
"wXwXwXwXwX,.] ] E wXwXwXwXwXwXwXwXwXwXwXwXwXwXwXwXwX3Xc.5.,.3.v.c.B.Z.Z.f.:.Y N /.wXk.u.i.i. XwXwXwX",
"wXwXwXwXwXC 0 0 0 R wXwXwXwXwXwXwXwXwXwXwXwXwXwXR.v.x.5.,.>.3.C.{.n.e.e.&.L I :.wXwXwX.X X XwXwXwXwX",
"wXwXwXwXwXG t e 0 t M b ] wXwXwXwXwXwXwXwXwXc.D y D X.,.,.>.4.b.).1.Y U I z :.wXwXwXwXwXwXwXwXwXwXwX",
"wXwXwXwXwXwXwX0.M 0 0 t b | -.s.wXwXwXwXwXwX9.i 6 p E X.X.>.:.:.&.=.z x m 2 A | q.K.L.Y.T.wXwXwXwXwX",
"wXwXwXwXwXwXwXwX;.F F t 0 7 8 M wXwXwXwXwXwX7.J p s o.{ E W U k z z h , h ; 1 q a ' ` _ #.wXwXwXwXwX",
"wXwXwXwXwXwXwXwXwXwXwX[ 0 9 w t M G G G J ~ ..F.%.#.7.J X ; ; < @ @ # > , , 1 6 ~ ( ( ( O.wXwXwXwXwX",
"wXwXwXwXwXwXwXwXwXwXwXwX-.;.G 0 0 7 7 9 5 5 ) !.W.P.G.^ V A g   - + + $ g Q ,. ..._ _ ' @.wXwXwXwXwX",
"wXwXwXwXwXwXwXwXwXwXwXwXwXwXa.b n n b t 9 5 ) !.!.^.K.6.<.2.U & $ ; $ $ Z B.wXwXH.+.+.+.9.wXwXwXwXwX",
"wXwXwXwXwXwXwXwXwXwXwXwXwXwXwXwXwXwXE.R e 8  .W.~.~.T.c.,.S 2 # O + $ $ 2 U n.wXwXwXwXwXwXwXwXwXwXwX",
"wXwXwXwXwXwXwXwXwXwXwXwXwXwXwXwXwXwXwXs.H i H 9.9.6.9.z.>.>       O * 2 % ; &.wXwXwXwXwXwXwXwXwXwXwX",
"wXwXwXwXwXwXwXwXwXwXwXwXwXwXwXwXwXwXwXwXwXA 3 S v v A *.&.2 O O O + = @ % & >.wXwXwXwXwXwXwXwXwXwXwX",
"wXwXwXwXwXwXwXwXwXwXwXwXwXwXwXwXwXwXwXwXwXU g f g x L Y =.x = $ # + % < < @ *.wXwXwXwXwXwXwXwXwXwXwX",
"wXwXwXwXwXwXwXwXwXwXwXwXwXwXwXwXwXwXwXwXwXT l j l x B B T z h > $ $ = % < N 2.wXwXwXwXwXwXwXwXwXwXwX",
"wXwXwXwXwXwXwXwXwXwXwXwXwXwXwXwXwXwXwXwXwXP j l B B B T B z d * # 2 * @ N wXwXwXwXwXwXwXwXwXwXwXwXwX",
"wXwXwXwXwXwXwXwXwXwXwXwXwXwXwXwXwXwXwXwXwXU j l c B B B x 2 2 > > @ < A 1.wXwXwXwXwXwXwXwXwXwXwXwXwX",
"wXwXwXwXwXwXwXwXwXwXwXwXwXwXwXwXwXwXwXwXwXZ h g f N Z N Z v 4 k 3 4 v wXwXwXwXwXwXwXwXwXwXwXwXwXwXwX",
"wXwXwXwXwXwXwXwXwXwXwXwXwXwXwXwXwXwXwXwXwXS 3 h g g k :.wXwXwXwXwXwXwXwXwXwXwXwXwXwXwXwXwXwXwXwXwXwX",
"wXwXwXwXwXwXwXwXwXwXwXwXwXwXwXwXwXwXwXwX8.n 1 3 3 S Q wXwXwXwXwXwXwXwXwXwXwXwXwXwXwXwXwXwXwXwXwXwXwX",
"wXwXwXwXwXwXwXwXwXwXwXwXwXwXwXwXwXwXwX<.y : q y y } wXwXwXwXwXwXwXwXwXwXwXwXwXwXwXwXwXwXwXwXwXwXwXwX",
"wXwXwXwXwXwXwXwXwXwXwXwXwXwXwXwXwXwXwX} o q i C } wXwXwXwXwXwXwXwXwXwXwXwXwXwXwXwXwXwXwXwXwXwXwXwXwX",
"wXwXwXwXwXwXwXwXwXwXwXwXwXwXwXwXwXwXwXE q r u E wXwXwXwXwXwXwXwXwXwXwXwXwXwXwXwXwXwXwXwXwXwXwXwXwXwX",
"wXwXwXwXwXwXwXwXwXwXwXwXwXwXwXwXwXwXE r . i | wXwXwXwXwXwXwXwXwXwXwXwXwXwXwXwXwXwXwXwXwXwXwXwXwXwXwX",
"wXwXwXwXwXwXwXwXwXwXwXwXwXwXwXwXwXwX3 1 o o [ wXwXwXwXwXwXwXwXwXwXwXwXwXwXwXwXwXwXwXwXwXwXwXwXwXwXwX",
"wXwXwXwXwXwXwXwXwXwXwXwXwXwXwXwXwXwXV y y y C E wXwXwXwXwXwXwXwXwXwXwXwXwXwXwXwXwXwXwXwXwXwXwXwXwXwX",
"wXwXwXwXwXwXwXwXwXwXwXwXwXwXwXwXwXwXwXwXwXwXwXwXwXwXwXwXwXwXwXwXwXwXwXwXwXwXwXwXwXwXwXwXwXwXwXwXwXwX"
};
