/* XPM */
static char *result[] = {
/* columns rows colors chars-per-pixel */
"50 50 219 2 ",
"   c #06091A",
".  c #0F131F",
"X  c #381D1C",
"o  c #0A0C23",
"O  c #0A0D2A",
"+  c #14152B",
"@  c #1A172B",
"#  c #16192B",
"$  c #171528",
"%  c #161630",
"&  c #1B1B33",
"*  c #1C1D3A",
"=  c #161831",
"-  c #271D2E",
";  c #361F22",
":  c #211D35",
">  c #1D2137",
",  c #292327",
"<  c #322223",
"1  c #392728",
"2  c #28273A",
"3  c #372835",
"4  c #3B323D",
"5  c #2E303C",
"6  c #431F1F",
"7  c #572E12",
"8  c #4C1C25",
"9  c #481B25",
"0  c #561F24",
"q  c #4B222B",
"w  c #462828",
"e  c #52232D",
"r  c #522729",
"t  c #583726",
"y  c #4E2932",
"u  c #582B35",
"i  c #493738",
"p  c #593239",
"a  c #563738",
"s  c #68332D",
"d  c #623635",
"f  c #5F493E",
"g  c #66432D",
"h  c #1E2340",
"j  c #2A2B4B",
"k  c #2B2B45",
"l  c #322E44",
"z  c #333144",
"x  c #383749",
"c  c #2D3353",
"v  c #2B325B",
"b  c #353856",
"n  c #2C324C",
"m  c #383F6B",
"M  c #453344",
"N  c #4C3949",
"B  c #603B43",
"V  c #3D4357",
"C  c #3C4267",
"Z  c #5B4746",
"A  c #46485A",
"S  c #534550",
"D  c #684447",
"F  c #775948",
"G  c #724A53",
"H  c #665556",
"J  c #77555C",
"K  c #66514D",
"L  c #73695F",
"P  c #414563",
"I  c #4A4D63",
"U  c #434865",
"Y  c #4D5467",
"T  c #4E5568",
"R  c #56576C",
"E  c #454B74",
"W  c #595972",
"Q  c #7A5961",
"!  c #5F6979",
"~  c #726565",
"^  c #626375",
"/  c #76727A",
"(  c #70666E",
")  c #855736",
"_  c #865E4D",
"`  c #9F6750",
"'  c #AD7656",
"]  c #B57553",
"[  c #A86D4E",
"{  c #886868",
"}  c #966D77",
"|  c #85797A",
" . c #997579",
".. c #937568",
"X. c #A67A66",
"o. c #A67B75",
"O. c #98837A",
"+. c #8E837F",
"@. c #A4816E",
"#. c #B68366",
"$. c #AA8775",
"%. c #B68675",
"&. c #BF9378",
"*. c #C59474",
"=. c #696F85",
"-. c #767B89",
";. c #757D92",
":. c #887989",
">. c #7C8599",
",. c #888785",
"<. c #958A85",
"1. c #858994",
"2. c #898A99",
"3. c #8A919D",
"4. c #989697",
"5. c #8B908C",
"6. c #A99788",
"7. c #B79988",
"8. c #B5968B",
"9. c #B7A49B",
"0. c #B7A08E",
"q. c #8D97A5",
"w. c #9E9DA4",
"e. c #969DAC",
"r. c #9A9EAE",
"t. c #9796AA",
"y. c #939DB1",
"u. c #8F94AA",
"i. c #A69EA7",
"p. c #9BA3AC",
"a. c #9FA8A5",
"s. c #95A1B5",
"d. c #9CA4B3",
"f. c #94A2B9",
"g. c #9AA5BB",
"h. c #ACAAAD",
"j. c #A5A6A6",
"k. c #B5A3A3",
"l. c #BAACAC",
"z. c #A3A6B3",
"x. c #A4ABB4",
"c. c #A4ACBA",
"v. c #AAADBB",
"b. c #ABAEB4",
"n. c #B2ADB6",
"m. c #ADB3B2",
"M. c #A9B2BD",
"N. c #A8B3BC",
"B. c #B3B4BB",
"V. c #BBBBBB",
"C. c #B1B7B6",
"Z. c #AFB1AE",
"A. c #C99984",
"S. c #C9A38A",
"D. c #D5A78C",
"F. c #C9AB9B",
"G. c #D4AD98",
"H. c #D5B198",
"J. c #CDB09E",
"K. c #CAB2A4",
"L. c #CDBAAD",
"P. c #C4B2AB",
"I. c #D4B6A6",
"U. c #D6BAAA",
"Y. c #C6B7B8",
"T. c #ECBCA5",
"R. c #EBC49B",
"E. c #DDC2AA",
"W. c #D2C0AF",
"Q. c #DBC2B5",
"!. c #DCC6BB",
"~. c #CEC4BF",
"^. c #EDCAA6",
"/. c #E6C5B8",
"(. c #F4C8A5",
"). c #99A9C1",
"_. c #9FB1C9",
"`. c #ACB3C2",
"'. c #ADB6C9",
"]. c #A8B7C6",
"[. c #B3BAC3",
"{. c #BABAC2",
"}. c #B1B9CB",
"|. c #BBBFCB",
" X c #A9B9D3",
".X c #B3BCD0",
"XX c #B5C2CE",
"oX c #BDC3CD",
"OX c #BDC6D5",
"+X c #B9CAE4",
"@X c #C2C5CD",
"#X c #C9C7C9",
"$X c #D6CAC8",
"%X c #C2C6D4",
"&X c #C4CBD6",
"*X c #CCCDD3",
"=X c #C4CCDB",
"-X c #C9CFDC",
";X c #CBD2DC",
":X c #C6D0DC",
">X c #DCDBDA",
",X c #D5D7D9",
"<X c #E2D1C6",
"1X c #EBDCD5",
"2X c #CAD3E2",
"3X c #CAD7E3",
"4X c #D3DCE4",
"5X c #DADCE5",
"6X c #D3D7E0",
"7X c #C3CEE2",
"8X c #DBE1E8",
"9X c #E2E5EE",
"0X c #E7E8E7",
"qX c #E4EAF3",
"wX c #EBEDF3",
"eX c #E5ECF8",
"rX c #EBF3F9",
"tX c #F5F4F7",
"yX c None",
/* pixels */
"yXyXyXyXyXyXyXyXyXyXyXyXyXyXyXyXyXyXyXyXyXyXyXyXyXyXyXyXyXyXyXyXyXyXyXyXyXyXyXyXyXyXyXyXyXyXyXyXyXyX",
"yXyXyXyXyXyXyXyXyXyXyXyXyXyXyXyXyXyXyXyXyXyXyXyXyXyXyXyXyXyXyXyXyXyXyXyXyXyXyXyXyXyXyXyXyXyXyXyXyXyX",
"yXyXyXyXyXyXyXyXyXyXyXyXyXyXyXyXyXyXyXyXyXyXyXyXyXyXyXyXyXyXyXyXyXyXyXyXyXyXyXyXyXyXyXyXyXyXyXyXyXyX",
"yXyXyXyXyXyXyXyXyXyXyXyXyXyXyXyXyXyXyXyXyXyXyXyXyXyXyXyXyXyXyXyXyXyXyXyXyXyXyXyXyXyXyXyXyXyXyXyXyXyX",
"yXyXyXyXyXyXyXyXyXyXyXyXyXyXyXyXyXyXyXyXyXyXyXyXyXyXyXyXyXyXyXyXyXyXyXyXyXyXyXyXyXyXyXyXyXyXyXyXyXyX",
"yXyXyXyXyXyXyXyXyXyXyXyXyXyXyXyXyXyXyXyXyXyXyXyXyXyXyXyXyXyXyXyXyXyXyXyXyXyXyXyXyXyXyXyXyXyXyXyXyXyX",
"yXyXyXyXyXyXyXyXyXyXyXyXyXyXyXyXyXyXtX8X>X0XyXyXyXyXyXyXyXyXyXyXyXyXyXyXyXyXyXyXyXyXyXyXyXyXyXyXyXyX",
"yXyXyXyXyXyXyXyXyXtXrXrXeX9X5X;XoX6X5X-X@X,XyXyXyXyXyXyXyXyXyXyXyXyXyXyXyXyXyXyXyXyXyXyXyXyXyXyXyXyX",
"yXyXyXyXyXyXyXyXtX1X,X*X{.`.e.! A 3.`.%X[.{.yXyXyXyXyXyXyXyXyXyXyXyXyXyXyXyXyXyXyXyXyXyXyXyXyXyXyXyX",
"yXyXyXyXyXyXyXyX1X<X$X#X{.v.y.;.Y I -.`.&X5XyXyXyXyXyXyXyXyXyXyXyXyXyXyXyXyXyXyXyXyXyXyXyXyXyXyXyXyX",
"yXyXyXyXyXyXyXyX!.U./.!.#X{.f.y.>.b R `.9XyXyXyXyXyXyXyXyXyXyXyXyXyXyXyXyXyXyXyXyXyXyXyXyXyXyXyXyXyX",
"yXyXyXyXyXyXyXyXK.J.F.F.P.n.d.s.r.;.`.eXyXyXyXyXyXyXyXyXyXyXyXyXyXyXyXyXyXyXyXyXyXyXyXyXyXyXyXyXyXyX",
"yXyXyXyXyXyXyX~.9.J.H.J.F.9.j.w.r.e.|.yXyXyXqXqXqXqXyXyXyXyXyXyXyXyXyXyXyXyXyXyXyXyXyXyXyXyXyXyXyXyX",
"yXyXyXyXyXyX>Xj.6.Q.E.H.7.6.F.9.i.d.`.=X2X=X=X2X-X;X9XyXyXyXyXyXyXyXyXyXyXyXyXyXyXyXyXyXyXyXyXyXyXyX",
"yXyXyXyXyXyXyX<.~ K.$.f g _ &.7.j.p.d.v.N.N.`.|.-X&X-X4X4XqXyXyXyXyXyXyXyXyXyXyXyXyXyXyXyXyXyXyXyXyX",
"yXyXyXyXyXyXyX<.K W.O.g 7 ) *.S.h.e.p.p.p.d.c.M.OXXX=X2X=X4XrXyXyXyX4XN.N.x.p.yXyXyXyXyXyXyXyXyXyXyX",
"yXyXyXyXyXyXyXU.0.E.H.*.] *.D.0.i.y.e.p.m.m.C.a.c.c.'.OX7X7X3X3X7X4X7XOX=XXXd.yXyXyXyXyXyXyXyXyXyXyX",
"yXyXyXyXyXyXyX<XL.!.T.H.G.G.I.k.r.y.c.x.@X,X>X,X:X:X=X.X'..XOX7X3X7X7X-X=XoXa.*XyXyXyXyXyXyXyXyXyXyX",
"yXyXyXyXyXyXtX>X#X#X$XY.L.P.Y.B.r.d.`.oXyXyXyXyXyXyX8X`.c.{.OX7X%X%X2X:X&XXXC.4XyXyXyXyXyXyXyXyXyXyX",
"yXyXyXyXyXrX5X@X`.g.c.n.{.|.M.d.p.c.%X9XyXyXyXyXyXyXyXwXqX;X`.z.v.&X-X&X[.].4XyXyXyXyXyXyXyXyXyXyXyX",
"yXyXyXyXyX9X|.`.]._.).).].'.s.d.c.*X0XyXyXyXyXyXyXyXyXyXyXwX*X%X|.@X`.`.oX;XyXyXyXyXyXyXyXyXyXyXyXyX",
"yXyXyXyXyX8X'.'.+X+X Xy.s.s.s.M.XXwXyXwX*X#XtXyXyXyXyXyXyXyXyXyXwXoXv.B.8XyXyXyXyXyXyXyXyXyXyXyXyXyX",
"yXyXyXyXyX5Xv..X+X_.).).s.z.x.m.~.yX0X*Xh.x.*X0XyXyXyXyXyXyXyXyXyX8X5X5XyXyXyXyXyXyXyXyXyXyXyXyXyXyX",
"yXyXyXyXtX-Xr. X X).f.y.3.q.b.C.V.>X,XZ.w.4.j.#XyXyXyXyXyXyXyXyXyXyXyXyXyXyXyXyXyXyXyXyXyXyXyXyXyXyX",
"yXyXyXrXOXg.s.f.).f.f.u.! -.a.m.V.V.C.Z.C.a.5.a.*XyXyXyXyXyXyXyXyXyXyXyXyXyXyXyXyXyXyXyXyXyXyXyXyXyX",
"yXyXyXyX8XXXd.s.y.y.}..X=.Y >.q.C.V.C.Z.C.a.5.+.j.*XyXyXyXyXyXyXyXyXyXyXyXyXyXyXyXyXyXyXyXyXyXyXyXyX",
"yXyXyXyXyX8X].N.x.n.yXyX>.V I >.a.x.Z.m.C.a.,.,.<.h.#X,XyXyXyXyXyXyXyXyXyXyXyXyXyXyXyXa q y y yXyXyX",
"yXyXyXyXyXyXyXyXyXyXyXyXyXq.I Y ^ ^ >.m.C.a.>.,.,.<.| Q ~ 4.yXyXyXyXyXyXyXyXyXyX{ Q G q q w w yXyXyX",
"yXyXyXyXyXyXyXyX/././.!.Y.2.M l A A ! 1.3.>.+.+.+.+.H 6 w { yXyXyXyXyXyXyXyXyX{ 8 9 e u Q yXyXyXyXyX",
"yXyXyXyXyXyXyXI.#.#.*.X.D 3 - k 5 k b A Y R / | | $.F w t { yXyXyXyXyXyX .u B e e p u B yXyXyXyXyXyX",
"yXyXyXyXyXyXyXH.' [ ] ` p ; 3 - * * * > > k 4 4 f @.@.' o.%.o. .} } }  .G 9 e e u yXyXyXyXyXyXyXyXyX",
"yXyXyXyXyXyXyXJ.' ] ] ` _ G H M & O O O . . 5 3 g $.D.H.T.A.s r 8 u e 9 q u G J yXyXyXyXyXyXyXyXyXyX",
"yXyXyXyXyXyXyXK.X.X.X.%.L.yXyX/ & + + # + x :.:.<.7.H.R.(.A.s 0 e 8 q y w J yXyXyXyXyXyXyXyXyXyXyXyX",
"yXyXyXyXyXyXyXyXyXyXI.Q.yXyX4.A * % # . o 2 R :.k.L.E.^.T.A.s 0 u  .yXyXyXyXyXyXyXyXyXyXyXyXyXyXyXyX",
"yXyXyXyXyXyXyXyXyXyXyXyXyXyXx # & % +       + W j.l.K.W.I.8.u B Q yXyXyXyXyXyXyXyXyXyXyXyXyXyXyXyXyX",
"yXyXyXyXyXyXyXyXyXyXyXyXyXyXx & = & @   .   O W u./ H K H S M :.yXyXyXyXyXyXyXyXyXyXyXyXyXyXyXyXyXyX",
"yXyXyXyXyXyXyXyXyXyXyXyXyXyXn # + & + o o + > R =.A z l z z x i.yXyXyXyXyXyXyXyXyXyXyXyXyXyXyXyXyXyX",
"yXyXyXyXyXyXyXyXyXyXyXyXyXyXA > & & & & = 2 b U W P b c j j c yXyXyXyXyXyXyXyXyXyXyXyXyXyXyXyXyXyXyX",
"yXyXyXyXyXyXyXyXyXyXyXyXyXyXyXyX@ $ + @ & 2 b V U U E m v v c yXyXyXyXyXyXyXyXyXyXyXyXyXyXyXyXyXyXyX",
"yXyXyXyXyXyXyXyXyXyXyXyXyXyXyXyXA 2 : @ & & 5 x P P E m v c n yXyXyXyXyXyXyXyXyXyXyXyXyXyXyXyXyXyXyX",
"yXyXyXyXyXyXyXyXyXyXyXyXyXyXyXyXyXyX@ @ - 2 , z x b U v c n z yXyXyXyXyXyXyXyXyXyXyXyXyXyXyXyXyXyXyX",
"yXyXyXyXyXyXyXyXyXyXyXyXyXyXyXyXyXyXyXyXyXyXyXyX2.I b j j k 4 yXyXyXyXyXyXyXyXyXyXyXyXyXyXyXyXyXyXyX",
"yXyXyXyXyXyXyXyXyXyXyXyXyXyXyXyXyXyXyXyXyXyXyXyXyX-.A l x 3 < +.yXyXyXyXyXyXyXyXyXyXyXyXyXyXyXyXyXyX",
"yXyXyXyXyXyXyXyXyXyXyXyXyXyXyXyXyXyXyXyXyXyXyXyXyXyXyXN z w 1 f | yXyXyXyXyXyXyXyXyXyXyXyXyXyXyXyXyX",
"yXyXyXyXyXyXyXyXyXyXyXyXyXyXyXyXyXyXyXyXyXyXyXyXyXyXyX| S i w X i yXyXyXyXyXyXyXyXyXyXyXyXyXyXyXyXyX",
"yXyXyXyXyXyXyXyXyXyXyXyXyXyXyXyXyXyXyXyXyXyXyXyXyXyXyXyX+.a r r Z yXyXyXyXyXyXyXyXyXyXyXyXyXyXyXyXyX",
"yXyXyXyXyXyXyXyXyXyXyXyXyXyXyXyXyXyXyXyXyXyXyXyXyXyXyXyXyXyXD 6 w ~ yXyXyXyXyXyXyXyXyXyXyXyXyXyXyXyX",
"yXyXyXyXyXyXyXyXyXyXyXyXyXyXyXyXyXyXyXyXyXyXyXyXyXyXyXyXyXyXd w < < yXyXyXyXyXyXyXyXyXyXyXyXyXyXyXyX",
"yXyXyXyXyXyXyXyXyXyXyXyXyXyXyXyXyXyXyXyXyXyXyXyXyXyXyXyXyXZ w ; < < yXyXyXyXyXyXyXyXyXyXyXyXyXyXyXyX",
"yXyXyXyXyXyXyXyXyXyXyXyXyXyXyXyXyXyXyXyXyXyXyXyXyXyXyXyXyXyXyXyXyXyXyXyXyXyXyXyXyXyXyXyXyXyXyXyXyXyX"
};
