/* XPM */
static char *result[] = {
/* columns rows colors chars-per-pixel */
"50 50 213 2 ",
"   c #0B061A",
".  c #130D19",
"X  c #351E1D",
"o  c #0E0D26",
"O  c #191626",
"+  c #1D1926",
"@  c #14142D",
"#  c #1B172B",
"$  c #1C192D",
"%  c #141629",
"&  c #141531",
"*  c #191532",
"=  c #161A35",
"-  c #1B1C32",
";  c #161B38",
":  c #1B1D3B",
">  c #11122D",
",  c #221C2D",
"<  c #2B1C2C",
"1  c #241429",
"2  c #211C32",
"3  c #211E3B",
"4  c #301F32",
"5  c #1F2238",
"6  c #2C222F",
"7  c #342223",
"8  c #3B262A",
"9  c #232234",
"0  c #22233C",
"q  c #2B2B39",
"w  c #352935",
"e  c #36323D",
"r  c #3A3039",
"t  c #452E19",
"y  c #471D20",
"u  c #422324",
"i  c #462829",
"p  c #55292B",
"a  c #462C33",
"s  c #572A36",
"d  c #4B3438",
"f  c #583539",
"g  c #62342C",
"h  c #653D35",
"j  c #192542",
"k  c #262642",
"l  c #242B43",
"z  c #2A2D44",
"x  c #2C2D4A",
"c  c #242F4B",
"v  c #392B42",
"b  c #2C334B",
"n  c #29324B",
"m  c #33364C",
"M  c #373040",
"N  c #2B3251",
"B  c #2D3C5D",
"V  c #2A3958",
"C  c #353953",
"Z  c #3C3B52",
"A  c #363856",
"S  c #382E50",
"D  c #2D3F63",
"F  c #4C3E44",
"G  c #433B4D",
"H  c #5B3A44",
"J  c #6B3F4C",
"K  c #3D425B",
"L  c #37425E",
"P  c #2F456B",
"I  c #3C496C",
"U  c #374365",
"Y  c #3C4C77",
"T  c #594544",
"R  c #444252",
"E  c #42495C",
"W  c #48465C",
"Q  c #524A59",
"!  c #55535B",
"~  c #5C5558",
"^  c #504A48",
"/  c #64494B",
"(  c #664D52",
")  c #655454",
"_  c #6A5452",
"`  c #685A5B",
"'  c #7D5756",
"]  c #77685B",
"[  c #464C62",
"{  c #464D6B",
"}  c #454568",
"|  c #52556B",
" . c #54596C",
".. c #434972",
"X. c #4E556F",
"o. c #6E5B66",
"O. c #5B657A",
"+. c #7B6669",
"@. c #6D6D7B",
"#. c #736D79",
"$. c #6F717D",
"%. c #79757C",
"&. c #99704B",
"*. c #876A68",
"=. c #937567",
"-. c #837678",
";. c #967677",
":. c #8F6B75",
">. c #B47F6D",
",. c #9C847D",
"<. c #96816D",
"1. c #B29076",
"2. c #C28975",
"3. c #696D84",
"4. c #6D7388",
"5. c #747482",
"6. c #877C85",
"7. c #957A80",
"8. c #7B8395",
"9. c #88868B",
"0. c #888686",
"q. c #96858A",
"w. c #8A8896",
"e. c #938D9B",
"r. c #9A9A9B",
"t. c #979597",
"y. c #909192",
"u. c #B68D84",
"i. c #AF958C",
"p. c #A88894",
"a. c #A7999D",
"s. c #B69B99",
"d. c #BF9986",
"f. c #A7A29D",
"g. c #BAAE98",
"h. c #8489A4",
"j. c #8D95A9",
"k. c #9C99A6",
"l. c #9C9DAB",
"z. c #959AA9",
"x. c #939EB4",
"c. c #989DB3",
"v. c #A69DA4",
"b. c #99A3AD",
"n. c #9FA8AD",
"m. c #9CA3B4",
"M. c #9EAAB5",
"N. c #9BA5BB",
"B. c #99A4B6",
"V. c #A2A5AD",
"C. c #A6A7AC",
"Z. c #B3A6A7",
"A. c #A3ABB6",
"S. c #A4ABBC",
"D. c #A7A7B7",
"F. c #ABB3BD",
"G. c #A6B2BF",
"H. c #B5B7B8",
"J. c #CF9F8B",
"K. c #C99F93",
"L. c #C6A388",
"P. c #C7A898",
"I. c #D2A593",
"U. c #DBB098",
"Y. c #D8AF8F",
"T. c #E3B59A",
"R. c #C0A3A0",
"E. c #C5B4A6",
"W. c #D5B4A5",
"Q. c #C4BBB7",
"!. c #EDB9AB",
"~. c #E5C19D",
"^. c #D8C9B6",
"/. c #EAC2AF",
"(. c #9CABC0",
"). c #A1ADC4",
"_. c #AAADC2",
"`. c #ABB5C4",
"'. c #A9B5C7",
"]. c #BBBBC4",
"[. c #B4BCCC",
"{. c #B4B9C3",
"}. c #C9BFCC",
"|. c #BBC3CD",
" X c #BAC1C7",
".X c #BCC4D2",
"XX c #B9C7DC",
"oX c #BEC8D4",
"OX c #BECDE0",
"+X c #C3C3C3",
"@X c #C2C5CD",
"#X c #CDC5C9",
"$X c #D2C5C7",
"%X c #C3CBD5",
"&X c #C2CCD9",
"*X c #CDCAD1",
"=X c #CBD1DD",
"-X c #C8D1D9",
";X c #D3D7D8",
":X c #EADBD3",
">X c #C8D4E9",
",X c #DADBE4",
"<X c #DBDDEF",
"1X c #E2DFE8",
"2X c #DCE9F6",
"3X c #E5E3E5",
"4X c #E2E5EB",
"5X c #EBEAEE",
"6X c #E7EAF4",
"7X c #EAF4FA",
"8X c #F3F7F9",
"9X c #F8EDE9",
"0X c None",
/* pixels */
"0X0X0X0X0X0X0X0X0X0X0X0X0X0X0X0X0X0X0X0X0X0X0X0X0X0X0X0X0X0X0X0X0X0X0X0X0X0X0X0X0X0X0X0X0X0X0X0X0X0X",
"0X0X0X0X0X0X0X0X0X0X0X0X0X0X0X0X0X0X0X0X0X0X0X0X0X0X0X0X0X0X0X0X0X0X0X0X0X0X0X0X0X0X0X0X0X0X0X0X0X0X",
"0X0X0X0X0X0X0X0X0X0X0X0X0X0X0X0X0X0X0X0X0X0X0X0X0X0X0X0X0X0X0X0X0X0X0X0X0X0X0X0X0X0X0X0X0X0X0X0X0X0X",
"0X0X0X0X0X0X0X0X0X0X0X0X0X0X0X0X0X0X0X0X0X0X0X0X0X0X0X0X0X0X4X5X0X0X0X0X0X0X0X0X0X0X0X0X0X0X0X0X0X0X",
"0X0X0X0X0X0X0X0X0X0X0X0X0X0X0X0X0X0X0X0X0X0X0X8X5X8X2X,X6X1X=X%X,X0X0X0X0X0X0X0X0X0X0X0X0X0X0X0X0X0X",
"0X0X0X0X0X0X0X0X0X0X0X0X0X0X0X0X0X0X0X0X0X0X;X-X].A.8.I w.].%XA.;X0X0X0X0X0X0X0X0X0X0X0X0X0X0X0X0X0X",
"0X0X0X0X0X0X0X0X0X0X0X0X0X0X0X0X0X0X0X0X0X-X%X@X[.N.8.3. .5.`.-X4X0X0X0X0X0X0X0X0X0X0X0X0X0X0X0X0X0X",
"0X0X0X0X0X0X0X0X0X0X0X0X0X0X0X0X0X0X0X0X#X$X$X*X}.F.b.j.K O.G.7X0X0X0X0X0X0X0X0X0X0X0X0X0X0X0X0X0X0X",
"0X0X0X0X0X0X0X0X0X0X0X0X0X0X0X0X0X0X0X0XE.Y.I.U.R.Z.v.k.h.`.6X0X0X0X0X0X0X0X0X0X0X0X0X0X0X0X0X0X0X0X",
"0X0X0X0X0X0X0X0X0X0X0X0X0X0X0X0X0X0X0X0XL.U.U.U.K.s.s.a.V.[.2X0X0X0X0X0X0X0X0X0X0X0X0X0X0X0X0X0X0X0X",
"0X0X0X0X0X0X0X0X0X0X0X0X0X0X0X0X0X0X0XZ.<.^.E.<.;.u.K.s.k.S.XX2X0X0X0X0X0X0X0X0X0X0X0X0X0X0X0X0X0X0X",
"0X0X0X0X0X0X0X0X0X0X0X0X0X0X0X0X0X0X0Xy.^ g.] t t =.P.Z.C.m.(.OX0X0X0X0X0X0X0X0X0X0X0X0X0X0X0X0X0X0X",
"0X0X0X0X0X0X0X0X0X0X0X0X0X0X0X0X0X0X0XE.<.~.1.&.&.1.L.i.a.l.B..X0X0X0X0X0X0X0X0X0X0X0X0X0X0X0X0X0X0X",
"0X0X0X0X0X0X0X0X0X0X0X0X0X0X0X0X0X0X0X:XU./.T.Y.L.P.E.f.v.l.N.[.0X0X0X0X0X0X0X0X0X0X0X0X0X0X0X0X0X0X",
"0X0X0X0X0X0X0X0X0X0X0X0X0X0X0X0X0X0X0X3X#X}.$XQ.Q.Q.H.n.z.b.).N.'.oX0X0X0X0X0X0X0X0X0X0X0X0X0X0X0X0X",
"0X0X0X0X0X0X0X0X0X0X0X0X0X0X0X0X0X0X3X@X)._.F.F. XH.n.b.V.%X>X).b.`.%X0X0X0X0X0X0X0X0X0X0X0X0X0X0X0X",
"0X0X0X0X0X0X0X0X0X0X0X0X0X0X0X0X0X0X%X X'.'.(.(.'.N.A.C.@X0X0X0X`.M..X0X0X0X0X0X0X0X0X0X0X0X0X0X0X0X",
"0X0X0X0X0X0X0X0X0X0X0X0X0X0X0X0X0X8XA.'.OXXX'.x.N.c.D.|.0X0X0X0X0XM.|.XX0X0X0X0X0X0X0X0X0X0X0X0X0X0X",
"0X0X0X0X0X0X0X0X0X0X0X0X0X0X0X0X0X8XF.'.XX).(.x.c.A.@X0X0X0X0X0X0X0XM.|.&X0X0X0X0X0X0X0X0X0X0X0X0X0X",
"0X0X0X0X0X0X0X0X0X0X0X0X0X0X0X0X6XoXA.`.).N.x.B.S..X0X0X0X0X0X0X0X.X0XA.|.=X0X0X0X0X0X0X0X0X0X0X0X0X",
"0X0X0X0X0X0X0X0X0X0X0X0X0X0X0X0X,XF.c.c.N.B.B.S.%X0X0X0X0X0X0X0X0X0X|.0XM.&X0X0X0X0X0X0X0X0X0X0X0X0X",
"0X0X0X0X0X0X0X0X0X0X0X0X0X0X0X0X0X6XF.j.x.z.N.oX6X0X0X0X0X0X0X0X0X0X0X0X0XoX=X0X0X0X0X0X0X0X0X0X0X0X",
"0X0X0X0X0X0X0X0X0X0X0X0X0X0X0X0X0X<X4. .O.4.l..X0X0XQ.f.+X0X0X0X0X0X0X0X0X`..XoX0X0X0X0X0X0X0X0X0X0X",
"0X0X0X0X0X0X0X0X0X0X0X0X0X0X0X0X0X_.C l z U 8.{.4X].r.y.r.+X0X0X0X0X0X0X0XM._.oX0X0X0X0X0X0X0X0X0X0X",
"0X0X0X0X0X0X0X0X0X0X0X0X0X0X0X0XV.m 5 5 C E @.j.F.r.0.0.0.r.+X0X0X0X0X0X0X0Xb.A.0X0X0X0X0X0X0X0X0X0X",
"0X0X0X0X0X0X0X0X0X0X0X0X0X0X0X0Xz.5 # 0 b K | @.y.C.t.0.8.r.@X0X0X0X0X0X0X0X0X0X0X0X0X0X0X0X0X0X0X0X",
"0X0X0X0X0X0X0X0X0X0X0X0X0X0X0X0XV.* # l b K W  .$.y.r.,.9.r.H.0X0X0X0X0X0X0X0X0X0X0X0X0X0X0X0X0X0X0X",
"0X0X0X0X0X0X0X0X0X0X0X0X0X0X0X0Xe.2 # 0 k b A G !  .8.%.%.r.+X0X0X0X0X0X0X0X0X0X0X0X0X0X0X0X0X0X0X0X",
"0X0X0X0X0X0X0X0X0X0X0X0X0X0X0X9.R % o % & > ; * $ q w r q %.;X*X0X0X0X0X0X0X0X0X0X0X0X0X0X0X0X0X0X0X",
"0X0X0X0X0X0X0X0X0X0X0X0X0X0X0X! + # o o > o & & o     . e #.D.].;X0X0X0X0X0X0X0X0X0X0X0X0X0X0X0X0X0X",
"0X0X0X0X0X0X0X0X0X0X0X0X0X0X0X! , , $ @ ; ; 3 k o     O #.5.Q 0.^.0X0X0X0X0X0X0X0X0X0X0X0X0X0X0X0X0X",
"0X0X0X0X0X0X0X0X0X0X0X0X0X0X3X~ 6 , 2 $ ; 3 3 z k %   # 5.#.w ^ ) -.0X0X0X0X0X0X0X0X0X0X0X0X0X0X0X0X",
"0X0X0X0X0X0X0X0X0X0X0X0X0X0X9X` 6 6 1 # 2 - 0 z z { { | w.%.i X y _ :X0X0X0X0X0X0X0X0X0X0X0X0X0X0X0X",
"0X0X0X0X0X0X0X0X0X0X0X0X0X0X0X@.6 1 < , # # 5 z C 3.h.h.q.+.h g h *.:X0X0X0X0X0X0X0X0X0X0X0X0X0X0X0X",
"0X0X0X0X0X0X0X0X0X0X0X0X0X0X0Xt.! + % % @ $ $ 0 S } | Q f ' >.2.I.W.9X0X0X0X0X0X0X0X0X0X0X0X0X0X0X0X",
"0X0X0X0X0X0X0X0X0X0X0X0X0X0X0X%.e % - 5 = = = 0 x G K G 8 ' J.U.!./.u.0X0X0X0X0X0X0X0X0X0X0X0X0X0X0X",
"0X0X0X0X0X0X0X0X0X0X0X0X0X0X0X~ O - ; ; ; ; ; : N D { [ G ) ,.J.I.L.g ;.0X0X0X0X0X0X0X0X0X0X0X0X0X0X",
"0X0X0X0X0X0X0X0X0X0X0X0X0X0X0X! # 0 & > ; : : : N A I { W R ^ f p s p s *.0X0X0X0X0X0X0X0X0X0X0X0X0X",
"0X0X0X0X0X0X0X0X0X0X0X0X0X0X0X! + % $ - - # $ 2 x N U Y } Z v a p y y s s :.0X0X0X0X0X0X0X0X0X0X0X0X",
"0X0X0X0X0X0X0X0X0X0X0X0X0X0X0X9.R - $ $ # , $ , k k D I Y } S v 8 d ' J s s 7.0X0X0X0X0X0X0X0X0X0X0X",
"0X0X0X0X0X0X0X0X0X0X0X0X0X0X0X0Xe.- # $ $ O 1 O - 5 B Y Y ..} S z Q 0Xp.H s f f / 0X0X0X0X0X0X0X0X0X",
"0X0X0X0X0X0X0X0X0X0X0X0X0X0X0X0Xv.2 $ 2 # # # 2 ; c P P Y X...x b | 0X0X0X0X*.i u _ +.7.0X0X0X0X0X0X",
"0X0X0X0X0X0X0X0X0X0X0X0X0X0X0X0X0X@.0 @ 3 3 # * ; j B P D D U C c E 0X0X0X0X0X;.;.H u f q.0X0X0X0X0X",
"0X0X0X0X0X0X0X0X0X0X0X0X0X0X0X0X0X0X .z * * 2 3 5 A B N V x M w Z 5.0X0X0X0X0X0X0X;./ H ( v.0X0X0X0X",
"0X0X0X0X0X0X0X0X0X0X0X0X0X0X0X0X0X0X0X$., 2 , 6 , e.k.G w w a d 6.0X0X0X0X0X0X0X0X0X0X0X0X0X0X0X0X0X",
"0X0X0X0X0X0X0X0X0X0X0X0X0X0X0X0X0X0X0X0X#.r 8 d 6.0X0Xq.d i g p p.0X0X0X0X0X0X0X0X0X0X0X0X0X0X0X0X0X",
"0X0X0X0X0X0X0X0X0X0X0X0X0X0X0X0X0X0X0X0X0X^ 7 ) 0X0X0X0X0.f i p ,.0X0X0X0X0X0X0X0X0X0X0X0X0X0X0X0X0X",
"0X0X0X0X0X0X0X0X0X0X0X0X0X0X0X0X0X0X0X0XF 8 X ` 0X0X0X0X0Xq.d p T *.0X0X0X0X0X0X0X0X0X0X0X0X0X0X0X0X",
"0X0X0X0X0X0X0X0X0X0X0X0X0X0X0X0X0X0X0X) 7 X 7 ` 0X0X0X0X0XZ.d 7 i ( 0X0X0X0X0X0X0X0X0X0X0X0X0X0X0X0X",
"0X0X0X0X0X0X0X0X0X0X0X0X0X0X0X0X0X0X-.) T ` ` -.0X0X0X0X0X0X_ _ / +.0X0X0X0X0X0X0X0X0X0X0X0X0X0X0X0X"
};
