/* XPM */
static char *result[] = {
/* columns rows colors chars-per-pixel */
"50 50 214 2 ",
"   c #06071F",
".  c #31181C",
"X  c None",
"o  c #0C0C23",
"O  c #060723",
"+  c #120E28",
"@  c #0C112B",
"#  c #131526",
"$  c #1B1927",
"%  c #14152C",
"&  c #1B152C",
"*  c #1D1A2C",
"=  c #18162A",
"-  c #161633",
";  c #1C1632",
":  c #161835",
">  c #1B1B34",
",  c #1D1C3A",
"<  c #241C2D",
"1  c #2A1A2E",
"2  c #221C33",
"3  c #231F38",
"4  c #301D30",
"5  c #1C212E",
"6  c #1C2134",
"7  c #1E223A",
"8  c #2C242B",
"9  c #2C2324",
"0  c #3A2425",
"q  c #362727",
"w  c #212335",
"e  c #22233A",
"r  c #2B2938",
"t  c #372C3C",
"y  c #38313B",
"u  c #4F1D02",
"i  c #663719",
"p  c #521E2A",
"a  c #4F1D28",
"s  c #442B25",
"d  c #44252B",
"f  c #4C232E",
"g  c #4F262B",
"h  c #52272C",
"j  c #4C2D30",
"k  c #472837",
"l  c #552A32",
"z  c #592A31",
"x  c #433236",
"c  c #4A3134",
"v  c #54323B",
"b  c #54332E",
"n  c #73472C",
"m  c #744F39",
"M  c #242441",
"N  c #262A45",
"B  c #2A2D43",
"V  c #272B4B",
"C  c #382A42",
"Z  c #2D334C",
"A  c #26304B",
"S  c #363443",
"D  c #33334A",
"F  c #3B3644",
"G  c #2C2C56",
"H  c #2D3654",
"J  c #343C53",
"K  c #393F5C",
"L  c #373C57",
"P  c #393D69",
"I  c #422F45",
"U  c #463745",
"Y  c #473A52",
"T  c #583941",
"R  c #683D44",
"E  c #374159",
"W  c #3E446E",
"Q  c #3A4362",
"!  c #5B4346",
"~  c #454858",
"^  c #564955",
"/  c #4F515D",
"(  c #44414C",
")  c #694449",
"_  c #69464A",
"`  c #72464E",
"'  c #7B535C",
"]  c #6A4B52",
"[  c #75645C",
"{  c #474B63",
"}  c #434D6B",
"|  c #474967",
" . c #554B60",
".. c #495367",
"X. c #5D5B68",
"o. c #555769",
"O. c #434B73",
"+. c #555D72",
"@. c #685F68",
"#. c #674E61",
"$. c #5A6179",
"%. c #636360",
"&. c #766768",
"*. c #686A79",
"=. c #766C74",
"-. c #777479",
";. c #8F705C",
":. c #8E6F5A",
">. c #846262",
",. c #886B69",
"<. c #857474",
"1. c #967277",
"2. c #AA7976",
"3. c #BA7F79",
"4. c #82817F",
"5. c #B0826A",
"6. c #B88878",
"7. c #AF8F76",
"8. c #C59476",
"9. c #6A6F82",
"0. c #767986",
"q. c #707991",
"w. c #877586",
"e. c #837A97",
"r. c #7E8194",
"t. c #84848B",
"y. c #8B8789",
"u. c #928F8C",
"i. c #94908D",
"p. c #888895",
"a. c #94959C",
"s. c #939496",
"d. c #94889B",
"f. c #A79C9A",
"g. c #B1948B",
"h. c #A8A29C",
"j. c #B9A79F",
"k. c #B8A59A",
"l. c #8D94A5",
"z. c #9E9DA7",
"x. c #939AAC",
"c. c #9D9DAA",
"v. c #9396A9",
"b. c #8D9DB6",
"n. c #959DB1",
"m. c #9B9EB1",
"M. c #A09EAA",
"N. c #AA9FA3",
"B. c #9BA2AE",
"V. c #96A3B4",
"C. c #9DA4B4",
"Z. c #95A4BC",
"A. c #9BABBE",
"S. c #9BA5BA",
"D. c #A3A6AE",
"F. c #AAA6A8",
"G. c #B7A6A4",
"H. c #A3A5B4",
"J. c #A3AAB5",
"K. c #A1AABC",
"L. c #A9ADBC",
"P. c #B4ADB4",
"I. c #ACB1BB",
"U. c #A6B0BC",
"Y. c #BEB8BE",
"T. c #B7B5BB",
"R. c #C7928A",
"E. c #CEA58A",
"W. c #D5A988",
"Q. c #C8AB97",
"!. c #E7AC9C",
"~. c #C5ABA4",
"^. c #CFBCAE",
"/. c #D9BDAB",
"(. c #C5BCBE",
"). c #CCBCB6",
"_. c #E5BFA5",
"`. c #F7BCAD",
"'. c #DBC0AF",
"]. c #E6C2A8",
"[. c #9FAFC6",
"{. c #9BB0C5",
"}. c #ABB3C3",
"|. c #A8B6C1",
" X c #B2BAC4",
".X c #B4BBCB",
"XX c #B5B8C6",
"oX c #AEB3CA",
"OX c #C4BCC0",
"+X c #BAC4D3",
"@X c #B5C0D2",
"#X c #BDC0C9",
"$X c #C2C4CD",
"%X c #CBC9C9",
"&X c #D8CBC8",
"*X c #D1D1CF",
"=X c #CBCCD3",
"-X c #C8CED9",
";X c #C3C9DA",
":X c #D1CED5",
">X c #CED1D7",
",X c #CDD4DE",
"<X c #C6D1DF",
"1X c #D6D4D8",
"2X c #EFD6CD",
"3X c #CAD5E4",
"4X c #D1D6E2",
"5X c #D3DAE3",
"6X c #DADEE7",
"7X c #C6CEE1",
"8X c #DEE2EA",
"9X c #EBECEF",
"0X c #F4F4F9",
"qX c None",
/* pixels */
"qXqXqXqXqXqXqXqXqXqXqXqXqXqXqXqXqXqXqXqXqXqXqXqXqXqXqXqXqXqXqXqXqXqXqXqXqXqXqXqXqXqXqXqXqXqXqXqXqXqX",
"qXqXqXqXqXqXqXqXqXqXqXqXqXqXqXqXqXqXqXqXqXqXqXqXqXqXqXqXqXqXqXqXqXqXqXqXqXqXqXqXqXqXqXqXqXqXqXqXqXqX",
"qXqXqXqXqXqXqXqXqXqXqXqXqXqXqXqXqXqXqXqXqXqXqXqXqXqXqXqXqXqXqXqXqXqXqXqXqXqXqXqXqXqXqXqXqXqXqXqXqXqX",
"qXqXqXqXqXqXqXqXqXqXqXqXqXqXqXqXqXqXqXqXqXqXqXqXqXqXqXqXqXqXqXqXqXqXqXqXqXqXqXqXqXqXqXqXqXqXqXqXqXqX",
"qXqXqXqXqXqXqXqXqXqXqXqXqXqXqXqXqXqXqXqXqXqX|.x.W 9.b.K.qXqXqXqXqXqXqXqXqXqXqXqXqXqXqXqXqXqXqXqXqXqX",
"qXqXqXqXqXqXqXqXqXqXqXqXqXqXqXqXqXqXqXqXqXqXp.~ +.q.S..X$X=X:XqXqXqXqXqXqXqXqXqXqXqXqXqXqXqXqXqXqXqX",
"qXqXqXqXqXqXqXqXqXqXqXqXqXqXqXqXqXqXqXqXqXqXa./ r.x.H.Y.'.'.'.^.qXqXqXqXqXqXqXqXqXqXqXqXqXqXqXqXqXqX",
"qXqXqXqXqXqXqXqXqXqXqXqXqXqXqXqXqXqXqXqXqXqXqXz.c.c.F.F.G.Q.E.Q.qXqXqXqXqXqXqXqXqXqXqXqXqXqXqXqXqXqX",
"qXqXqXqXqXqXqXqXqXqXqXqXqXqXqXqXqXqXqXqXqXqX;XH.c.F.f.k.~.^./.Q.G.qXqXqXqXqXqXqXqXqXqXqXqXqXqXqXqXqX",
"qXqXqXqXqXqXqXqXqXqXqXqXqXqXqXqXqXqXqXqXqX7X}.c.f.G.k.:.:.5.'.7.<.qXqXqXqXqXqXqXqXqXqXqXqXqXqXqXqXqX",
"qXqXqXqXqXqXqXqXqXqXqXqXqXqXqXqXqXqXqXqX3X[.x.M.G.Q.6.i u n W.:.[ qXqXqXqXqXqXqXqXqXqXqXqXqXqXqXqXqX",
"qXqXqXqXqXqXqXqXqXqXqXqXqXqXqXqXqXqXqXqX{.{.V.z.f.7.W.8.5.7.].k.h.qXqXqXqXqXqXqXqXqXqXqXqXqXqXqXqXqX",
"qXqXqXqXqXqXqXqXqXqXqXqXqXqXqXqXqXqXqX+XZ.b.S.c.F.G.~.~.Q.).&X%XqXqXqXqXqXqXqXqXqXqXqXqXqXqXqXqXqXqX",
"qXqXqXqXqXqXqXqXqXqXqXqXqXqXqXqXqXqXqX@XA.A.[.B.z.I.'.G.(.%X%X$X=XqXqXqXqXqXqXqXqXqXqXqXqXqXqXqXqXqX",
"qXqXqXqXqXqXqXqXqXqXqXqXqXqXqXqXqXqX.XS.C.3X6X.XC.m.}.XXOXH.H.J.T.=X9XqXqXqXqXqXqXqXqXqXqXqXqXqXqXqX",
"qXqXqXqXqXqXqXqXqXqXqXqXqXqXqXqXqXqXK.[.-XqXqX1X.XK.V.}.S.m.XXXX XT.6XqXqXqXqXqXqXqXqXqXqXqXqXqXqXqX",
"qXqXqXqXqXqXqXqXqXqXqXqXqXqXqXqXqXS.K.-X0XqXqXqXqX#XV.V.V.V.@X+X+XJ.>XqXqXqXqXqXqXqXqXqXqXqXqXqXqXqX",
"qXqXqXqXqXqXqXqXqXqXqXqXqXqXqXqXqX[.<XqXqXqXqXqXqXqX#XV.V.b.A. X+XU.5XqXqXqXqXqXqXqXqXqXqXqXqXqXqXqX",
"qXqXqXqXqXqXqXqXqXqXqXqXqXqXqXqX[.V.5XqXqXqXqXqXqXqX6X|.U.n.B.A.K.C.5XqXqXqXqXqXqXqXqXqXqXqXqXqXqXqX",
"qXqXqXqXqXqXqXqXqXqXqXqXqXqXqX}.J. X8XqXqXqXqXqXqXqXqX,X.XC.x.C.S.C.5XqXqXqXqXqXqXqXqXqXqXqXqXqXqXqX",
"qXqXqXqXqXqXqXqXqXqXqXqXqXqX;X|.I.qXqXqXqXqXqXqX%X*XqXqX5X}.x.l.x.l.,XqXqXqXqXqXqXqXqXqXqXqXqXqXqXqX",
"qXqXqXqXqXqXqXqXqXqXqXqXqXI.}.H.I.qXqXqXqXqXqX%Xh.h.qXqX5XC.9.+.~ .. XqXqXqXqXqXqXqXqXqXqXqXqXqXqXqX",
"qXqXqXqXqXqXqXqXqXqXqXqXqXB.x.L.:XqXqXqXqXqX%XF.i.i.F.1X$Xv.+.E e B H.qXqXqXqXqXqXqXqXqXqXqXqXqXqXqX",
"qXqXqXqXqXqXqXqXqXqXqXqXqXJ.J.-XqXqXqXqXqX>XF.y.4.u.i.F.a.q...J B > l.qXqXqXqXqXqXqXqXqXqXqXqXqXqXqX",
"qXqXqXqXqXqXqXqXqXqXqXqXqXqXI.-XqXqXqXqXqX>XF.t.t.s.F.s.-...W E N w S t.qXqXqXqXqXqXqXqXqXqXqXqXqXqX",
"qXqXqXqXqXqXqXqXqXqXqXqXqXqX4XqXqXqXqXqXqX>XD.t.r.u.s.0.+./ E E B & = X.qXqXqXqXqXqXqXqXqXqXqXqXqXqX",
"qXqXqXqXqXqXqXqXqXqXqXqXqXqXqXqXqXqXqXqXqX=XB.-.-.*.%.~ E E A A M & ;  .qXqXqXqXqXqXqXqXqXqXqXqXqXqX",
"qXqXqXqXqXqXqXqXqXqXqXqXqXqXqXqXqXqXqXqXqX=Xt.r 5 5 5 5 # @ @   =   < X.qXqXqXqXqXqXqXqXqXqXqXqXqXqX",
"qXqXqXqXqXqXqXqXqXqXqXqXqXqXqXqXqXqXqXqXqX1Xy.t E ~ > o     % % + o = F y.qXqXqXqXqXqXqXqXqXqXqXqXqX",
"qXqXqXqXqXqXqXqXqXqXqXqXqXqXqXqXqXqXqXqXqXh.=.( t.9.7 @     > # ; 2 1 $ y P.qXqXqXqXqXqXqXqXqXqXqXqX",
"qXqXqXqXqXqXqXqXqXqXqXqXqXqXqXqXqXqXqX&X[ T y F 0.*., @ + o 2 2 ; ; 2 < y XXqXqXqXqXqXqXqXqXqXqXqXqX",
"qXqXqXqXqXqXqXqXqXqXqXqXqXqXqXqXqXqXqX&X! s X x w.p.9.+.| 3 ; & 2 % 1 r x T.qXqXqXqXqXqXqXqXqXqXqXqX",
"qXqXqXqXqXqXqXqXqXqXqXqXqXqXqXqXqXqXqX2X;.m m m ,.w.w.e.o.M M : - 3 & 1 ^ OXqXqXqXqXqXqXqXqXqXqXqXqX",
"qXqXqXqXqXqXqXqXqXqXqXqXqXqXqXqXqXqXqX2X_.W.8.6.` v I Y B : : : : - < F =.qXqXqXqXqXqXqXqXqXqXqXqXqX",
"qXqXqXqXqXqXqXqXqXqXqXqXqXqXqXqXqXqX~.2.`.`.!.R.` I I D w 6 % 7 , = & w ^ OXqXqXqXqXqXqXqXqXqXqXqXqX",
"qXqXqXqXqXqXqXqXqXqXqXqXqXqXqXqXqX~.>.R 2.3.3.2.R Y { D 6 5 # = > = 2 $ 8 T.qXqXqXqXqXqXqXqXqXqXqXqX",
"qXqXqXqXqXqXqXqXqXqXqXqXqXqXqXg.h z g p l l T ^  .| Q Z 7 w < & ; = > < 8 qXqXqXqXqXqXqXqXqXqXqXqXqX",
"qXqXqXqXqXqXqXqXqXqXqXqX' ' ' R g f f k k k U { } O.G V 7 $ & * > : = # y qXqXqXqXqXqXqXqXqXqXqXqXqX",
"qXqXqXqXqXqXqXqXqXqXqXR f z a a v 1.#.C C D E O.O.P G G 7 % * , - > w S t.qXqXqXqXqXqXqXqXqXqXqXqXqX",
"qXqXqXqXqXqXqXqX&.k f f v R R R ,.qXd.M Z Q } W O.P G , > > : : , = ; X.qXqXqXqXqXqXqXqXqXqXqXqXqXqX",
"qXqXqXqXqXqX] _ v f d d <.qXqXqXqXqXp.H A E W } O.P G > 3 - : - - , * X.qXqXqXqXqXqXqXqXqXqXqXqXqXqX",
"qXqXqXqXqXqXqXqXqXqXqXqXqXqXqXqXqXqXp.B Z L J L K K N e = & - ; * > %.qXqXqXqXqXqXqXqXqXqXqXqXqXqXqX",
"qXqXqXqXqXqXqXqXqXqXqXqXqXqXqXqXqXqXqX .t t t t r E o.w * < 1 1 r / qXqXqXqXqXqXqXqXqXqXqXqXqXqXqXqX",
"qXqXqXqXqXqXqXqXqXqXqXqXqXqXqXqXqXqXqXqX^ c y 8 S 0.qX~ r 9 4 4 ^ qXqXqXqXqXqXqXqXqXqXqXqXqXqXqXqXqX",
"qXqXqXqXqXqXqXqXqXqXqXqXqXqXqXqXqXqXqXqX_ b j c y.qXqXqX%.9 9 =.qXqXqXqXqXqXqXqXqXqXqXqXqXqXqXqXqXqX",
"qXqXqXqXqXqXqXqXqXqXqXqXqXqXqXqXqXqXqXqX_ h b >.qXqXqXqXqXq q <.qXqXqXqXqXqXqXqXqXqXqXqXqXqXqXqXqXqX",
"qXqXqXqXqXqXqXqXqXqXqXqXqXqXqXqXqXqXqX! s s [ qXqXqXqXqXqX0 0 d @.qXqXqXqXqXqXqXqXqXqXqXqXqXqXqXqXqX",
"qXqXqXqXqXqXqXqXqXqXqXqXqXqXqXqXqXqXqXq q X &.qXqXqXqXqXqX0 . 0 c qXqXqXqXqXqXqXqXqXqXqXqXqXqXqXqXqX",
"qXqXqXqXqXqXqXqXqXqXqXqXqXqXqXqXqXqXqX=.&.-. qXqXqXqXqXqXqXqXq  X qXqXqXqXqXqXqXqXqXqXqXqXqXqXqXqXqX",
"qXqXqXqXqXqXqXqXqXqXqXqXqXqXqXqXqXqXqqXqXqXqXqXqXqXqXqXqXqXqXqXqXqXqXqXqXqqXqXqXqXqXqXqXqXqXqXqXqXqX",
};
