/* XPM */
static char *d162b7bbabaf43dfa1e599326c83e23fNKkpyTnUomAfJ3j6[] = {
/* columns rows colors chars-per-pixel */
"50 50 2 1 ",
"  c #D9D4A3",
". c #D5CC9E",
/* pixels */
".......................  ..                       ",
"......................   ...                      ",
".....................    ....                     ",
"....................     .....                    ",
"...................      ......                   ",
"..................       .......                  ",
".................        ........                 ",
"................         .........                ",
"...............          ..........               ",
"..............           ...........              ",
".............            ............             ",
"............             .............            ",
"...........              .............            ",
"...........              ...............          ",
".........                ................         ",
"........                 .................        ",
".......                  ..................       ",
"......                   ...................      ",
".....                    ...................      ",
"....                     .....................    ",
"...                      ......................   ",
"..                       .......................  ",
".                        ........................ ",
".                        .........................",
"                         .........................",
".........................                         ",
".........................                         ",
" ........................                        .",
"  .......................                       ..",
"   ......................                      ...",
"    .....................                     ....",
"     ....................                    .....",
"      ...................                   ......",
"       ..................                  .......",
"        .................                 ........",
"         ................                .........",
"          ...............               ..........",
"           ..............              ...........",
"            .............             ............",
"             ............           ..............",
"               ..........           ..............",
"               ..........          ...............",
"                .........         ................",
"                 ........        .................",
"                  .......       ..................",
"                   ......      ...................",
"                     ....     ....................",
"                     ....    .....................",
"                      ...   ......................",
"                       ..  ......................."
};
