/* XPM */
static char *c8ba576bccc144a08e60e9fe08d0b608gOYfBqZwx48DAOvD[] = {
/* columns rows colors chars-per-pixel */
"50 50 19 1 ",
"  c #676457",
". c #736F61",
"X c #2D2A25",
"o c #5F5943",
"O c #6D695C",
"+ c #3C392F",
"@ c #535044",
"# c #726E60",
"$ c #726B4C",
"% c #64604E",
"& c #454339",
"* c #4F4C3E",
"= c #333129",
"- c #807C6C",
"; c #ABA692",
": c #6B6447",
"> c #9E9A87",
", c #777465",
"< c #8F8A79",
/* pixels */
"ooooooooooooooooooooooo:$$:ooooooooooooooooooooooo",
"XXXXXXXXXXXXXXXXXXXXXXX&::+XXXXXXXXXXXXXXXXXXXXXXX",
"OOOOOOOOOOOOOOOOOOOOOo=Xo:=+%OOOOOOOOOOOOOOOOOOOOO",
";;;;;;;;;;;;;;;;;;;;;;%Xo:=#;;;;;;;;;;;;;;;;;;;;;;",
"--------------------->,Xo:=,>---------------------",
"####################O<,Xo:=,<#####################",
"....................#-.Xo:=.-#....................",
".....................,OXo:=#-.....................",
"....................., Xo:=O,.....................",
"......................%Xo:= ,.....................",
"......................%Xo:=o................. O...",
"......................oXo:=@...........#....O*O...",
"......................@Xo:=*#..........O ...@*....",
".....................,@Xo:=&#..........#o .O+o....",
"######################@Xo:=&O##......... *Oo+ .###",
"                     %&Xo:=&  OOOOOOOOOOO*&=&     ",
"                   %*+X=o:=&%            @XX*     ",
"                   oXX&o$:=&o            &==*     ",
"                   %=+$$$:=+o           %++=&     ",
"                    =+$$$:=&@%          o=&++     ",
"%%%%%%%%%%%%%%%%%%%%+=:$$:=&@@%%%%%%%%%%*X&+=o%%%%",
"@@@@@@@@@@@@@@@@@@@@+X%$$:=+@*@@@@@@@@**==*&X+*@@@",
"&&&&&&&&&&&&&&&&&&&&+Xo$$:==&&&&&&&&&&+XX+*@+X+&&&",
"XXXX=XXX=XXX=XXX=XXXXX*$$:=XXXXXXXXXXXX=&@::o+XXXX",
"++++++++++++++++++++++*$$$o&++++++++++&o:$$$$%&+++",
":%******o::::::::::****o@o@************@@@@o@@**@:",
":+XXXXXX+$$$$$$$$$*XXXXXXXXXXXXXXXXXXXXXXXXXXXXX=%",
"oX&.,,- =o$$$$$$$o=o,,,,,,,.........#######OOO +Xo",
"oX.;>>>>*&::%%ooo=+<;;>>>>>>>>>>>>>>>>>>>;>;;;;OXo",
"oX,>,..>-=+++++&&&&& <><,.#.......,.,,,,,,,,,,<.Xo",
"oX.<#.#-><<<<>>>>>><,O->><,..................., Xo",
"oX#-#...<><<<<-<-----<--<<<,..................,oXo",
"oX ,.........####.#..##........................@Xo",
"oXo...........................................,@Xo",
"oX@............................................@Xo",
"oX*............................................@Xo",
"oX*............................................@Xo",
"oX*OOOOOOOOOOOOOOOOOOOOOOOOOOOOOOOOOOOOOOOOOOOO*Xo",
"oX&                                            &Xo",
"oX&                                    %%%%%   &Xo",
"oX&                                   %@@@@@@o%&Xo",
"oX+%                                 %@&==+++*o&Xo",
"oX+o                            %%%oo@*=X==XX&@&Xo",
"oX+@%                     %%oo@@@@***&&X&:%o=+@&Xo",
"oX+*@o%%%%               %@***&&++==XXXXo$$$&X*&Xo",
"oX+@***@@@@@@@@@@@@@@@@@@@*&=XXXXX==+&&*:$$$oX+&Xo",
"oX=**@****@*@*@*@*@*@@*@*@*+X&*@o%::$$$$$$$$$&X=Xo",
"oXX=+=++=++=+=+=+=+=+=+=+=+=Xo$$$$$$$$$$$$$$$o=XXo",
":+===========================@$$$$$$$$$$$$$$$$*=&:",
"$::::::%::%:::::::::::::::::::$$$$$$$$$$$$$$$$$:$$"
};
