/* XPM */
static char *result[] = {
/* columns rows colors chars-per-pixel */
"50 50 208 2 ",
"   c #371430",
".  c #3E1039",
"X  c #351C39",
"o  c #3F1F3C",
"O  c #430B36",
"+  c #500F35",
"@  c #520F3E",
"#  c #46183A",
"$  c #6A172C",
"%  c #78192B",
"&  c #6F1A34",
"*  c #721B3B",
"=  c #402234",
"-  c #462637",
";  c #43203A",
":  c #44263D",
">  c #4A2A3A",
",  c #4C2D38",
"<  c #4E2A3C",
"1  c #582B34",
"2  c #56243A",
"3  c #4B323F",
"4  c #4D303C",
"5  c #553235",
"6  c #583B35",
"7  c #5D353B",
"8  c #5F363A",
"9  c #5C3D3F",
"0  c #6D2E3B",
"q  c #653335",
"w  c #623B35",
"e  c #663A3C",
"r  c #6C383D",
"t  c #7F4F23",
"y  c #674035",
"u  c #6E4231",
"i  c #6B4636",
"p  c #714F33",
"a  c #784834",
"s  c #744039",
"d  c #754A38",
"f  c #7D4A38",
"g  c #7B5432",
"h  c #795632",
"j  c #7A5737",
"k  c #745738",
"l  c #7F6939",
"z  c #3B2644",
"x  c #421446",
"c  c #661C44",
"v  c #422445",
"b  c #402944",
"n  c #442D46",
"m  c #4E2C44",
"M  c #592845",
"N  c #4D3344",
"B  c #4F3842",
"V  c #4B384B",
"C  c #533142",
"Z  c #523647",
"A  c #573840",
"S  c #583F46",
"D  c #55374A",
"F  c #503948",
"G  c #55394E",
"H  c #662549",
"J  c #622B49",
"K  c #623D42",
"L  c #534047",
"P  c #574544",
"I  c #5E4445",
"U  c #574945",
"Y  c #5D4C42",
"T  c #51414F",
"R  c #574E54",
"E  c #5A4E53",
"W  c #554859",
"Q  c #5A4F5C",
"!  c #664543",
"~  c #654A43",
"^  c #6E4941",
"/  c #6C4B42",
"(  c #60494F",
")  c #734C4B",
"_  c #6C5747",
"`  c #63514A",
"'  c #66514D",
"]  c #6A5D48",
"[  c #775146",
"{  c #7E5747",
"}  c #715048",
"|  c #7A5A4D",
" . c #654C56",
".. c #6A5553",
"X. c #65535C",
"o. c #66595D",
"O. c #745F55",
"+. c #574B60",
"@. c #5B4D60",
"#. c #5A5065",
"$. c #645B64",
"%. c #645F65",
"&. c #62566B",
"*. c #605B6B",
"=. c #715B63",
"-. c #6A6164",
";. c #6D6B6C",
":. c #756562",
">. c #7D6D6C",
",. c #78766B",
"<. c #6F6579",
"1. c #78757F",
"2. c #801F27",
"3. c #8F3125",
"4. c #8B392F",
"5. c #A02629",
"6. c #AD3E2B",
"7. c #B93822",
"8. c #A93330",
"9. c #CE3C21",
"0. c #CD3A26",
"q. c #D33E23",
"w. c #D43B26",
"e. c #8B492F",
"r. c #914329",
"t. c #9A5427",
"y. c #9F5F2D",
"u. c #874538",
"i. c #8D4838",
"p. c #8B5232",
"a. c #8C5531",
"s. c #875A34",
"d. c #865F39",
"f. c #955C34",
"g. c #92553E",
"h. c #9F5F3A",
"j. c #AE4428",
"k. c #B7542B",
"l. c #B2552F",
"z. c #A44A3D",
"x. c #AE5B3E",
"c. c #846833",
"v. c #8F6B31",
"b. c #9F6A37",
"n. c #92683F",
"m. c #9D7E33",
"M. c #BD6B2B",
"N. c #A96C37",
"B. c #A0673F",
"V. c #A67936",
"C. c #AD7B32",
"Z. c #AC7139",
"A. c #B07133",
"S. c #D4491F",
"D. c #CB5E1F",
"F. c #DE5C1D",
"G. c #E0571D",
"H. c #DD641E",
"J. c #E86A1A",
"K. c #E3741F",
"L. c #D24028",
"P. c #D45020",
"I. c #D47325",
"U. c #C4793B",
"Y. c #8D4148",
"T. c #815C40",
"R. c #8C6049",
"E. c #8D644D",
"W. c #967146",
"Q. c #8C685C",
"!. c #936F50",
"~. c #A27142",
"^. c #AB7543",
"/. c #A6744F",
"(. c #B0754A",
"). c #AF7F50",
"_. c #A5755D",
"`. c #8C7169",
"'. c #927767",
"]. c #8E7A73",
"[. c #917F79",
"{. c #A57760",
"}. c #9F8538",
"|. c #AC8433",
" X c #B88D33",
".X c #B5813C",
"XX c #BC9331",
"oX c #C9812D",
"OX c #D69836",
"+X c #868371",
"@X c #888B72",
"#X c #998579",
"$X c #B48462",
"%X c #A28473",
"&X c #716D86",
"*X c #79758E",
"=X c #837982",
"-X c #848484",
";X c #8E888A",
":X c #908E89",
">X c #899285",
",X c #8F9893",
"<X c #96A19C",
"1X c #A2B4AC",
"2X c #A9BEB1",
"3X c #AFC5C7",
"4X c #B8D0C2",
"5X c None",
/* pixels */
"5X5X5X5X5X5X5X5X5X5X5X5X5X5X5X5X5X5X5X5X5X5X5X5X5X5X5X5X5X5X5X5X5X5X5X5X5X5X5X5X5X5X5X5X5X5X5X5X5X5X",
"5X5X5X5X5X5X5X5X5X5X5X5X5X5X5X5X5X5X5X5X5X5X5X5X5X5X5X5X5X5X5X5X5X5X5X5X5X5X5X5X5X5X5X5X5X5X5X5X5X5X",
"5X5X5X5X5X5X5X5X5X5X5X5X5X5X5X5X5X5X5X5X5X5X5X5X5X5X5X5X5X5X5X5X5X5X5X5X5X5X5X5X5X5X5X5X5X5X5X5X5X5X",
"5X5X5X5X5X5X5X5X5X5X5X5X5X5X5X5X5X5X5X5X5X5X5X5X5X5X5X5X5X5X5X5X5X5X5X5X5X5X5X5X5X5X5X5X5X5X5X5X5X5X",
"5X5X5X5X5X5X5X5X5X5X5X5X5X5X5X5X5X5X5X5X5X5X5X5X5X5X5X5X5X5X5X5X5X5X5X5X5X5X5X5X5X5X5X5X5X5X5X5X5X5X",
"5X5X5X5X5X5X5X5X5X5X5X5X5X5X5X5X5X5X5X5X5X5X5X5X5X5X5X5X5X5X| j ` 5X5X5X5X5X5X5X5X5X5X5X5X5X5X5X5X5X",
"5X5X5X5X5X5X5X5X5X5X5X5X5X5X5X5X5X5X5X5X5X5X5X5X5X5X5X5X=X&X*X*X1.<...5X5X5X5X5X5X5X5X5X5X5X5X5X5X5X",
"5X5X5X5X5X5X5X5X5X5X5X5X5X5X5X5X5X5X5X5X5X5X5X5X5X5X5X:X<X3X4X1X,X-X-.` 5X5X5X5X5X5X5X5X5X5X5X5X5X5X",
"5X5X5X5X5X5X5X5X5X5X5X5X5X5X5X5X5X5X5X5X5X5X5X5X5X5X..O.@X4X2X-X>.=.X.F ` 5X5X5X5X5X5X5X5X5X5X5X5X5X",
"5X5X5X5X5X5X5X5X5X5X5X5X5X5X5X5X5X5X5X5X5X5X5X5X5Xh c.XXp ;.-X&X*X&X+.+.+.L 5X5X5X5X5X5X5X5X5X5X5X5X",
"5X5X5X5X5X5X5X5X5X5X5X5X5X5X5X5X5X5X5X5X5X5X5X5X5X1.v.XXu -X3X2X1X1.%._ W m 5X5X5X5X5X5X5X5X5X5X5X5X",
"5X5X5X5X5X5X5X5X5X5X5X5X5X5X5X5X5X5X5X5X5X5X5X5X5X>X) e 4 ,.>X,.-.#.#.S +.G 5X5X5X5X5X5X5X5X5X5X5X5X",
"5X5X5X5X5X5X5X5X5X5X5X5X5X5X5X5X5X5X5X5X5X5X5X5X5XQ  .X.A A 8 > +.:.o.+.T U 5X5X5X5X5X5X5X5X5X5X5X5X",
"5X5X5X5X5X5X5X5X5X5X5X5X5X5X5X5X5X5X5X5X5X5X5X5X5X5XI ].!   = ^ %.O.^ V T ] |.C.5X5X5X5X5X5X5X5X5X5X",
"5X5X5X5X5X5X5X5X5X5X5X5X5X5X5X5X5X5X5X5X5X5X5X5X5X5X( +XS > 9 ).X.#.V T ] m.oXB.5X5X5X5X5X5X5X5X5X5X",
"5X5X5X5X5X5X5X5X5X5X5X5X5X5X5X5X5X5X5X5X5X5X5X5X5X5XT.k 9 [ 5 5 o.X.T ] Y |.l.x.5X5X5X5X5X5X5X5X5X5X",
"5X5X5X5X5X5X5X5X5X5X5X5X5X5X5X5X5X5X5X5X5X5X5X5X5X5XQ > 5 8 - ! O.[ S }.m.b.8.z.5X5X5X5X5X5X5X5X5X5X",
"5X5X5X5X5X5X5X5X5X5X5X5X5X5X5X5X5X5X5X5X5X5X5X5X5X5XS X - ^ R.R.4 B l  XM.s % 0 } 5X5X5X5X5X5X5X5X5X",
"5X5X5X5X5X5X5X5X5X5X5X5X5X5X5X5X5X5X5X5X5X5X5X5X5XE.! n 5 ^ ^ : - w m.N.f.#.&.) A L 5X5X5X5X5X5X5X5X",
"5X5X5X5X5X5X5X5X5X5X5X5X5X5X5X5X5X5X5X5X5X5X5X5X5X} S W ! 5 E T i p v.f.:.,X>.>.&X@.5X5X5X5X5X5X5X5X",
"5X5X5X5X5X5X5X5X5X5X5X5X5X5X5X5X5X5X5X5X5X5X5X5X5X{ B %.>.^ b.i e B g ^ ;.-.O.,X<X&.m 5X5X5X5X5X5X5X",
"5X5X5X5X5X5X5X5X5X5X5X5X5X5X5X5X5X5X5X5X5X5XT.5XE.s F ' E ! a.> 3 3 u e W n E -.o.V z 5X5X5X5X5X5X5X",
"5X5X5X5X5X5X5X5X5X5X5X5X5X5X5X5X5X5X5X5X5X5Xy 7 u.r 5Xv > 8 q ^ ) - < J v > v v C R...5X5X5X5X5X5X5X",
"5X5X5X5X5X5X5X5X5X5X5X5X5X5X5X5X5X5X5X5X5XV T n C p.5X5XN K e 7 } Z 5X5X5X5X5X5Xo ^ ~ d.j 5X5X5X5X5X",
"5X5X5X5X5X5X5X5X5X5X5X5X5X5X5X5X5X5X5X;XW T X.;.1./ 5X5X7 7 e 1 , 6 5X5X5X5X5X5Xo V !  Xy 5X5X5X5X5X",
"5X5X5X5X5X5X5X5X5X5X5X5X5X5X5X5X5X5X/ ,.O.^ Y ] o.b 5XI 9 8 f e q C ~ 5X5X5X5X5XT W ^ OX^.5X5X5X5X5X",
"5X5X5X5X5X5X5X5X5X5X5X5X5X5X5X5X5XG f q w [ E ~ G 5Xx > w N.OXn.g Y P 5X5X5X5X5XV V e N.A.5X5X5X5X5X",
"5X5X5X5X5X5X5X5X5X5X5X5X5X5X5X5X5X5Xq 4.u [ F 5X5X5X. X = w u 5 > - X 5X5X5X5X5Xn B s.s 5X5X5X5X5X5X",
"5X5X5X5X5X5X5X5X5X5X5X5X5X5X5X5X5X5Xm 0 2 m 5X5X5X5X: > B A 4 3 : > ; b 5X5X5X< E X.n.V.h h C.5X5X5X",
"5X5X5X5X5X5X5X5X5X5X5X5X5X5X5X5X5X5X5XJ M 5X5X5X5Xo C B Y ! !  .=.8 ; , 5X5Xa s 3 _ [ f u t y.5X5X5X",
"5X5X5X5X5X5X5X5X5X5X5X5X5X5X5X5X5X5X5X5X5X5X5X5X# - 4 P O.O.`.%X].n.8 = 6 a 1 q   k  Xd M r 5X5X5X5X",
"5X5X5X5X5X5X5X5X5X5X5X5X5X5X5X5X5X5X5X5X5X5X5X5X< A  .`.%X%X%XQ.)..Xs.g f.2 o J 2 - g j 5X5X5X5X5X5X",
"5X5X5X5X5X5X5X5X5X5X5X5X5X5X5X5X5X5X5X5X5XZ.C.^._.{.$X$X$X/.R.y f u.u a.e.5X5X5XY.H m 5X5X5X5X5X5X5X",
"5X5X5X5X5X5X5X5X5X5X5X5X5X5X5X5X5X6.j.k.M.U.U.).(.(.~.~.W.W.!.) R.h.f q < 5X5X5X5X5X5X5X5X5X5X5X5X5X",
"5X5X5X5X5X5X5X5X5X5X5X5X5X0.q.9.P.H.K.I.U.U.N.b.b.~.~.~././.{.`.Q.) f q #.*.5X5X5X5X5X5X5X5X5X5X5X5X",
"5X5X5X5X5X5X5X5XL.w.q.P.G.F.J.K.K.I.M.y.y.y.b.N.N.N.h.R.B.E.'.#X[.| f 8 %.;.5X5X5X5X5X5X5X5X5X5X5X5X",
"5X5X5X5X5X0.q.S.G.J.J.H.G.F.D.l.t.t.t.t.t.y.y.h.g.[ ) >.5X5X5X5X5X5XM D +.T 5X5X5X5X5X5X5X5X5X5X5X5X",
"5X5X5X5.9.G.J.G.S.7.8.3.3.3.3.3.4.r.r.e.i.Y.5X5X5X$.&.$.5X5X5X5X5X5X5Xb %.&.( 5X5X5X5X5X5X5X5X5X5X5X",
"5X5X5.7.D.7.2.% 2.2.2.% % % $ & * c 5X5X5X5X5X5X5XR X.L 5X5X5X5X5X5X5X5XZ ' F 5X5X5X5X5X5X5X5X5X5X5X",
"5X5X$ $ $ % $ $ $ $ $ + @ c 5X5X5X5X5X5X5X5X5X5XK 9 N 5X5X5X5X5X5X5X5X5Xm ~ , 5X5X5X5X5X5X5X5X5X5X5X",
"5X5Xx . O O + . # x 5X5X5X5X5X5X5X5X5X5X5X5X5X5X5X5X5X5X5X5X5X5X5X5X5X5X5X5X5X5X5X5X5X5X5X5X5X5X5X5X",
"5X5X5X5X5X5X5X5X5X5X5X5X5X5X5X5X5X5X5X5X5X5X5X5X5X5X5X5X5X5X5X5X5X5X5X5X5X5X5X5X5X5X5X5X5X5X5X5X5X5X",
"5X5X5X5X5X5X5X5X5X5X5X5X5X5X5X5X5X5X5X5X5X5X5X5X5X5X5X5X5X5X5X5X5X5X5X5X5X5X5X5X5X5X5X5X5X5X5X5X5X5X",
"5X5X5X5X5X5X5X5X5X5X5X5X5X5X5X5X5X5X5X5X5X5X5X5X5X5X5X5X5X5X5X5X5X5X5X5X5X5X5X5X5X5X5X5X5X5X5X5X5X5X",
"5X5X5X5X5X5X5X5X5X5X5X5X5X5X5X5X5X5X5X5X5X5X5X5X5X5X5X5X5X5X5X5X5X5X5X5X5X5X5X5X5X5X5X5X5X5X5X5X5X5X",
"5X5X5X5X5X5X5X5X5X5X5X5X5X5X5X5X5X5X5X5X5X5X5X5X5X5X5X5X5X5X5X5X5X5X5X5X5X5X5X5X5X5X5X5X5X5X5X5X5X5X",
"5X5X5X5X5X5X5X5X5X5X5X5X5X5X5X5X5X5X5X5X5X5X5X5X5X5X5X5X5X5X5X5X5X5X5X5X5X5X5X5X5X5X5X5X5X5X5X5X5X5X",
"5X5X5X5X5X5X5X5X5X5X5X5X5X5X5X5X5X5X5X5X5X5X5X5X5X5X5X5X5X5X5X5X5X5X5X5X5X5X5X5X5X5X5X5X5X5X5X5X5X5X",
"5X5X5X5X5X5X5X5X5X5X5X5X5X5X5X5X5X5X5X5X5X5X5X5X5X5X5X5X5X5X5X5X5X5X5X5X5X5X5X5X5X5X5X5X5X5X5X5X5X5X",
"5X5X5X5X5X5X5X5X5X5X5X5X5X5X5X5X5X5X5X5X5X5X5X5X5X5X5X5X5X5X5X5X5X5X5X5X5X5X5X5X5X5X5X5X5X5X5X5X5X5X"
};
