/* XPM */
static char *d00ecc037f3d4a13abd5960faeaf9200HkonlYuZpsuMHn1p[] = {
/* columns rows colors chars-per-pixel */
"50 50 256 2 ",
"   c None",
".  c #694559",
"X  c #442656",
"o  c #4C384B",
"O  c #471E5D",
"+  c #592B5C",
"@  c #91693F",
"#  c #562E72",
"$  c #BBAA4A",
"%  c #9C8254",
"&  c #4E2C44",
"*  c #724983",
"=  c #542F57",
"-  c #3E1E51",
";  c #806059",
":  c #56287C",
">  c #4A1F44",
",  c #674445",
"<  c None",
"1  c #583F46",
"2  c #593845",
"3  c #D7E75A",
"4  c #654A43",
"5  c #4E2A3C",
"6  c #5B3047",
"7  c #3F1F3C",
"8  c #503948",
"9  c #553B46",
"0  c #422445",
"q  c #7A5444",
"w  c #5D353B",
"e  c #744039",
"r  c #D33F23",
"t  c #C34C2D",
"y  c #3E1039",
"u  c #BD6B2B",
"i  c #9E713D",
"p  c #673B53",
"a  c #421446",
"s  c #854A51",
"d  c #A17D43",
"f  c #9F5F3A",
"g  c #462353",
"h  c #AD7B32",
"j  c #533F47",
"k  c #5C3E3F",
"l  c #44263D",
"z  c #4C2D38",
"x  c #592845",
"c  c #987845",
"v  c #622B49",
"b  c #8D644D",
"n  c #55394E",
"m  c #402944",
"M  c #603E42",
"N  c #6F5F49",
"B  c #56243A",
"V  c #674036",
"C  c #63514A",
"Z  c #715048",
"A  c #9C803A",
"S  c #6C543F",
"D  c #7A5737",
"F  c #794839",
"G  c #6A5553",
"H  c #795632",
"J  c #430B36",
"K  c #D4491F",
"L  c #661C44",
"P  c #86444C",
"I  c #A02629",
"U  c #53174A",
"Y  c #CE3C21",
"T  c #500F35",
"R  c #D45020",
"E  c #C36C36",
"W  c #46183A",
"Q  c #CD3A26",
"!  c #645B64",
"~  c #B99535",
"^  c #8D4148",
"/  c #AB7543",
"(  c #60494F",
")  c #8B492F",
"_  c #A57136",
"`  c #815C40",
"'  c #635462",
"]  c #A0673F",
"[  c #5A4F5C",
"{  c #574544",
"}  c #753960",
"|  c #523647",
" . c #4D3344",
".. c #927453",
"X. c #44383F",
"o. c #6C4B42",
"O. c #582B34",
"+. c #583B35",
"@. c #7A5B4D",
"#. c #AC8433",
"$. c #736349",
"%. c #3E2155",
"&. c #784834",
"*. c #6C383D",
"=. c #8D6336",
"-. c #721B3B",
";. c #7D3EE9",
":. c #8D4838",
">. c #6F1A34",
",. c #AD3E2B",
"<. c #915F6B",
"1. c #B7542B",
"2. c #B2452C",
"3. c #AE4428",
"4. c #D43B26",
"5. c #D24028",
"6. c #520F3E",
"7. c #533F53",
"8. c #574E54",
"9. c #A5755D",
"0. c #D04329",
"q. c #AC7139",
"w. c #92553E",
"e. c #917F79",
"r. c #927767",
"t. c #998579",
"y. c #8C512E",
"u. c #8E888A",
"i. c #614649",
"p. c #B07133",
"a. c #908E89",
"s. c #3B2644",
"d. c #5B4D60",
"f. c #865F39",
"g. c #605B6B",
"h. c #574945",
"j. c #662549",
"k. c #6F6579",
"l. c #AE5B3E",
"z. c #A44A3D",
"x. c #A67936",
"c. c #7E5747",
"v. c #8B5232",
"b. c #837982",
"n. c #846833",
"m. c #4A2A3B",
"M. c #664543",
"N. c #69172C",
"B. c #6E4941",
"V. c #51414F",
"C. c #663A3C",
"Z. c #78192B",
"A. c #A96C37",
"S. c #745F55",
"D. c #65535C",
"F. c #5F363A",
"G. c #574B60",
"H. c #9F5F2D",
"J. c #8C6049",
"K. c #462637",
"L. c #775146",
"P. c #734C4B",
"I. c #553235",
"U. c #4F3842",
"Y. c #6E4231",
"T. c #9A5427",
"R. c #E0571D",
"E. c #8F3125",
"W. c #A27142",
"Q. c #9F6A37",
"!. c #4D303C",
"~. c #7E4B37",
"^. c #653335",
"/. c #573840",
"(. c #7D6D6C",
"). c #645F65",
"_. c #5A5065",
"`. c #5A4E53",
"'. c #6B5C48",
"]. c #C4793B",
"[. c #E86A1A",
"{. c #A28473",
"}. c #351C39",
"|. c #62566B",
" X c #5C3D3F",
".X c #5D4C42",
"XX c #6D2E3B",
"oX c #4B323F",
"OX c #66595D",
"+X c #7C5432",
"@X c #6A6164",
"#X c #442D46",
"$X c #6D6B6C",
"%X c #78757F",
"&X c #716D86",
"*X c #B93822",
"=X c #801F27",
"-X c #E3741F",
";X c #B48462",
":X c #A6744F",
">X c #8C7169",
",X c #AF7F50",
"<X c #654C56",
"1X c #623B35",
"2X c #92683F",
"3X c #402234",
"4X c #9D7E33",
"5X c #955C34",
"6X c #533142",
"7X c #B88D33",
"8X c #8F9893",
"9X c #78766B",
"0X c #899285",
"qX c #848484",
"wX c #79758E",
"eX c #D47325",
"rX c #914329",
"tX c #DD641E",
"yX c #CB5E1F",
"uX c #DE5C1D",
"iX c #B0754A",
"pX c #8B392F",
"aX c #A57760",
"sX c #967146",
"dX c #A93330",
"fX c #B2552F",
"gX c #8C685C",
"hX c #D69836",
"jX c #43203A",
"kX c #6B4636",
"lX c #66514D",
"zX c #8E7A73",
"xX c #766562",
"cX c #715B63",
"vX c #875A34",
"bX c #6E563B",
"nX c #874538",
"mX c #8C5531",
"MX c #906B31",
"NX c #371430",
"BX c #714F33",
"VX c #96A19C",
"CX c #A2B4AC",
"ZX c #B8D0C2",
"AX c #BC9331",
"SX c #A9BEB1",
"DX c #AFC5C7",
"FX c #76583F",
"GX c #936F50",
"HX c #868371",
"JX c #B5813C",
"KX c #7F4F23",
"LX c #7F6939",
"PX c #9F8538",
"IX c #C9812D",
"UX c #888B72",
/* pixels */
"                                                                                                    ",
"                                                                                                    ",
"                                                                                                    ",
"                                                                                                    ",
"                                                                                                    ",
"                                $.C D @.q                                                           ",
"                              G k.%XwXwX&Xb.                                                        ",
"                            C @XqX8XCXZXDXVXa.                                                      ",
"                          C 8 D.cX(.qXSXZXUXS.G                                                     ",
"                        j G.G.G.&XwX&XqX$XBXAXn.H                                                   ",
"                      . & < '.).%XCXSXDXqXY.AXMX%X'                                                 ",
"                        n G.1 _._.@X9X0X9X!.C.P.0XN                                                 ",
"                        h.V.G.OXxXG.m.F././.D.<X[ O                                                 ",
"                        '.V.o B.S.).B.3XNXM.zXi.g                                                   ",
"                      IX4X'.V.o _.D.,X Xm.1 HX( *                                                   ",
"                     .fX#..X'.V.D.OXI.I.L. XFX`                                                     ",
"                    z.dXQ.4XPX1 L.S.M.K.F.I.m.[ ;                                                   ",
"                  Z XXZ.e u 7XLXU.!.J.J.B.K.}.1 q                                                   ",
"                  /.P.|._.5XA.4X1XK.l B.B.I.#XM.b .                                                 ",
"                 .&X(.(.8XxX5XMXBXkXV.`.I.M.< 1 Z +                                                 ",
"            . & |.VX8XS.@X$XB.+XU.C.kXQ.B.(.).U.c.S 3 $                                             ",
"            . s.o OX@X`.#X< C.Y.oXoXm.mXM.`.lX8 e b q `                                             ",
"            _ G J.6X0 0 m.0 v 5 K.P.B.^.F.m.0 9 *.nXw V                                             ",
"          D f.4 B. 7 = -  O . - | Z w C.M     =.v.6X#XV.o k                                         ",
"        S V 7XM.o 7 g       $ N +.z O.C.w w k   o.%X$XD.V.<                                         ",
"        ; / hXB.< V.        S 4 6X^.C.F F.        OX'..XB.S.9X                                      ",
"          p.A.C.o           2 { .X+X2XhXA.1Xm.    n 4 `.L.1X^.~.n                                   ",
"      $   q e vXU.#         X.}.K.m.I.Y.1X3X}.y   * 9 8 L.Y.pX^.2                                   ",
"    ..h   H x.2XD. .        m jXm.l oX!./.U.m.l >     %.& B XX& ,                                   ",
"     .H.KXY.F L.bXoXe &.  A z jXF.cX<XM.M..XU.6X7 =     X x v O                                     ",
"        *.x F 7XbXNX^.O.&.+.3XF.2XzX{.>XS.S.{ !.K.W #     .                                         ",
"              +XK.B v 7 B 5X+XvXJX,XgX{.{.{.>X<X/.5 c $                                             ",
"              & j.^ } X 6 ) mXY.nX~.V J.:X;X;X;XaX9./ h q._ d ~                                     ",
"                        @ 5 ^.~.f J.P.GXsXsXW.W.iXiX,X].].u 1.3.,.2.@ i 3                           ",
"                      , g._.^.~.P.gX>XaX:X:XW.W.W.Q.Q.A.].].eX-XtXR Y r Q 0.t E $                   ",
"                    ;.X.$X).F.~.@.e.t.r.b ] J.f A.A.A.Q.H.H.H.u eX-X-X[.uXR.R r 4.5.t E 3           ",
"                      9 V.G.o x }     % . ' (.P.L.w.f H.H.T.T.T.T.T.fXyXuXR.tX[.[.R.K r Q t $       ",
"                    # ( |.).m :           = ! |.! p s P ^ :.) rXrXpXE.E.E.E.E.dX*XK R.[.R.Y I i     ",
"                    X 8 lX| X             # j D.8.2     # ; s P L -.>.N.Z.Z.Z.=X=X=XZ.=X*XyX*XI .   ",
"                    X z 4 & +               7. . XM k <.        ;.+ = > L 6.T N.N.N.N.N.Z.N.N.N.U   ",
"                    # g - O #               : - 2 p = *                   . O U a W y T J J y a X   ",
"                                                                                ;.# X O - O +       ",
"                                                                                                    ",
"                                                                                                    ",
"                                                                                                    ",
"                                                                                                    ",
"                                                                                                    ",
"                                                                                                    ",
"                                                                                                    ",
"                                                                                                    "
};
