/* XPM */
static char *result[] = {
/* columns rows colors chars-per-pixel */
"50 50 72 1 ",
"  c #391B0F",
". c #3A1C10",
"X c #3B1C10",
"o c #3B1D10",
"O c #3C1D10",
"+ c #421F12",
"@ c #452210",
"# c #4B2412",
"$ c #502611",
"% c #512A12",
"& c #582811",
"* c #5F3112",
"= c #632C11",
"- c #672E11",
"; c #6E3011",
": c #6A3713",
"> c #793512",
", c #753E15",
"< c #56272D",
"1 c #65293C",
"2 c #604117",
"3 c #6F511A",
"4 c #6B2B43",
"5 c #7E3056",
"6 c #783E56",
"7 c #883B12",
"8 c #814415",
"9 c #984213",
"0 c #904D16",
"q c #8D5D1B",
"w c #A14814",
"e c #A94E15",
"r c #A15618",
"t c #B25516",
"y c #B95D18",
"u c #84661E",
"i c #917421",
"p c #CB6719",
"a c #C0681A",
"s c #C86C1B",
"d c #D56E1A",
"f c #CE711C",
"g c #D9761C",
"h c #DF781C",
"j c #E87D1D",
"k c #86325F",
"l c #874266",
"z c #9D8023",
"x c #BA9F29",
"c c #ED821E",
"v c #F1831E",
"b c #F2861F",
"n c #F7881F",
"m c #F88A1F",
"M c #F89322",
"N c #F99C24",
"B c #D2A72A",
"V c #F7A627",
"C c #FBB72B",
"Z c #F2CA30",
"A c #FCD232",
"S c #FDDC35",
"D c #BE449C",
"F c #D148B1",
"G c #F554D7",
"H c #DA73C8",
"J c #E973D7",
"K c #F961E0",
"L c #F86BE3",
"P c #FA7BEB",
"I c #FC85F0",
"U c None",
/* pixels */
"UUUUUUUUUUUUUUUUUUUUUUUUUUUUUUUUUUUUUUUUUUUUUUUUUU",
"UUUUUUUUUUUUUUUUUUUUUUUUUUUUUUUUUUUUUUUUUUUUUUUUUU",
"UUUUUUUUUUUUUUUUUUUUUUUUUUUUUUUUUUUUUUUUUUUUUUUUUU",
"UUUUUUUUUUUUUUUUUUUUUUUUUUUUUUUUUUUUUUUUUUUUUUUUUU",
"UUUUUUUUUUUUUUUUUUUUUUUUUUUUUUUUUUUUUUUUUUUUUUUUUU",
"UUUUUUUUUUUUUUUUUUUUUUUUUUUUUUUUUUUUUUUUUUUUUUUUUU",
"UUUUUUUUUUUUUUUUUUUUUUUUUUUUUUUUUUUUUUUUUUUUUUUUUU",
"UUUUUUUUUUUUUUUUUUUUUUUUUUUUUUUUUUUUUUUUUUUUUUUUUU",
"UUUUUUUUUUUUUUUUUUUUUUUUUUUUUUUUUUUUUUUUUUUUUUUUUU",
"UUUUUUUUUUUUUUUUUUUUUUUUUUUUUUUUUUUUUUUUUUUUUUUUUU",
"UUUUUUUUUUUUUUUUUUUUUUUUUUUUUUUUUUUUUUUUUUUUUUUUUU",
"UUUUUUUUUUUUUUUUUUUUUUUUUUUUUUUUUUUUUUUUUUUUUUUUUU",
"UUUUUUUUUUUUUUUUUUUUUUUUUUUUUUUUUUUUUUUUUUUUUUUUUU",
"UUUUUUUUUUUUUUUUUUUUUUUUUUUUUUUUUUUUUUUUUUUUUUUUUU",
"UUUUUUUUUUUUUUUUUUUUUUUUUUUUUUUUUUOOOOUUUUUUUUUUUU",
"UUUUUUUUUUUUUUUUUUUUUUUUUUUUUUOXX  oo  XOUUUUUUUUU",
"UUUUUUUUUUUUUUUUUUUUUUUUUUUUUX @2uzzzi3%oXUUUUUUUU",
"UUUUUUUUUUUUUUUUUUUUUUUUUUUUX+3xZSSSAAZBq+XUUUUUUU",
"UUUUUUUUUUUUUUUUUUUUUUUUUUUX@iZZCVNMMmmMb0oXUUUUUU",
"UUUUUUUUUUUUUUUUUUUUUUUUUUX+qVMmjarrygnnnj*oUUUUUU",
"UUUUUUUUUUUUUUUUUUUUUUUUUoo,cnbs:+  o%rbnnroOUUUUU",
"UUUUUOOooXXXXXXX....XXXXXo*fnns% <ll4+@anns@XUUUUU",
"UUUUUXo+@####$%%%%%$####%8gnnc, 6HIPGk 8bng$.UUUUU",
"UUUUUX%ysffffgggggggffffhbnnng$<HIIPGD+*cms#XUUUUU",
"UUUUUX*jmnnmmmnnnmmmmmnnbbnnns@<JIILGF+*jny#XUUUUU",
"UUUUUX$yvnbdppjnvgdddpyyttyhng%+DKKGGDo:cjw@XUUUUU",
"UUUUUX+>yhp977ept>----==->7wdb8 1FGGF1 0np7+XUUUUU",
"UUUUUoo+>w7$@@&7;ooooooooo$>ecg* <5k< *hje;oOUUUUU",
"UUUUUUOo=9-oXXo7=oOOOOOOOXo@7pnf,@  +:fcy7#oUUUUUU",
"UUUUUUUo=9-oOoo7=oUUUUUUUUOo$9pvcsrrajjy9-oXUUUUUU",
"UUUUUUUo=9-oOoo&#oUUUUUUUUUXo$7tdjvcjpe9;+XUUUUUUU",
"UUUUUUUo$;$oOOoooXUUUUUUUUUUXo@-7weew97=oXOUUUUUUU",
"UUUUUUUXooooUUUUUUUUUUUUUUUUUOXo@&-;-&+oXUUUUUUUUU",
"UUUUUUUUOOOUUUUUUUUUUUUUUUUUUUUoXoooooXOUUUUUUUUUU",
"UUUUUUUUUUUUUUUUUUUUUUUUUUUUUUUUUUOOOUUUUUUUUUUUUU",
"UUUUUUUUUUUUUUUUUUUUUUUUUUUUUUUUUUUUUUUUUUUUUUUUUU",
"UUUUUUUUUUUUUUUUUUUUUUUUUUUUUUUUUUUUUUUUUUUUUUUUUU",
"UUUUUUUUUUUUUUUUUUUUUUUUUUUUUUUUUUUUUUUUUUUUUUUUUU",
"UUUUUUUUUUUUUUUUUUUUUUUUUUUUUUUUUUUUUUUUUUUUUUUUUU",
"UUUUUUUUUUUUUUUUUUUUUUUUUUUUUUUUUUUUUUUUUUUUUUUUUU",
"UUUUUUUUUUUUUUUUUUUUUUUUUUUUUUUUUUUUUUUUUUUUUUUUUU",
"UUUUUUUUUUUUUUUUUUUUUUUUUUUUUUUUUUUUUUUUUUUUUUUUUU",
"UUUUUUUUUUUUUUUUUUUUUUUUUUUUUUUUUUUUUUUUUUUUUUUUUU",
"UUUUUUUUUUUUUUUUUUUUUUUUUUUUUUUUUUUUUUUUUUUUUUUUUU",
"UUUUUUUUUUUUUUUUUUUUUUUUUUUUUUUUUUUUUUUUUUUUUUUUUU",
"UUUUUUUUUUUUUUUUUUUUUUUUUUUUUUUUUUUUUUUUUUUUUUUUUU",
"UUUUUUUUUUUUUUUUUUUUUUUUUUUUUUUUUUUUUUUUUUUUUUUUUU",
"UUUUUUUUUUUUUUUUUUUUUUUUUUUUUUUUUUUUUUUUUUUUUUUUUU",
"UUUUUUUUUUUUUUUUUUUUUUUUUUUUUUUUUUUUUUUUUUUUUUUUUU",
"UUUUUUUUUUUUUUUUUUUUUUUUUUUUUUUUUUUUUUUUUUUUUUUUUU"
};
