/* XPM */
static char *result[] = {
/* columns rows colors chars-per-pixel */
"50 50 12 1 ",
"  c #2B1731",
". c #2E1831",
"X c #301931",
"o c #331B32",
"O c #371E33",
"+ c #361E35",
"@ c #371E36",
"# c #3A2134",
"$ c #412637",
"% c #492D42",
"& c #55374C",
"* c None",
/* pixels */
"**@&&&&&&&&&&&&&&&&&&&&&&&&%%%%%&%%%%%%%&&&&&%%+**",
"*+%%%%%%%%%%&%&%%%%%%%%%%%%%%%%%$$$$$$$$##$$%%%$+*",
"@#$###OOoXooOOOO#####OOOOOOOOOoOO##OOO##OOO#####o@",
"+oOOOo.XX.XoOOOOOOoX.. ...     Xo#$#######OOOOOOo+",
"OoOOooXXoooOOooXX.....XXXXXX.  XoO$$$$###OOOOOOoXX",
"oOO#OOoXXXXX.....XXXXooooooo.. Xoo#$$$$$$####O##oX",
"o#$$$#OOooXXXXooooooXXXooO##X  XoXO#$$$$$$$$$$$$Oo",
"o#$$$#OoooooooXX..XXX  XoO##.  .oXoO##$$$$$$$$$$oX",
"oO##OOoooooOooXXXXXX.  ..Xoo..  oXXoO#####$#####oX",
"Xo##ooXXoo#$#OOOOOOooXXX..XXo.  .oXXXoO#OOOOO##oXX",
"XoOoX. .Xo#$$$######OoooooOOX .  .XXXoooooooOOoXX.",
"XX.      oo#$$$$$$$$#oooooX.  oX   ..XXXXXXXX.  ..",
"..   .oOoXoXoO#oooXX.         XoX.              .X",
"XX. X#$$$#OoX            ... .XXooXX....  .... XXO",
"XXXX#$$$$$$O.          .ooOOoXXoooOOoooXoooXXXXOoO",
"XXoO#$#$###X         XoOO#OOOOOoooOOOOOOOOoXXoOOoo",
"XXXoOOoooX.  . ... .oOOO#######OOOooXoooooXXXXXOoX",
"XX..oOX   ooOO###OOX.XooooooooXXXoX..XooXXXX...XXX",
"XX...XX  o########OOX....XXXXXXX....XXoXXXXX....XX",
"X.       oOoOO#####OOX...XooooooX ...  .....    ..",
"X.        X.Xo###OOOOOoX.XXXoOoo.   .......     ..",
"X.        .....oO#####OOoooooOo.  .....         ..",
"X.     XX. .... .o######OOO#OOo        ...      ..",
"XooXoOO##OX ..Xo  .oO#$$$###OX.   ..XoOO##OoooXXXo",
"XO##$$####OX ..oo.  .XoooOOoX.  XoO###$$$$$#$###oo",
"X#$$$####$#O.    .XX...   ...  .ooooO#$$$$$$$$$$oo",
"XO##OOooOOOOX  .oOOooXXXXX..    ooXXXooO#$$####OoX",
"XoOooooOOOoX  oO####OoooooX      XoXXXXXoOOOOOooXX",
"XooooOOOX.   O$$$$##OOOOOOX       .XXXXXXoooooooXo",
"XooOOoX  .X..#$$$$$$###OOo  ..        XoooooooOOXX",
"XXooX..XooXXXo####$##OOoo. .oOX  ..     .XoooooXXX",
"X.  .XooXXXoXXXooXoooooOXX XO##.XOO#o...   .   .XX",
"X...XooooXXXXX..XooXoO#OoX.oO#$OXOO$$#OoXX.....XXX",
"XXoooOOOOXXXXXXX .XoO#Ooo..oO#$$OXoO#$$#OoooooooXo",
"XoOO####OooooXXXX. .XoOOo..oO#$$$OXXoO#$$##OOOOOoo",
"oO$$###$OOOOoXXXXX.XoOOOX..oOO#$$$#oXXoO#$$$$$$#oo",
"oO#$#$#####OOoXXX.  .oXXoX.XoOO#$$$#o.XXooO###$#oo",
"Xo###OOO####OOOXXXXXXX.XooX..oOO##$##oXXXoooO###oo",
"XoOO#OOOOO#$#####OOOOOoOOoX...ooO#$####OOooooOOOoo",
"XoOOOOOooO$$$##OOOOOO###OOOo....o##OOo####OooOOOoo",
"XoOOOOXXXO$$%$#OOOOO##$#O###o...oOOOoXoO###OOOOOoX",
"XoOOoX ..o$$%%$$$$$$$####OOoX. .XXXXXXXoooXXoOOoX.",
"XXoXX. ..o#$%%$%%%%%###OOOOX......XXXXX....XXoXXX.",
"XXXXX. ..XO$$%$$$###OOOOOOo...XooXXXXXXX...XXXXXX.",
"XoOoo. ...XO###OOOOOOOOOoXX....XoOoooXooX.XoOOooX.",
"XO#OOo....XooooOOOOOOOoX.X...  .oO#OOOOOOoO###OOo#",
"+oOOOX.XXXXoOOOOOooXX.......   Xo#$######OOOOOOOX@",
"@oooooXXoooooooX.....XXXXXXX...ooO#$##OOOOOOOoooX*",
"*+XXXXXXXXXXXXXXXXXXXXXXXXXXXXXXXXXXXXXXXXXXXXXX+*",
"**@@+oXXXXXXXXXXXXXXXXXXXXXXXXXXXXXXXoooooooooo+**"
};
