/* XPM */
static char *result[] = {
/* columns rows colors chars-per-pixel */
"50 50 67 1 ",
"  c #511300",
". c #621900",
"X c #731C00",
"o c #7F1E00",
"O c #5E2109",
"+ c #78260A",
"@ c #703015",
"# c #7A3616",
"$ c #6F3920",
"% c #3E4B31",
"& c #394D33",
"* c #3A4D33",
"= c #3B4F34",
"- c #3D5136",
"; c #3E5437",
": c #7A421E",
"> c #51442C",
", c #474830",
"< c #454F35",
"1 c #405639",
"2 c #43593B",
"3 c #445A3C",
"4 c #445C3D",
"5 c #455C3D",
"6 c #5B5232",
"7 c #654022",
"8 c #6A482C",
"9 c #7E4525",
"0 c #872000",
"q c #8A2100",
"w c #8E2D0B",
"e c #992400",
"r c #9D2D07",
"t c #8B3418",
"y c #953718",
"u c #A82700",
"i c #AD2700",
"p c #A52B04",
"a c #AD2800",
"s c #AE2B02",
"d c #B02E09",
"f c #B0320A",
"g c #B1360E",
"h c #A73818",
"j c #B43A13",
"k c #B53D19",
"l c #B63D19",
"z c #903B26",
"x c #BE392F",
"c c #CB362E",
"v c #D63F36",
"b c #B64319",
"n c #B3491B",
"m c #974C26",
"M c #864030",
"N c #A75526",
"B c #B85324",
"V c #BB5D2B",
"C c #846235",
"Z c #856239",
"A c #C06735",
"S c #CA733C",
"D c #876940",
"F c #CE7A40",
"G c #D98446",
"H c #E19052",
"J c None",
/* pixels */
"JJJJJJJJJJJJJJJJJJJJJ********JJJJJJJJJJJJJJJJJJJJJ",
"JJJJJJJJJJJJJJJJJJ***&&%,%&&&=35JJJJJJJJJJJJJJJJJJ",
"JJJJJJJJJJJJJJJJ**&&&&%Mxz%&&&&155JJJJJJJJJJJJJJJJ",
"JJJJJJJJJJJJJJJ*&&,8,&>vvc>&%>,&143JJJJJJJJJJJJJJJ",
"JJJJJJJJJJJJJJ*&&&MvM&,hvd>&8vz%=245JJJJJJJJJJJJJJ",
"JJJJJJJJJJJJJ*&%,&:x$&&>$>&&7xz%%<245JJJJJJJJJJJJJ",
"JJJJJJJJJJJJ*&&8z%%,%&&&&&&&&,%&MM;445JJJJJJJJJJJJ",
"JJJJJJJJJJJ*&&&,>&=;;6899:$7>%&&>>&1443JJJJJJJJJJJ",
"JJJJJJJJJJ*&&&&&-126mkkhhhpupt7%&&&=2445JJJJJJJJJJ",
"JJJJJJJJJJ*&&&=146yght#@@@@Xoeut>&&&;445JJJJJJJJJJ",
"JJJJJJJJJ*&&&=248re+@@#tttt+..Xep7&&=2445JJJJJJJJJ",
"JJJJJJJJJ*&&=248pq..whkkllkkr0..0p7&&-443JJJJJJJJJ",
"JJJJJJJJJ*&&148po.oesjkkkkkkldeo.op7&&145JJJJJJJJJ",
"JJJJJJJJ*&&-46rq.0uaadkkkkkkkjdu0.0r,&=245JJJJJJJJ",
"JJJJJJJJ*&&24:e.oaaaaagkkkkkkkjsi0.e#&&143JJJJJJJJ",
"JJJJJJJJ*&=46rXXuaaaaasjkkkkkkkgsuXXr>&-45JJJJJJJJ",
"JJJJJJJJ*&;4:e.eaaaaaajBnbBVbkkkfae.q#&=45JJJJJJJJ",
"JJJJJJJJ*&12yXoaaaaaaaaaaaaaVkkkkfaoXw%=25JJJJJJJJ",
"JJJJJJJJ*&26e.eaaaaaaaaaaaaaAbkkkjde.e>&25JJJJJJJJ",
"JJJJJJJJ*=28qXuaaaaaaaaaaaaaVlkkkkguXq7&15JJJJJJJJ",
"JJJJJJJJ*=4:0Xaaaaaaaaaaaaaabkkkkkkfo0$&15JJJJJJJJ",
"JJJJJJJJ*=4:ooaaaaaaaasnaaaakkkkkkkj0o#&15JJJJJJJJ",
"JJJJJJJJ*=4:o0aaaaaaaaasnNgjkkkkkkklwo#&;5JJJJJJJJ",
"JJJJJJJJ*-4:o0aaaaaaaaaasdifkkkkklVAAN9&;5JJJJJJJJ",
"JJJJJJJJ*-4:o0aaaaaaaaaaaaasjkkkkVHHHGC&;5JJJJJJJJ",
"JJJJJJJJ*-4:o0aaaaaaaaaaaaaafkkklBFGGGZ&;5JJJJJJJJ",
"JJJJJJJJ*-4:o0aaaaaaaaaaaaaasjkkkknBmm9&;5JJJJJJJJ",
"JJJJJJJJ*-4:o0aaaaaaaaaaaaaaagkkkkllyt9&;5JJJJJJJJ",
"JJJJJJJJ*-4:o0iiiiaaaaaaaaaaafkkkkklyt9&;5JJJJJJJJ",
"JJJJJJJJ*-4:o0jVBgaaaaaaaaaaasjkkkklyt9&15JJJJJJJJ",
"JJJJJJJJ*-4:oqSGGVsaaaaaaaaaaagkkkklyt9&15JJJJJJJJ",
"JJJJJJJJ*-4:owFGGAfiaaaaaaaaaadkkkklyt9&15JJJJJJJJ",
"JJJJJJJJ*-4:oqVFSVsaaaaaaaaaaasjkkklyt9&15JJJJJJJJ",
"JJJJJJJJ*=4:o0dnndaaaaaaaaaaaaafkkklyt9&15JJJJJJJJ",
"JJJJJJJJ*=4:o0djgsaaaaaaaaaaaaadkkklyt9&25JJJJJJJJ",
"JJJJJJJJ*=4:o0bNNgiaaaaaaaaaaaaajkklyt9&25JJJJJJJJ",
"JJJJJJJJ*=4:o0b#zgiaaaaaaaaaaaaafkklyt9&25JJJJJJJJ",
"JJJJJJJJ*=2:o0bmNgiaaaaaaaaaaaaadkklyt9=25JJJJJJJJ",
"JJJJJJJJ*=2:o0bVVfiaaaaaaaaaaaaasjklyt9=25JJJJJJJJ",
"JJJJJJJJ*=2:o0sfdaaaaaaaaaaaaaaaaglbyz9=45JJJJJJJJ",
"JJJJJJJJ*&2:o0aiaaaaaaaaaaaaaaaaijSGGFZ=45JJJJJJJJ",
"JJJJJJJJ*&2:o0aaaaaaaaaaaaaaaaaaiBHHHHD-45JJJJJJJJ",
"JJJJJJJJ*&1:o0aaaaaaaaaaaaaaaaaaafAFSSZ-45JJJJJJJJ",
"JJJJJJJJ*&1:o0aaaaaaaaaaaaaaaaaaaagbyz9;45JJJJJJJJ",
"JJJJJJJJ*&1:o0aaaaaaaaaaaaaaaaaaaaflyt9;45JJJJJJJJ",
"JJJJJJJJ*&;:o0aaaaaaaaaaaaaaaaaaaadlyt9145JJJJJJJJ",
"JJJJJJJJ*&;:ooeeeeeeeeeeeeeeeeeeeeehtt9145JJJJJJJJ",
"JJJJJJJJ*&;:o......................@@t9245JJJJJJJJ",
"JJJJJJJJ*&;:eqqqqqqqqqqqqqqqqqqqqqqwyh9245JJJJJJJJ",
"JJJJJJJJ*&;:ppppppppppppppppppppppphkk9245JJJJJJJJ"
};
