/* XPM */
static char *f16b60a68dbc4002fb18bdadbd1a1a68bZhiurBbmihkQvEr[] = {
/* columns rows colors chars-per-pixel */
"50 50 159 2 ",
"   c #535B3E",
".  c #52623F",
"X  c #5A5445",
"o  c #565E45",
"O  c #595D45",
"+  c #56564A",
"@  c #5C564B",
"#  c #575C4B",
"$  c #5B5C4C",
"%  c #5E5D50",
"&  c #615A4E",
"*  c #635E54",
"=  c #556443",
"-  c #5A6445",
";  c #526942",
":  c #586947",
">  c #5C624B",
",  c #5B6C4B",
"<  c #5E6252",
"1  c #5F6A50",
"2  c #62644D",
"3  c #626B4D",
"4  c #63734F",
"5  c #636455",
"6  c #696555",
"7  c #646B54",
"8  c #6A6B56",
"9  c #656559",
"0  c #6A665B",
"q  c #666B5B",
"w  c #6B6B5D",
"e  c #716E5C",
"r  c #667255",
"t  c #6A7255",
"y  c #6D7856",
"u  c #66715A",
"i  c #6C725D",
"p  c #6A7958",
"a  c #72725E",
"s  c #727B5C",
"d  c #6B6660",
"f  c #6D6D62",
"g  c #716E64",
"h  c #746E69",
"j  c #6E7262",
"k  c #6E7960",
"l  c #6F7A69",
"z  c #727464",
"x  c #787465",
"c  c #747A65",
"v  c #797B67",
"b  c #75746A",
"n  c #79766C",
"m  c #767A6B",
"M  c #7A7B6D",
"N  c #7D7672",
"B  c #7D7D72",
"V  c #817C6E",
"C  c #817E74",
"Z  c #827E79",
"A  c #758166",
"S  c #798365",
"D  c #76806E",
"F  c #7C826D",
"G  c #7E886D",
"H  c #7E8272",
"J  c #7E8B79",
"K  c #82836E",
"L  c #80896C",
"P  c #838474",
"I  c #888775",
"U  c #848975",
"Y  c #898A77",
"T  c #858279",
"R  c #838578",
"E  c #83857A",
"W  c #858579",
"Q  c #868478",
"!  c #848679",
"~  c #868779",
"^  c #87847B",
"/  c #84867B",
"(  c #87877B",
")  c #87827C",
"_  c #86867C",
"`  c #87847F",
"'  c #85857A",
"]  c #888679",
"[  c #88847B",
"{  c #8A867A",
"}  c #8D877B",
"|  c #88857C",
" . c #89867D",
".. c #89867F",
"X. c #8D867C",
"o. c #89867C",
"O. c #878978",
"+. c #84887A",
"@. c #858C7A",
"#. c #878B7C",
"$. c #858C7C",
"%. c #868A7A",
"&. c #8A8879",
"*. c #898A78",
"=. c #888B7A",
"-. c #8A8B7B",
";. c #8C897A",
":. c #8B8C7A",
">. c #8E8D7B",
",. c #88887C",
"<. c #888A7C",
"1. c #898B7E",
"2. c #8A8A7E",
"3. c #8D897D",
"4. c #8F8B7F",
"5. c #8A8D7C",
"6. c #8B8E7D",
"7. c #888C7E",
"8. c #8A8C7F",
"9. c #8B8D7F",
"0. c #8E8F7D",
"q. c #8F8D7E",
"w. c #8E8F7F",
"e. c #8A8C7C",
"r. c #908F7D",
"t. c #928E7D",
"y. c #83907E",
"u. c #8D907F",
"i. c #8F907E",
"p. c #8C917C",
"a. c #91927E",
"s. c #868682",
"d. c #898681",
"f. c #898681",
"g. c #878881",
"h. c #898B80",
"j. c #8B8D80",
"k. c #8A8C81",
"l. c #8C8E80",
"z. c #8C8E83",
"x. c #8C8C82",
"c. c #8E8E8A",
"v. c #918F82",
"b. c #928E82",
"n. c #918E86",
"m. c #908E89",
"M. c #8E9180",
"N. c #8E9281",
"B. c #8F9384",
"V. c #8E9182",
"C. c #949381",
"Z. c #909284",
"A. c #929584",
"S. c #969485",
"D. c #929383",
"F. c #949984",
"G. c #939389",
"H. c #909988",
"J. c #98988C",
/* pixels */
"3.{ B f n B c z m B z q D D l H M 5 9 z f ! P $.V.A.i.*.F w n m i m B q 9 f b j f f n | | { C h * g ",
"3.b.{ g f w 9 w q 5 < < j j q j 5 $ q z 9 b P B.V.8.8.O.m 5 w z v H O.z 9 w j z w w n ! | | ` C b T ",
"q.S.b.n n n B ! m q 9 < j m z z > # q j 9 w B $.B.8.z.1.M w f b F I *.B z n n n v z M ! _ T B n z P ",
">.r.I z B E ! 8.8.H b w m H H P 7 # < 9 5 9 H O.1.! ! n z z z b K O.I n z C M n F z z B 1.! C h V X.",
"C.i.P z P z.h.h.O.! n w n P P P 1 1 i z f 5 j m b b z w 9 j n H O.I P n w c c n P z 7 b P P N g C } ",
":.*.M f H k.h.1.! P n w b M M v 3 i P ! B 9 % q b b b n f w z n I n c c a z z m F v w z z 0 0 * C :.",
"q.q.P j P k.1.1.E b b f z c c 7 7 c I T Z f 9 B ` d.Z R b f w w j w z c v v v j f b b n g @ & * M { ",
"q.i.P z P z.8.8.B 9 z n z z i o - z 3.X.T g 9 ! c.m.Z R B P ! n 5 j O.P O.O.F i d B _ z.B * * 0 n I ",
"I P n w n ! *.M g n B B B m m 5 5 n P { x.g * ` c.c.d.R B P k.+.z v p.=.P M z q M 1.z.h.P 9 0 0 w C ",
"v c w $ 5 w g w w n _ R B m m w j M B Z 1.n 9 N g.f.d.x.N B 8.+.z b O.P v z i 5 P z.1.1.1.9 * 6 0 z ",
"F I n $ 5 w j w 0 z P B n f w q f n P T | n 0 n B E R P f P V.O.n 9 w z H O.H w M 1.Z.z.! w z I M K ",
"Y *.M w n M M M z 9 9 5 w d f B f b B B n f 5 w b n b g 9 n E P b < f B 1.V.O.j B O.B.z.m z K K F K ",
"P z 5 w *.O.P P H z 9 % f n B _ B q w z n b z z H n n B C c z P c 7 b P ! ! ! m M 1.D.Z.i z v c v F ",
"z j w w H P P P ! *.M w B _ s.R R w w v I *.I ! 8.8.3.z.D.M j U k 1 z H ! $.! m q m M B 7 7 3 s 8 w ",
"z H P z f z B P ! V.M 9 n _ c.f.E j z P O.I P ! O.q.3.1.{ B w c : : c P ! B z 5 > < 5 w w 7 - 3 5 5 ",
"P ! 1.B z w n 1.1.z.b 9 n B s.f.H j z F P U O.q.O.I P 3.P M 5 7 ; . 7 j m j q $ > > m *.p.U L S z 5 ",
"M P k.! m j z 1.8.1.n w z Z ` s.H i 7 c z m H F F M P C n c z j r > 7 w 5 < % < 9 q n :.:.a.I :.M w ",
"H P $.$.P i q P P O.B 9 9 n E s.c q > i j z m z j c b m n B P P S v n m 5 % > q 9 w M P O.K I q.z f ",
"F P P 1.:.i > v ! P b 9 5 d g f q 7 7 v v H P v z w 9 n 1.O.*.:.O.i.*.{ g $ < q 9 w m P q.I *.Y z m ",
"I 1.1.:.U 7 o u b f w f z z f * # 7 i K I 8.q.P P z 5 m 1.P ! 1.8.Z.3.3.M 5 w i I C z P q.Z.q.I z B ",
"I 1.$.H i > o > 9 f b H P P C f $ w v I I 1.V.O.O.M 5 w g g H ! q.1.1.X.P w M P a.I g c P q.O.M f b ",
"B B P n 8 8 a 7 j P O.! ! 3.{ g w B P *.! 8.Z.i.8.n 5 w w w c M P M ! ! C g I r.C.a.C e z z j w w w ",
"j w 0 w w c P z m 8.O.P O.z.h.b z ! I 8.$.k.V.N.i.j 8 v v i z z z z n M f z I >.Y >.P 0 f m H I C M ",
"n f 0 z M I *.M m @.P O.z.1._ B b ! ! z.k.k.V.p.I w e M c z c z z w f f $ n Y :.>.a.P g g P C P P C ",
"c u z B P D.V.m M E P $.8.8.1.M z *.1.3.z.q.i.i.! w a v n z v A S m P M z n Y t.q.Z.K t 7 i v M M M ",
", 7 v O.q.A.:.j 5 M U U U P 1.P z ! 1.1.z.D.D.8.c 7 y a z M O.@.@.i.V.1.B v M t.C.Z.F 7 r i j f z z ",
"  t P 8.>.p.I z 1 c S G G U O.H j H 1.V.z.1.$.m ; . 4 S P O.1.V.8.V.O.B M H I r.C.p.F i F O.O.! *.I ",
"8 v M M P :.O.M 7 3 3 t y k k k 7 q M P H n m w , , p U p.V.8.V.B.H z w q v I V x z i 7 F *.D.G.1.{ ",
"w z b b I *.n q > O - - 3 7 u j 7 o i v v m P H k D H p.O.$.U H M z m O.F w 8 6 5 2 2 2 K *.D.n.3.{ ",
"5 0 f b b z 5 + > 2 7 3 u F U E A 7 v O.:.O.A.A.b n P 8.H M m c F P I p.U 8 5 8 e 8 7 7 F P P Z M n ",
"g b b g 5 O # 5 8 w a w m A.H.V.U i U Z.F.V.A.:.M z c F c j P O.:.F.a.a.G 7 7 6 a a 7 > 7 5 5 0 g f ",
"T Z P P a > $ 5 a a z i n V.V.V.8.c O.V.J.S.S.1.A u r u i z q.*.a.a.a.a.c - 8 e w e 7 > $ $ 0 M P P ",
"B ! n z 8 . 3 3 w z w j B 8.V.V.k.j m 8.p.F.a.q.U 7 j D m n H Z.V.S.S.p.y - t z a x 5 5 z w % n T | ",
"B | Z b >   > 7 c n z z P V.A.V.P w f m v K O.1.F i D U P F m O.8.q.Z.p.t = 8 z a a 7 8 v i < b ! I ",
"R _ Z n < 7 i v P P m c P V.A.V.P B B B j 7 z m c z H P @.U v P :.:.i.U , = 7 5 7 7 > 5 i 5 9 M ! P ",
"R _ T n 5 v M P Y I n z P 8.A.8.n / g.h.B j H $.H B O.*.8.:.F v U F v i 7 7 c M v i i w w 5 b 1.| { ",
"P 1.1.M 7 v K I Y I n z P 8.A.@.B z.s.g.H M +.+.8.P O.q.:.i.U i 7 i m H p.U G k.V.O.P B b 9 b Z Z Z ",
"n n c 7 > s F I Y O.M z ! 8.V.+.m _ _ $.H M 8.k.z.M n H M P F u u D O.O.B.H.V.A.D.1.| T g % * * f f ",
"5 * % > - t v U >.Y M z ! O.O.D k +.k.k.H m 8.A.B.B z c z z j q u m 8.k.V.H.k.g.O.1.! ! w @ & & * * ",
"% 5 w j p 7 y K Y O.F z P H H z q m H H j j P V.V.P n M P v m M c 7 m $.+.E R _ O.V.*.I 5 X 6 e 6 5 ",
"w M M n n b f z K P v w f w 7 7 ; 1 c m j i P i.B.E M I K K F U @.M j q j d b m H H { g @ X 6 w w 8 ",
"6 C P n n P M z c z w $ 9 j i u : > c P H j D O.8.z c P K I p.p.p.P j f m j f d f f b x w 6 w e w w ",
"0 M ! M n P n 5 # * 5 5 w P H v v 7 b P J u k F M z c v Y O.Y O.U H j f H H B n f f g Z T z 0 w w w ",
"b n | | P B z 5 * 5 0 w z :.:.U F w n M D 7 7 i b P M c K K M v i i q j B B H P P N b x.n.N w f z b ",
"T g N C M z 0 $ 5 9 w w i O.i.i.P f n B M 7 i v P O.I M j c F z i 5 w B m b n b T C b | n.Z n ! z.S.",
"| d g f z g w % * 5 5 5 w H :.A.8.b b P H i S O.*.8.O.1.b c F P P w f E n j b f b b g _ c.N N 1.n.G.",
"Z d n b M P P M n n i > 7 v O.8.P b 9 n m j B P *.8.O.z.P z H O.>.z w B b f z g f f g | z.n M ! z.c.",
"n w P P P K P K P O.D 7 j H O.O.U n % 9 5 j 1.| Z.I *.8.m f *.P >.m w B m f f f z f f R x.b Z x.G.m.",
"n f M V P P *.P O.O.m q m H H $.y.m 5 0 5 m P 8.V.i.:.*.H w n P *.n f P Z n g g b z f N M r k Z c.c.",
"0 * n M I I *.H P O.v q M H H +.J z 9 w q M E 8.V.V.:.*.H w n K I z 9 n B n n N n z w b z 7 i N n n "
};
