/* XPM */
static char *result[] = {
/* columns rows colors chars-per-pixel */
"25 25 107 2 ",
"   c #4D0F37",
".  c #460C3B",
"X  c #6D1A2F",
"o  c #7B1E2A",
"O  c #681733",
"+  c #6B1937",
"@  c #432439",
"#  c #4A2E3F",
"$  c #59273B",
"%  c #48333C",
"&  c #5C3438",
"*  c #59353F",
"=  c #58383A",
"-  c #5A3A3C",
";  c #5E393F",
":  c #6A3C33",
">  c #62393B",
",  c #653C3D",
"<  c #6F3E3B",
"1  c #7C502C",
"2  c #6F4534",
"3  c #64413A",
"4  c #6D443F",
"5  c #764836",
"6  c #7B5637",
"7  c #472949",
"8  c #572C44",
"9  c #4D3644",
"0  c #4C384C",
"q  c #573544",
"w  c #573945",
"e  c #5B3F44",
"r  c #5C3E46",
"t  c #523B4A",
"y  c #5A3949",
"u  c #602B41",
"i  c #59414B",
"p  c #5A424A",
"a  c #5F474A",
"s  c #5A484E",
"d  c #584A4E",
"f  c #544351",
"g  c #5B4F5E",
"h  c #5F5159",
"j  c #654442",
"k  c #604249",
"l  c #604E4A",
"z  c #684F4E",
"x  c #744342",
"c  c #764B43",
"v  c #7A534D",
"b  c #765B4B",
"n  c #624D51",
"m  c #65565A",
"M  c #6D575C",
"N  c #725F55",
"B  c #72625A",
"V  c #5F5460",
"C  c #665560",
"Z  c #695B60",
"A  c #6E5F67",
"S  c #6E6665",
"D  c #766F6D",
"F  c #74747C",
"G  c #7F787E",
"H  c #84232C",
"J  c #952E26",
"K  c #8A3A3F",
"L  c #944E2C",
"P  c #994828",
"I  c #825437",
"U  c #885639",
"Y  c #8A553F",
"T  c #855E3F",
"R  c #955333",
"E  c #9B5B3C",
"W  c #A44624",
"Q  c #B34521",
"!  c #95642D",
"~  c #876A3A",
"^  c #966533",
"/  c #B8682C",
"(  c #A66A3B",
")  c #B4703F",
"_  c #C6491F",
"`  c #DC5A1F",
"'  c #D14722",
"]  c #D54E20",
"[  c #DA5221",
"{  c #DF5220",
"}  c #CF6422",
"|  c #C07338",
" . c #8B6144",
".. c #996A48",
"X. c #9A6E4F",
"o. c #8A7143",
"O. c #85615A",
"+. c #82685F",
"@. c #A47251",
"#. c #A57953",
"$. c #8E7063",
"%. c #967464",
"&. c #8F8D77",
"*. c #89908D",
"=. c #94979C",
"-. c #93989B",
";. c None",
/* pixels */
";.;.;.;.;.;.;.;.;.;.;.;.;.;.;.;.;.;.;.;.;.;.;.;.;.",
";.;.;.;.;.;.;.;.;.;.;.;.;.;.;.;.;.;.;.;.;.;.;.;.;.",
";.;.;.;.;.;.;.;.;.;.;.;.;.;.;.;.;.;.;.;.;.;.;.;.;.",
";.;.;.;.;.;.;.;.;.;.;.;.;.;.=.-.G Z ;.;.;.;.;.;.;.",
";.;.;.;.;.;.;.;.;.;.;.;.;.o.&.-.F g d ;.;.;.;.;.;.",
";.;.;.;.;.;.;.;.;.;.;.;.D T N *.F h f ;.;.;.;.;.;.",
";.;.;.;.;.;.;.;.;.;.;.;.;.M w e m s l ;.;.;.;.;.;.",
";.;.;.;.;.;.;.;.;.;.;.;.;.b e j m s ~ ) ;.;.;.;.;.",
";.;.;.;.;.;.;.;.;.;.;.;.;.9 = 4 a ~ ^ K ;.;.;.;.;.",
";.;.;.;.;.;.;.;.;.;.;.;.;.e 3 j 3 ^ +.A C ;.;.;.;.",
";.;.;.;.;.;.;.;.;.;.;.;.c a z 5 - 4 h S A ;.;.;.;.",
";.;.;.;.;.;.;.;.;.;.;.r x y * , ; 8 7 7 r b ;.;.;.",
";.;.;.;.;.;.;.;.;.B z m n ;., < ; ;.;.;.0  .! ;.;.",
";.;.;.;.;.;.;.;.;.< 4 n ;.@ 3 I = % ;.;.t U ;.;.;.",
";.;.;.;.;.;.;.;.;.u u ;.;.# e e w @ ;.> a T 1 ! ;.",
";.;.;.;.;.;.;.;.;.;.;.;.q z $.$...2 : $ & 6 ;.;.;.",
";.;.;.;.;.;.;.;.;.;.| ) @.#.#. .Y 5 k ;.;.;.;.;.;.",
";.;.;.;.;.[ { ` } / / ( ( ..X.%.O.4 V ;.;.;.;.;.;.",
";.;.' ] _ _ Q W P L R E v M ;.;.;.y g ;.;.;.;.;.;.",
";.H J o o X O + ;.;.;.;.i k ;.;.;.;.p ;.;.;.;.;.;.",
";.;..   ;.;.;.;.;.;.;.;.;.;.;.;.;.;.;.;.;.;.;.;.;.",
";.;.;.;.;.;.;.;.;.;.;.;.;.;.;.;.;.;.;.;.;.;.;.;.;.",
";.;.;.;.;.;.;.;.;.;.;.;.;.;.;.;.;.;.;.;.;.;.;.;.;.",
";.;.;.;.;.;.;.;.;.;.;.;.;.;.;.;.;.;.;.;.;.;.;.;.;.",
";.;.;.;.;.;.;.;.;.;.;.;.;.;.;.;.;.;.;.;.;.;.;.;.;."
};
