/* XPM */
static char *e829f5d002474138f5a3de9a3bf72d2877bi8UaAUU5PGSk3[] = {
/* columns rows colors chars-per-pixel */
"25 25 67 1 ",
"  c None",
". c #6D3916",
"X c #391B0F",
"o c #3B1D10",
"O c #3A1B10",
"+ c #391B0F",
"@ c #552711",
"# c None",
"$ c #33180F",
"% c #34170F",
"& c #3C1D10",
"* c #391B0F",
"= c #381B10",
"- c #4A2210",
"; c #3C1D10",
": c #371A0F",
"> c #381A10",
", c #4B2310",
"< c #3C1E10",
"1 c #391C10",
"2 c #3A1C10",
"3 c #3B1C10",
"4 c #391B10",
"5 c #371A0F",
"6 c #3B1C10",
"7 c #381A0F",
"8 c #37190F",
"9 c #3C1D10",
"0 c #422010",
"q c #3E1E10",
"w c #4F2D13",
"e c #4A2511",
"r c #634618",
"t c #EB811E",
"y c #CB6C1A",
"u c #673014",
"i c #703515",
"p c #AB5316",
"a c #D8741B",
"s c #622F27",
"d c #612B11",
"f c #F0831E",
"g c #783612",
"h c #8E4B16",
"j c #7C3B13",
"k c #E2791C",
"l c #B45917",
"z c #8A4214",
"x c #E77D1D",
"c c #C56719",
"v c #F2851F",
"b c #A04E15",
"n c #BA661A",
"m c #B49126",
"M c #E18E21",
"N c #EAA627",
"B c #D84CBA",
"V c #953773",
"C c #8D681E",
"Z c #F79523",
"A c #9D7F23",
"S c #855A1B",
"D c #E271D1",
"F c #A63E87",
"G c #E36FD1",
"H c #A05489",
"J c #FF73ED",
/* pixels */
"                         ",
"                         ",
"                         ",
"                         ",
"                         ",
"                         ",
"                 XX      ",
"              7%8o;+*<   ",
"             >;rAmmCw5   ",
"            7oSNNMMZne>  ",
"  &=:$$%%%$$8.tyisunv#5  ",
"  1@..####..hat.HDFith4  ",
"  +hftxvftxkkfasGJBskz+  ",
"  +uclzlbjjggba.VBV#au1  ",
"  *qgd9d@oOOo,py.s.cp,:  ",
"   ;i@3--=  XO@pyyypd;X  ",
"   O-02+4&   6O,uji@3>   ",
"   &=*X       X:Oo;26    ",
"                 X<      ",
"                         ",
"                         ",
"                         ",
"                         ",
"                         ",
"                         "
};
