/* XPM */
static char *_d6ca9f8c93e4ff7f4f5f4ca56170e0dyOhbPNb7DPGIqVTK[] = {
/* columns rows colors chars-per-pixel */
"25 25 151 2 ",
"   c None",
".  c #511E56",
"X  c #A06336",
"o  c #503A48",
"O  c #5B2A43",
"+  c #092398",
"@  c #9C592E",
"#  c #553859",
"$  c #442B4B",
"%  c #634A3E",
"&  c #684F4E",
"*  c #5F474A",
"=  c #470F40",
"-  c None",
";  c #C6491F",
":  c #755956",
">  c #BE592F",
",  c #65384F",
"<  c #574858",
"1  c #715C5A",
"2  c #732843",
"3  c #6D575C",
"4  c #5E3B40",
"5  c #A0946C",
"6  c #5B4F5E",
"7  c #866643",
"8  c #4B1E4A",
"9  c #765B4B",
"0  c #855E3F",
"q  c #5A444B",
"w  c #B4703F",
"e  c #604249",
"r  c #855242",
"t  c #593D41",
"y  c #95642D",
"u  c #5A3949",
"i  c #602B41",
"p  c #6F3E3B",
"a  c #684D40",
"s  c #5C3E46",
"d  c #5B3E55",
"f  c #653C3D",
"g  c #582E3F",
"h  c #4D3149",
"j  c #432439",
"k  c #5E393F",
"l  c #472949",
"z  c #84232C",
"x  c #B63828",
"c  c #460C3B",
"v  c #4D0F37",
"b  c #D14722",
"n  c #6D1A2F",
"m  c #D54E20",
"M  c #DC4C24",
"N  c #745748",
"B  c #681733",
"V  c #857D7C",
"C  c #DA5221",
"Z  c #6B1937",
"A  c #DF5220",
"S  c #8A7143",
"D  c #94979C",
"F  c #766F6D",
"G  c #795D4B",
"H  c #5F3A4E",
"J  c #DC5A1F",
"K  c #853D44",
"L  c #7F787E",
"P  c #584A4E",
"I  c #695B60",
"U  c #944E2C",
"Y  c #C4442B",
"T  c #CF6422",
"R  c #5A424A",
"E  c #4D3644",
"W  c #544351",
"Q  c #955333",
"!  c #BB4929",
"~  c #673C42",
"^  c #AA7E35",
"/  c #604E4A",
"(  c #765247",
")  c #72625A",
"_  c #835834",
"`  c #552B44",
"'  c #BF5C2A",
"]  c #9B5B3C",
"[  c #7C5460",
"{  c #C07338",
"}  c #764B43",
"|  c #7A534D",
" . c #4F3B4A",
".. c #665560",
"X. c #8A3A3F",
"o. c #845F34",
"O. c #744342",
"+. c #5F5460",
"@. c #967464",
"#. c #7C502C",
"$. c #7B5637",
"%. c #85615A",
"&. c #9A6E4F",
"*. c #472438",
"=. c #4A2E3F",
"-. c #59353F",
";. c #A47251",
":. c #695258",
">. c #5C3438",
",. c #A06834",
"<. c #48333C",
"1. c #523B4A",
"2. c #6F4534",
"3. c #885639",
"4. c #572C44",
"5. c #6A3C33",
"6. c #4C384C",
"7. c #62393B",
"8. c #5B3F44",
"9. c #6D443F",
"0. c #65565A",
"q. c #64413A",
"w. c #93989B",
"e. c #74747C",
"r. c #B8682C",
"t. c #5A484E",
"y. c #654442",
"u. c #573945",
"i. c #A66A3B",
"p. c #876A3A",
"a. c #5F5159",
"s. c #58383A",
"d. c #966533",
"f. c #A57953",
"g. c #8E7063",
"h. c #996A48",
"j. c #8B6144",
"k. c #6E5F67",
"l. c #764836",
"z. c #952E26",
"x. c #B34521",
"c. c #A44624",
"v. c #994828",
"b. c #8F8D77",
"n. c #725F55",
"m. c #89908D",
"M. c #5A3A3C",
"N. c #8A553F",
"B. c #82685F",
"V. c #6E6665",
"C. c #825437",
/* pixels */
"                                                  ",
"                                                  ",
"              X 1 G :                             ",
"            @ I L w.D V                           ",
"          o P 6 e.w.b.S N                         ",
"          # W a.e.m.n.0 F +                       ",
"        X ^ / t.0.8.u.3 <                         ",
"        > w p.t.0.y.8.9 #                         ",
"        a X.d.p.* 9.s.E :                         ",
"      % ..k.B.d.q.y.q.8.(                         ",
"       .k.V.a.9.M.l.& * } _ #                     ",
"  7 o.9 s l l 4.k f -.u O.s t 5                   ",
"    y j.6.8   a k p f t :.0.& ) %                 ",
"  5 ,.3.1.h   <.s.C.q.j h q 9.p ~                 ",
"7 y #.0 * 7.% j u.8.8.=.*.$ i i .                 ",
"  r 4 $.>.g 5.2.h.g.g.& g r # #                   ",
"    + ` 2 d e l.N.j.f.f.;.w { ' ! Y X             ",
"          d +.9.%.@.&.h.i.i.r.r.T J A C M > @     ",
"          < 6 u [ 5 1 3 | ] Q U v.c.x.; ; m b x   ",
"          4 R $     o e q O , K 2 Z B n - - z.z O ",
"          , O o       $ H ,       + . 8 = v c = . ",
"                                                  ",
"                                                  ",
"                                                  ",
"                                                  "
};
