/* XPM */
static char *_b84c1a6f7da413edce33f67c8246966P8QXXMmtZ8BiXvMu[] = {
/* columns rows colors chars-per-pixel */
"25 25 19 1 ",
"  c #828375",
". c #747367",
"X c #7A7A6C",
"o c #77766A",
"O c #848777",
"+ c #7D7D6F",
"@ c #6F7161",
"# c #87897A",
"$ c #6D6C5F",
"% c #8A8C7D",
"& c #656955",
"* c #6F7660",
"= c #757A66",
"- c #7E8170",
"; c #787D6A",
": c #636352",
"> c #8E9181",
", c #807F74",
"< c #677056",
/* pixels */
"%X.@@&**&$.#>%.@+X$@$,#X.",
">-+ X$==:&& % @. -.Xo;OX+",
"%XO%O.X+<o$@o.$o-=.oX@o$,",
"%XO%X..<<O..#,Xo@;-oo,$:+",
",$.o.,X@. X.% ,#=O-@ %.:.",
" @@.@.$@.,o$XooO@.OX %XX+",
"o$- ,$o o.++  +;@X#+= @**",
",,. %.+#;= ###,@&*X&:o;*&",
" #oX#..,*<o;X++X*@::&-#O.",
" #=&X$$$:* -.@ #%#$&.+%#o",
" -<&.- o$ %>-$@+ OX %o+X@",
"@$X+-#%,X#%>+@o...@#%=.,+",
"<+%-=O# +%>>**X-  X#>=*=o",
"<-%+&*;;* O;<;#%#;= -*-%O",
"$.X&:&*;<;OO=OO-- =&&&-O,",
"oo&:$@ >-#>>=*oO>>*&@&:$o",
" X:&.@O>+;##==+O>><<@&$@ ",
" +&X =#>, =+;O#-O-<**<$o ",
"+*@ OXO% #-#O O=* %%%,$$.",
":&<;#; ;= =%#XX=* %#% :::",
".XX.o$$<&X=O + %O@..oo:$$",
". +$::X *X=*;X  =@+Xo++$@",
"oo.::&;>+X=;O o+@oo.o, ,%",
".X,-+<=#+$@O%%X +oo$$X, >",
"$X OO*;O-&@#>%o++.X...*X "
};
