/* XPM */
static char *result[] = {
/* columns rows colors chars-per-pixel */
"25 25 52 1 ",
"  c #5E1C04",
". c #7D1E00",
"X c #6E2B0E",
"o c #7B2B0B",
"O c #6C3A1A",
"+ c #394D33",
"@ c #3B4C33",
"# c #3A4D33",
"$ c #3C4C33",
"% c #394E34",
"& c #3A5036",
"* c #3C5035",
"= c #3F5639",
"- c #534528",
"; c #5C472B",
": c #5D4B2B",
"> c #454930",
", c #444C32",
"< c #4E4A32",
"1 c #4F5334",
"2 c #415A3C",
"3 c #445B3C",
"4 c #6A4429",
"5 c #614E2F",
"6 c #77452B",
"7 c #655936",
"8 c #811F00",
"9 c #882201",
"0 c #822C0B",
"q c #902603",
"w c #9B2400",
"e c #873314",
"r c #9C3816",
"t c #933719",
"y c #AA2701",
"u c #AD2800",
"i c #AE2B02",
"p c #AC3A0E",
"a c #B03008",
"s c #B23710",
"d c #B53C19",
"f c #883F2F",
"g c #9F421B",
"h c #B7411B",
"j c #9D4723",
"k c #B64A22",
"l c #BC5323",
"z c #AD5A31",
"x c #CF7133",
"c c #CE7F47",
"v c #D57D45",
"b c None",
/* pixels */
"bbbbbbbbbb+@,@+bbbbbbbbbb",
"bbbbbbbb#<,6d>,,3bbbbbbbb",
"bbbbbbb$,f;;f>f4*3bbbbbbb",
"bbbbbb$<<,<:;-->;=3bbbbbb",
"bbbbb#**16tte00O>*23bbbbb",
"bbbbb%*1e8errt8.0-*2bbbbb",
"bbbb+*1e.wadddsw.0,=3bbbb",
"bbbb@=48wuusdhdsw8O*3bbbb",
"bbbb%109uuaggjkda9o,2bbbb",
"bbbb&19wuupX Xkddy8-2bbbb",
"bbbb&:9yuuirXghdds9-2bbbb",
"bbbb&:9yuuuipsddhlg;=bbbb",
"bbbb&:9yuuuuuisdkvc7=bbbb",
"bbbb&:9yuuuuuuaddkj:=bbbb",
"bbbb&:9dsuuuuuidddt;=bbbb",
"bbbb&:qxxauuuuusddt;2bbbb",
"bbbb&:9lliuuuuuaddt;2bbbb",
"bbbb&:9ppuuuuuuiddt;2bbbb",
"bbbb&:9gguuuuuuusdt:2bbbb",
"bbbb&:9ppuuuuuuuahg:2bbbb",
"bbbb&;9yuuuuuuuusvc72bbbb",
"bbbb&;9yuuuuuuuualz72bbbb",
"bbbb%;9yuuuuuuuuust:2bbbb",
"bbbb%;.88888888880e52bbbb",
"bbbb%:qqqqqqqqqqqqr52bbbb"
};
