/* XPM */
static char *c045923af41f4bae8ccd7896690029e1BgFSpvVjWkDpXzlf[] = {
/* columns rows colors chars-per-pixel */
"25 25 10 1 ",
"  c #3A2034",
". c #331B32",
"X c #311931",
"o c #382036",
"O c #3B2239",
"+ c #2E1A4D",
"@ c #2D1831",
"# c #351D32",
"$ c #3A2034",
"% c #402638",
/* pixels */
"o                %%%%   O",
".$$#+#$$$$#####+$$$$$$$#.",
"#$#++++++@@+++@@#%%%$$$#+",
"$%$#++++++@@#$@@+#%%%%%%#",
"#$#++$$##++@++@@++#$$$$$+",
"++@@+$%%%$#+++@@@@@++++@@",
"@@+$$###++@@@@@++@@@@@@@+",
"++$%%#@@@@@+#########++##",
"@+#++++##++######++#++@++",
"@@@@@#$$$#+@@+++@@@@@@@@@",
"@@@@@@@#$$$#++#+@@@@@@@@@",
"+@+##@@@+#$$$$#@@@+##++@+",
"#$$$$#@@@@@+++@@+#$%%%%$#",
"#$####@+##+++@@@+++#$$$#+",
"+##+@@+%%%$$#@@@@@@++###+",
"@@@++++#$$##+@#++#+@@+@@+",
"++##+++@@+##++$$#$%$+++++",
"#$$$##++@@##++$%$##$$$$$#",
"#$$$$$#++@+++@+$$%#+#$$$#",
"+#$##%$$$##$#+@+$$$$$##$+",
"+##@+%%%%%%$$#@@+#+#####+",
"++@@+$%%%%$$#+@@+@@@@@++@",
"+#+@@#$$$##++@@@####+#$#X",
".#++++#+++@@@@@@#$$$####.",
"o.X++++++++++++++++++++Xo"
};
