/* XPM */
static char *result[] = {
/* columns rows colors chars-per-pixel */
"50 50 173 2 ",
"   c #382A00",
".  c #3C2E01",
"X  c #3D2F02",
"o  c gray14",
"O  c #292526",
"+  c #2F2A24",
"@  c #2E2B24",
"#  c #2E2A27",
"$  c #2E2528",
"%  c #2D2D2D",
"&  c #372D24",
"*  c #362C2A",
"=  c #372D2C",
"-  c #352F2F",
";  c #323226",
":  c #34312C",
">  c #35322D",
",  c #3C332A",
"<  c #3C382F",
"1  c #3F382E",
"2  c #3D3A2E",
"3  c #373631",
"4  c #383431",
"5  c #3C3934",
"6  c #3C3835",
"7  c #3D3936",
"8  c #3F3C37",
"9  c #3E3D3B",
"0  c #402F01",
"q  c #462B0D",
"w  c #443000",
"e  c #473706",
"r  c #4B2C17",
"t  c #473312",
"y  c #4A3A20",
"u  c #40392F",
"i  c #443A2E",
"p  c #443A31",
"a  c #413E35",
"s  c #453B3A",
"d  c #453D3A",
"f  c #493E38",
"g  c #4A3F39",
"h  c #3F4032",
"j  c #544200",
"k  c #7C661A",
"l  c #41403C",
"z  c #44413C",
"x  c #46413D",
"c  c #47443F",
"v  c #4C453B",
"b  c #5D4D36",
"n  c #625737",
"m  c #7D6C24",
"M  c #493F40",
"N  c #4E4541",
"B  c #4C4741",
"V  c #4C4940",
"C  c #4E4946",
"Z  c #534747",
"A  c #524F48",
"S  c #524F4A",
"D  c #524D4D",
"F  c #505245",
"G  c #5A5047",
"H  c #56564E",
"J  c #5A5551",
"K  c #5A5A50",
"L  c #5C5855",
"P  c #5B5B5B",
"I  c #6C5148",
"U  c #615B4D",
"Y  c #64584C",
"T  c #625B53",
"R  c #605C56",
"E  c #635F56",
"W  c #645F59",
"Q  c #736A4B",
"!  c #6F6655",
"~  c #696059",
"^  c #75695B",
"/  c #706E5F",
"(  c #676360",
")  c #686765",
"_  c #746963",
"`  c #726E63",
"'  c #726964",
"]  c #716E69",
"[  c #7A6F69",
"{  c #777066",
"}  c #7C7062",
"|  c #7A7466",
" . c #77726C",
".. c #76726F",
"X. c #77746D",
"o. c #7A7168",
"O. c #7A7369",
"+. c #747371",
"@. c gray46",
"#. c #7C7C7C",
"$. c #837866",
"%. c #8E7E64",
"&. c #80766C",
"*. c #84786C",
"=. c #A39733",
"-. c #B1935F",
";. c #BDB145",
":. c #958564",
">. c #8C887F",
",. c #918473",
"<. c #908277",
"1. c #93857A",
"2. c #9E8E7F",
"3. c #A38E7B",
"4. c #AB9C7F",
"5. c #CDBA53",
"6. c #CAB564",
"7. c #D7C154",
"8. c #DFD35B",
"9. c #E3D453",
"0. c gray53",
"q. c #8C8B8C",
"w. c #928686",
"e. c #908C89",
"r. c #918D8A",
"t. c #9B9484",
"y. c #9D9485",
"u. c #93908B",
"i. c #9B9188",
"p. c #9E9188",
"a. c #9A988B",
"s. c #9D9D93",
"d. c #A59989",
"f. c #A69989",
"g. c #A6988B",
"h. c #A6988D",
"j. c #AB988A",
"k. c #A49592",
"l. c #AAA192",
"z. c #A8A197",
"x. c #ABA396",
"c. c #ADA894",
"v. c #A6A69F",
"b. c #AAA19C",
"n. c #AAA39D",
"m. c #AEA79D",
"M. c #B2A595",
"N. c #B2A499",
"B. c #B5A79A",
"V. c #B7A99C",
"C. c #B8A899",
"Z. c #BAAA9B",
"A. c #B1A3A0",
"S. c #BCAEA1",
"D. c #B8ADA7",
"F. c #BDB0A0",
"G. c #BAB0A4",
"H. c #BCB7A4",
"J. c #BAB3A9",
"K. c #B9B5AC",
"L. c #BAB7AE",
"P. c #C5BAB8",
"I. c #C6C2B6",
"U. c #CEC7BF",
"Y. c #CFCAC4",
"T. c #CDCDCD",
"R. c #D1C8CC",
"E. c #D1CDCD",
"W. c #D1D0CB",
"Q. c gray82",
"!. c #DCD9D4",
"~. c #E4E3DF",
"^. c None",
/* pixels */
"^.^.^.^.^.^.^.^.^.^.^.^.^.^.^.^.^.^.^.^.^.^.^.^.^.^.^.^.^.^.^.^.^.^.^.^.^.^.^.^.^.^.^.^.^.^.^.^.^.^.",
"^.^.^.^.^.^.^.^.^.^.^.^.^.^.^.^.^.^.^.^.^.^.^.^.^.^.^.^.^.^.^.^.^.^.^.^.^.^.^.^.^.^.^.^.^.^.^.^.^.^.",
"^.^.^.^.^.^.^.^.^.^.^.^.^.^.^.^.^.^.^.^.^.^.^.^.^.^.^.^.^.^.^.^.^.^.^.^.^.^.^.^.^.^.^.^.^.^.^.^.^.^.",
"^.^.^.^.^.^.^.^.^.^.^.^.^.^.^.^.^.^.^.^.^.^.^.^.^.^.^.^.^.^.^.^.^.^.^.^.^.^.^.^.^.^.^.^.^.^.^.^.^.^.",
"^.^.^.^.^.^.^.^.^.^.^.^.^.^.^.^.^.^.^.^.^.^.^.^.^.^.^.^.^.^.^.^.^.^.^.^.^.^.^.^.^.^.^.^.^.^.^.^.^.^.",
"^.^.^.^.^.^.^.^.^.^.^.^.^.^.^.^.^.^.^.^.^.^.^.^.^.^.^.^.^.^.^.^.^.^.^.^.^.^.^.^.^.^.^.^.^.^.^.^.^.^.",
"^.^.^.^.^.^.^.^.^.^.^.^.^.^.^.^.^.^.^.^.^.^.^.^.^.^.^.^.^.^.^.^.^.^.^.^.^.^.^.^.^.^.^.^.^.^.^.^.^.^.",
"^.^.^.^.^.^.^.^.^.^.^.^.^.^.^.^.^.^.^.^.^.^.^.^.^.^.^.^.^.^.^.^.^.^.^.^.^.^.^.^.^.^.^.^.^.^.^.^.^.^.",
"^.^.^.^.^.^.^.^.^.^.^.^.^.^.^.^.^.^.^.^.^.^.^.^.^.^.^.^.^.^.^.^.^.^.^.^.^.^.^.^.^.^.^.^.^.^.^.^.^.^.",
"^.^.^.^.^.^.^.^.^.^.^.^.^.^.^.^.^.^.^.^.^.^.^.^.^.^.^.^.^.^.^.^.^.^.^.^.^.^.^.^.^.^.^.^.^.^.^.^.^.^.",
"^.^.^.^.^.^.^.^.^.^.^.^.^.^.^.^.^.^.^.^.^.^.^.^.^.^.^.^.^.^.^.^.^.^.^.^.^.^.^.^.^.^.^.^.^.^.^.^.^.^.",
"^.^.^.^.^.^.^.^.^.^.^.^.^.^.^.^.^.^.^.^.^.^.^.^.^.^.^.^.^.^.^.^.^.^.^.^.^.^.^.^.^.^.^.^.^.^.^.^.^.^.",
"^.^.^.^.^.^.^.^.^.^.^.^.^.^.^.^.^.^.^.^.^.^.^.^.^.^.^.^.^.^.^.^.^.^.^.^.^.^.^.^.^.^.^.^.^.^.^.^.^.^.",
"^.^.^.^.^.^.^.^.^.^.^.^.^.^.^.^.^.^.^.^.^.^.^.^.^.^.^.^.^.^.^.^.^.^.^.^.^.^.^.^.^.^.^.^.^.^.^.^.^.^.",
"^.^.^.^.^.^.^.^.^.^.^.^.^.^.^.^.^.^.^.^.^.^.^.^.^.^.^.^.^.^.^.^.^.^.^.^.^.^.^.^.^.^.^.^.^.^.^.^.^.^.",
"^.^.^.^.^.^.^.^.^.^.^.^.^.^.^.^.^.^.^.^.^.^.^.^.^.^.^.^.^.^.^.^.^.^.^.^.^.^.^.^.^.^.^.^.^.^.^.^.^.^.",
"^.^.^.^.^.^.^.^.^.^.^.^.^.^.^.^.^.^.^.^.^.^.^.^.^.^.^.^.^.^.^.^.^.^.^.^.^.^.^.^.^.^.^.^.^.^.^.^.^.^.",
"^.^.^.^.^.^.^.^.^.^.^.^.^.^.^.^.^.^.^.^.^.^.^.^.^.^.^.^.^.^.^.^.^.^.^.^.^.^.^.^.^.^.^.^.^.^.^.^.^.^.",
"^.^.^.^.^.^.^.^.^.^.^.^.^.^.^.q.D ^.^.^.^.^.^.^.^.^.^.^.^.^.^.^.^.^.^.^.^.^.^.^.^.^.^.^.^.^.^.^.^.^.",
"^.^.^.^.^.^.^.^.^.^.^.^.^.^.^.4 ' g N ^.^.^.^.^.^.^.^.^.^.^.^.^.^.^.^.^.^.^.^.^.^.^.^.^.^.^.^.^.^.^.",
"^.^.^.^.^.^.^.^.^.^.^.^.^.^.@.c l.F.[ d R ^.^.^.^.^.^.^.^.^.^.^.^.^.^.^.^.^.^.^.^.^.^.^.^.^.^.^.^.^.",
"^.^.^.^.^.^.^.^.^.^.^.^.^.^.0.: y.d.D.b.` h ^.^.^.^.^.^.^.^.^.^.^.^.^.^.^.^.^.^.^.^.^.^.^.^.^.^.^.^.",
"^.^.^.^.^.^.^.^.^.^.^.^.^.^.#.l W v ~ z.H.c.U 2 ^.^.^.A 7 3 ; F s.^.^.^.^.^.^.^.^.^.^.^.^.^.^.^.^.^.",
"^.^.^.^.^.^.^.^.^.^.^.^.^.^.o ) 6 x + { | t.G.i.G & p o.n.U.I.a.V H W.^.^.^.^.^.^.^.^.^.^.^.^.^.^.^.",
"^.^.^.^.^.^.^.^.^.^.^.^.^.^.P % 9 +.4 C $ = _ p.V.M.B.S.g.<.k.P.Y.X.z ~.^.^.^.^.^.^.^.^.^.^.^.^.^.^.",
"^.^.^.^.^.^.^.^.^.^.^.^.^.^.^.^.^.^.# O ^.^.* i ^ f.Z.%.. e t b x.L.S e.^.^.^.^.^.^.^.^.^.^.^.^.^.^.",
"^.^.^.^.^.^.^.^.^.^.^.^.^.^.^.^.^.^.^.^.^.^.^./ u &.C.X =.8.5.j Q K.] L ^.^.^.^.^.^.^.^.^.^.^.^.^.^.",
"^.^.^.^.^.^.^.^.^.^.^.^.^.^.^.^.^.^.^.^.^.^.^.^.a T h.  ;.9.7.k n m. .( ^.^.^.^.^.^.^.^.^.^.^.^.^.^.",
"^.^.^.^.^.^.^.^.^.^.^.^.^.^.^.^.^.^.^.^.^.^.^.^.K J A.y m 6.-.q ,.J.B u.^.^.^.^.^.^.^.^.^.^.^.^.^.^.",
"^.^.^.^.^.^.^.^.^.^.^.^.^.^.^.^.^.^.^.^.^.^.^.^.v.- w.2.0 w r I N.O.< !.^.^.^.^.^.^.^.^.^.^.^.^.^.^.",
"^.^.^.^.^.^.^.^.^.^.^.^.^.^.^.^.^.^.^.^.^.^.^.^.^.M Z 1.4.:.3.j.*.1 >.^.^.^.^.^.^.^.^.^.^.^.^.^.^.^.",
"^.^.^.^.^.^.^.^.^.^.^.^.^.^.^.^.^.^.^.^.^.^.^.^.^.R.s f ! $.} Y , E ^.^.^.^.^.^.^.^.^.^.^.^.^.^.^.^.",
"^.^.^.^.^.^.^.^.^.^.^.^.^.^.^.^.^.^.^.^.^.^.^.^.^.^.E...> @ 5 8 r.^.^.^.^.^.^.^.^.^.^.^.^.^.^.^.^.^.",
"^.^.^.^.^.^.^.^.^.^.^.^.^.^.^.^.^.^.^.^.^.^.^.^.^.^.^.^.^.T.Q.^.^.^.^.^.^.^.^.^.^.^.^.^.^.^.^.^.^.^.",
"^.^.^.^.^.^.^.^.^.^.^.^.^.^.^.^.^.^.^.^.^.^.^.^.^.^.^.^.^.^.^.^.^.^.^.^.^.^.^.^.^.^.^.^.^.^.^.^.^.^.",
"^.^.^.^.^.^.^.^.^.^.^.^.^.^.^.^.^.^.^.^.^.^.^.^.^.^.^.^.^.^.^.^.^.^.^.^.^.^.^.^.^.^.^.^.^.^.^.^.^.^.",
"^.^.^.^.^.^.^.^.^.^.^.^.^.^.^.^.^.^.^.^.^.^.^.^.^.^.^.^.^.^.^.^.^.^.^.^.^.^.^.^.^.^.^.^.^.^.^.^.^.^.",
"^.^.^.^.^.^.^.^.^.^.^.^.^.^.^.^.^.^.^.^.^.^.^.^.^.^.^.^.^.^.^.^.^.^.^.^.^.^.^.^.^.^.^.^.^.^.^.^.^.^.",
"^.^.^.^.^.^.^.^.^.^.^.^.^.^.^.^.^.^.^.^.^.^.^.^.^.^.^.^.^.^.^.^.^.^.^.^.^.^.^.^.^.^.^.^.^.^.^.^.^.^.",
"^.^.^.^.^.^.^.^.^.^.^.^.^.^.^.^.^.^.^.^.^.^.^.^.^.^.^.^.^.^.^.^.^.^.^.^.^.^.^.^.^.^.^.^.^.^.^.^.^.^.",
"^.^.^.^.^.^.^.^.^.^.^.^.^.^.^.^.^.^.^.^.^.^.^.^.^.^.^.^.^.^.^.^.^.^.^.^.^.^.^.^.^.^.^.^.^.^.^.^.^.^.",
"^.^.^.^.^.^.^.^.^.^.^.^.^.^.^.^.^.^.^.^.^.^.^.^.^.^.^.^.^.^.^.^.^.^.^.^.^.^.^.^.^.^.^.^.^.^.^.^.^.^.",
"^.^.^.^.^.^.^.^.^.^.^.^.^.^.^.^.^.^.^.^.^.^.^.^.^.^.^.^.^.^.^.^.^.^.^.^.^.^.^.^.^.^.^.^.^.^.^.^.^.^.",
"^.^.^.^.^.^.^.^.^.^.^.^.^.^.^.^.^.^.^.^.^.^.^.^.^.^.^.^.^.^.^.^.^.^.^.^.^.^.^.^.^.^.^.^.^.^.^.^.^.^.",
"^.^.^.^.^.^.^.^.^.^.^.^.^.^.^.^.^.^.^.^.^.^.^.^.^.^.^.^.^.^.^.^.^.^.^.^.^.^.^.^.^.^.^.^.^.^.^.^.^.^.",
"^.^.^.^.^.^.^.^.^.^.^.^.^.^.^.^.^.^.^.^.^.^.^.^.^.^.^.^.^.^.^.^.^.^.^.^.^.^.^.^.^.^.^.^.^.^.^.^.^.^.",
"^.^.^.^.^.^.^.^.^.^.^.^.^.^.^.^.^.^.^.^.^.^.^.^.^.^.^.^.^.^.^.^.^.^.^.^.^.^.^.^.^.^.^.^.^.^.^.^.^.^.",
"^.^.^.^.^.^.^.^.^.^.^.^.^.^.^.^.^.^.^.^.^.^.^.^.^.^.^.^.^.^.^.^.^.^.^.^.^.^.^.^.^.^.^.^.^.^.^.^.^.^.",
"^.^.^.^.^.^.^.^.^.^.^.^.^.^.^.^.^.^.^.^.^.^.^.^.^.^.^.^.^.^.^.^.^.^.^.^.^.^.^.^.^.^.^.^.^.^.^.^.^.^.",
"^.^.^.^.^.^.^.^.^.^.^.^.^.^.^.^.^.^.^.^.^.^.^.^.^.^.^.^.^.^.^.^.^.^.^.^.^.^.^.^.^.^.^.^.^.^.^.^.^.^."
};
