/* XPM */
static char *_646d40b2dd54b0dfaf48b3c0f517a1680oCuY9ZD1RpbBNG[] = {
/* columns rows colors chars-per-pixel */
"50 50 47 1 ",
"  c #2F1B18",
". c #65342E",
"X c #442420",
"o c #381F1B",
"O c #3D211D",
"+ c #341D1A",
"@ c #010101",
"# c #4C4C4C",
"$ c #5A2F29",
"% c #60322C",
"& c #151414",
"* c #4E2924",
"= c #532C26",
"- c #353535",
"; c #222222",
": c #1D1C1B",
"> c #110D0C",
", c #492722",
"< c #535353",
"1 c #5A5A5A",
"2 c #3F3F3F",
"3 c gray3",
"4 c gray23",
"5 c gray27",
"6 c #2C201E",
"7 c #2D2D2D",
"8 c #282828",
"9 c gray19",
"0 c #38271E",
"q c #281A18",
"w c #6D3831",
"e c #626161",
"r c #211615",
"t c #4A3823",
"y c #A07B45",
"u c #785C35",
"i c #784935",
"p c #3F3026",
"a c #614D2E",
"s c #966F40",
"d c #B38A4B",
"f c #88613B",
"g c #58472D",
"h c #8B6A3C",
"j c #4E3E26",
"k c #67412E",
"l c #726044",
/* pixels */
"33@3>&>3@@@333@@333@3>&&&333333@@33>&&&>33@@3@@333",
"3&;799-9;;;79978877;;8--998;778;;88;;888;::::&&&>3",
"38<11<ee<551ee1<<11<5#1<<1<#<1<##<#24255244-9777&@",
"39e11e1<#5#<1e<#<ee1#5#<1e1<1ee111#55244224--977&@",
">-111e<###<<<<<##<<5---2555225###<###54425244-97&@",
"&9<111##<111<5<#447:&:;;;;;;:&:89-5###54255244-7&3",
">9ee1##<ee1#2429;::rrqq::  qrrr::;942##5252224-7&@",
">-ee<#<1e1#4--8:r&r    q:oo    r&r:8-2##55222247&3",
"&4e1<<1<#24--8:rqq o  +q:,Xoo+  qqr:8-4##5524229:&",
">-ee1<<#2-98;:rq  oXo oq6==XO+  + qr:;8252222529:>",
"371ee<#2-7;r&rq  qo*O oq6$%*O+ oo  qr&:7---42529:>",
"@;<1ee#-9;rqqq++ qo*Xooq6$%*O+ XX   qqq:;9--9--7:&",
"@81ee<298:rq  +++ o,XOX66$%*,o X,+  + qr:;7-99--:>",
"371e1598;q    oOo o*XO*66%%**X+X,O+ o+  rr;9----:3",
"@8<<54;:q+++  XXo O%,O*66ww**Xo,*,O+oXX+qq:;-249:&",
"@81<48:r OOo +,,o X.,O,66ww=$*O*$=XoO,,+  r;424-;&",
"@7e14:r o,,O++,,o+,.*O*66ww=%=O$%=OO*=,+ o 05244;&",
"@8<#-&r o,*,OO$$,O,.=*%06ww=.=O$.=OO$$,+oX+p<5428&",
"@8<<4&r+O*==XO%%*O,.$$.06ww=%=O$%=X,..=oO,+p15-48&",
"371e5>rO*%%=XO%%*O,.$=.06ww=%=O$.=*=.w%XX*+-e577;&",
">-11->rO*%.%,O%.%*=.$=.06ww=%$,$.%==.w.*=$O-e#97:&",
"&-1<9&o=*$..*X$w.==.==.06ww=%%*%..==...$$.=ge#-7:&",
"&-1<-:ga$%ww$=.w.$$.$$.06wwww%=%ww$=.ww..wile#-7:3",
">9<#-;gufhssshssffffuuutpfsffhhsssfffffffuule#4-:3",
"38#27;juydddddddyyyyshhgjydhsydddddyyyyshhua1#2-:3",
"3;4-;:pgaaauufuuuuuaaagtjshaauuufuuuuuuaggga1#29:3",
"3:9-8:0tp0ptttttttpp0pp6pikppptttttttttppppge#47:>",
"@&9-8&60   o+  +o+     r6%$OOo  +o+  +o +O02e#-9;&",
"@&--;>r  q+XOqq oXO  + r6$$,,O  OXo +++ o,op<#2-;&",
"@:4-;>r o +,O  oX*,+OO+r6%.$=X++O*O +OO O*op<<52;>",
"3;528>ro,O+,O +X*=,o,,Oq6ww.=XooX*O oX,+O*Ote1#5;3",
"@;#57>rX$,o,X++X*$=O,*,66wi.=XoX*$,oX*,oO,Ot11<#83",
"@8<#9&r,.=X=,oO,$.$OX==66ww.=,X*%.*X*==X,=Op<<##83",
"371#9&q,.$=%*O,$.w$OX$%06ww.=**%..$**$%=$%Xp#52#;@",
"@71<-:tk.%$.=X,=..$X*%.06%w.$$$%..%$$%.$%.ka<52#8@",
"@8114:guiiiiikkkiiikkiip0kiiiiiiiiiiiiiiiiul152#8>",
"38<e#8juhyddddyyyyyyshhgtyysyyddddyyyyyyyhua<2458&",
"38#15;tauhsyyysssshhuuujjyyufhyyyysfffhhfuag#2-48&",
"3;5<2:pjttjgagagaagttttptfuttjgaaajtjttttttg#49-;&",
"&;21#;0p0O00000000o66o6q6k%0oo0000000o6++o0j#49-;>",
">;415;60,*,XOOXXXXXXXXX66%%,XXXXX,,,*,XXXX0p#499:3",
"3:4#4:q,%...$*%........06ww..............%Xp#477&@",
"&;45-&qX=$$.=X%w.%$$..$66ww$..$..$%.$%.$%.Xp5477&3",
"&;429&qO**=.*O%.%*,*%%,66ww=$$=$$,=%=$.*=$O02-87:>",
"3:447&ro**=.*O%%*OO*%$Oq6ww****=,O,**$%XX*o029;7:&",
"3:449:qo*,,=,O==O++X==Oq6%$X,,X,,+oXX*=ooO+047;;&>",
">:--7;qo,Oo,XoXXo  oXXoq6%=oXXoXX +ooXX+ + 0-7;;&>",
"&;78:&qoo+ o+  ++  ooo r6$* o+ oo ++ +o   q6-8;;:&",
">&:&&>>>>>>>>>>>>>>>>>>>>rr>>>>>>>>>>>>>>>>&;:&:&>",
"3>&>33@@@@@@@@@@@@@@@@@@@@@@@@@@@@@@@@@@@@@3&>>&>3"
};
