/* XPM */
static char *result[] = {
/* columns rows colors chars-per-pixel */
"50 50 225 2 ",
"   c #07081D",
".  c #2C1C1D",
"X  c #0B0B26",
"o  c #110E28",
"O  c #141225",
"+  c #1D1525",
"@  c #16162F",
"#  c #1A152B",
"$  c #16182D",
"%  c #1C192D",
"&  c #1F1C27",
"*  c #0F1232",
"=  c #131532",
"-  c #141934",
";  c #1B1B34",
":  c #171B39",
">  c #1A1D39",
",  c #231A2B",
"<  c #261B25",
"1  c #241E31",
"2  c #201F3E",
"3  c #311F2D",
"4  c #1C223C",
"5  c #1F2035",
"6  c #2C2129",
"7  c #372627",
"8  c #23243D",
"9  c #2D2B3A",
"0  c #252536",
"q  c #332A3C",
"w  c #392A37",
"e  c #36303D",
"r  c #40151E",
"t  c #4C1C23",
"y  c #4C1B2E",
"u  c #561B28",
"i  c #4E242B",
"p  c #492D2D",
"a  c #442829",
"s  c #57242A",
"d  c #44283A",
"f  c #582934",
"g  c #453233",
"h  c #4B3232",
"j  c #4A373A",
"k  c #583537",
"l  c #5D3E29",
"z  c #632A33",
"x  c #643A3E",
"c  c #67452B",
"v  c #1D2440",
"b  c #242642",
"n  c #242945",
"m  c #2A2B46",
"M  c #2A2D4B",
"N  c #25284B",
"B  c #3B2E43",
"V  c #2E324A",
"C  c #32324D",
"Z  c #3B3646",
"A  c #2D3453",
"S  c #313553",
"D  c #343955",
"F  c #363B59",
"G  c #3B3E5A",
"H  c #3C3A51",
"J  c #262F56",
"K  c #393F61",
"L  c #463B4B",
"P  c #583F42",
"I  c #3D425C",
"U  c #3E4354",
"Y  c #3D4668",
"T  c #3D4973",
"R  c #3C4774",
"E  c #474048",
"W  c #584848",
"Q  c #444556",
"!  c #43435B",
"~  c #464858",
"^  c #5C5155",
"/  c #66494A",
"(  c #784A4C",
")  c #6D5B47",
"_  c #704C50",
"`  c #615151",
"'  c #7A5A5C",
"]  c #6F5350",
"[  c #454A65",
"{  c #424B6B",
"}  c #464763",
"|  c #4E5268",
" . c #575868",
".. c #444D72",
"X. c #5B5B74",
"o. c #504E63",
"O. c #665B65",
"+. c #7B5962",
"@. c #6D646D",
"#. c #666975",
"$. c #696979",
"%. c #7A6D78",
"&. c #7E7479",
"*. c #776D6E",
"=. c #8D5D5B",
"-. c #8B635B",
";. c #8C5C64",
":. c #997565",
">. c #8C7B7D",
",. c #887679",
"<. c #967B79",
"1. c #8F6E67",
"2. c #9C837C",
"3. c #B09174",
"4. c #666B80",
"5. c #777988",
"6. c #7F7F97",
"7. c #887E96",
"8. c #7C8296",
"9. c #7D848E",
"0. c #8A888A",
"q. c #988488",
"w. c #868999",
"e. c #938D96",
"r. c #8C929C",
"t. c #91949A",
"y. c #9D9C9C",
"u. c #999698",
"i. c #92918F",
"p. c #A58E8B",
"a. c #B68F88",
"s. c #BA9A87",
"d. c #B39D95",
"f. c #A09291",
"g. c #AEA09F",
"h. c #B8A499",
"j. c #ADA08D",
"k. c #8994A9",
"l. c #9C9CA4",
"z. c #9E9DAB",
"x. c #9999A7",
"c. c #919EB2",
"v. c #818CA2",
"b. c #A29EAB",
"n. c #A49AA2",
"m. c #9CA3AE",
"M. c #9BA1A8",
"N. c #95A1B5",
"B. c #9BA5B4",
"V. c #95A2B9",
"C. c #99A6B9",
"Z. c #9DAABB",
"A. c #A2A1AD",
"S. c #AAA6A7",
"D. c #B6A6A8",
"F. c #ABACB3",
"G. c #A2ACBD",
"H. c #A2A7B4",
"J. c #ACB2BE",
"K. c #A6B1BD",
"L. c #B3B3BC",
"P. c #BCB2BC",
"I. c #B9B7B8",
"U. c #CB9D87",
"Y. c #C3A78D",
"T. c #C4AA96",
"R. c #D8A694",
"E. c #D0B29F",
"W. c #CAAEA2",
"Q. c #CBB3A8",
"!. c #D4B8AB",
"~. c #C9B9B6",
"^. c #D0B9B1",
"/. c #E4B9A9",
"(. c #D6C3A9",
"). c #D2C0BC",
"_. c #E6C6BA",
"`. c #9EADC3",
"'. c #A5B1C2",
"]. c #ABB4C2",
"[. c #AEB9C4",
"{. c #ABBACF",
"}. c #B2BAC4",
"|. c #BABBC3",
" X c #B4BCCB",
".X c #BABECB",
"XX c #B8B6C2",
"oX c #AFBED1",
"OX c #ACB6C9",
"+X c #BCC3CE",
"@X c #B7C0CF",
"#X c #B7C4D6",
"$X c #C9CACB",
"%X c #CBC1C5",
"&X c #D7C8C7",
"*X c #C4CAD4",
"=X c #CBCBD6",
"-X c #C1CDDD",
";X c #CACDDB",
":X c #C1C6D3",
">X c #CCD2DB",
",X c #C6D0DC",
"<X c #D3D5DD",
"1X c #D4D6D8",
"2X c #D9D2D7",
"3X c #E6DBDD",
"4X c #C6D2E2",
"5X c #CFD7E6",
"6X c #CFD9E2",
"7X c #DADDE5",
"8X c #D6DCE6",
"9X c #DBE1EB",
"0X c #E1E2E3",
"qX c #E6E9EC",
"wX c #E6E7EC",
"eX c #F0F0EE",
"rX c #E3EBF3",
"tX c #EBEFF9",
"yX c #EDF3FA",
"uX c #E8F2F9",
"iX c #F2F5FC",
"pX c #F5FAFE",
"aX c #FDFEFE",
"sX c #FAF9F6",
"dX c None",
/* pixels */
"dXdXdXdXdXdXdXdXdXdXdXdXdXdXdXdXdXdXdXdXdXdXdXdXdXdXdXdXdXdXdXdXdXdXdXdXdXdXdXdXdXdXdXdXdXdXdXdXdXdX",
"dXdXdXdXdXdXdXdXdXdXdXdXdXdXdXdXdXdXdXdXdXdXdXdXdXdXdXdXdXdXdXdXdXdXdXdXdXdXdXdXdXdXdXdXdXdXdXdXdXdX",
"dXdXdXdXdXdXdXdXdXdXdXdXdXdXdXdXdXdXdXdXdXdXdXdXdXdXdXdXdXdXdXr.J.=X=X|.dXdXdXdXdXdXdXdXdXdXdXdXdXdX",
"dXdXdXdXdXdXdXdXdXdXdXdXdXdXdXdXdXdXdXdXdXdXdXdXdXdX>X*XF.B.7.H X.r..X.XdXdXdXdXdXdXdXdXdXdXdXdXdXdX",
"dXdXdXdXdXdXdXdXdXdXdXdXdXdXdXdXdXdXdXdXdXdXdXdXdX&X&X%X%XP.z.w.! o.m.dXdXdXdXdXdXdXdXdXdXdXdXdXdXdX",
"dXdXdXdXdXdXdXdXdXdXdXdXdXdXdXdXdXdXdXdXdXdXdXdX~.^.!.!.~.D.x.x.5.w.dXdXdXdXdXdXdXdXdXdXdXdXdXdXdXdX",
"dXdXdXdXdXdXdXdXdXdXdXdXdXdXdXdXdXdXdXdXdXdXdX2Xh.h.W.Q.d.d.g.n.z.dXdXdXdXdXdXdXdXdXdXdXdXdXdXdXdXdX",
"dXdXdXdXdXdXdXdXdXdXdXdXdXdXdXdXdXdXdXdXdXdXdX~.j.(.(.T.d.d.d.g.H.dX;XtXdXdXdXdXdXdXdXdXdXdXdXdXdXdX",
"dXdXdXdXdXdXdXdXdXdXdXdXdXdXdXdXdXdXdXdXdXdXdXdX) T.3.c l :.h.h.b.G.dXtXdXdXdXdXdXdXdXdXdXdXdXdXdXdX",
"dXdXdXdXdXdXdXdXdXdXdXdXdXdXdXdXdXdXdXdXdXdXdXdX) Y.3.c c :.s.h.F.H..X8XyXdXdXdXdXdXdXdXdXdXdXdXdXdX",
"dXdXdXdXdXdXdXdXdXdXdXdXdXdXdXdXdXdXdXdXdXdXdXdXW._.E.s.s.U.Y.d.l.c.m.+XrXpXdXdXdXdXdXdXdXdXdXdXdXdX",
"dXdXdXdXdXdXdXdXdXdXdXdXdXdXdXdXdXdXdXdXdXdXdXdX)._._.(.W.!.^.S.l.B.H.@X;X8XiXdXdXdXdXdXdXdXdXdXdXdX",
"dXdXdXdXdXdXdXdXdXdXdXdXdXdXdXdXdXdXdXdXdXdXdX2X+XL.XX|.I.~.P.n.H.B.m.+X<X=X7XdXdXdXdXdXdXdXdXdXdXdX",
"dXdXdXdXdXdXdXdXdXdXdXdXdXdXdXdXdXdXdXdXdXdX<X.XG.Z.N.G. XJ.z.b.J.[.J.}.*X>X6X7XdXdXdXdXdXdXdXdXdXdX",
"dXdXdXdXdXdXdXdXdXdXdXdXdXdXdXdXdXdXdXdXdXiX:X'. X-X{.V.C.B.B.J.6XdXdX+X}.:X<X9XdXdXdXdXdXdXdXdXdXdX",
"dXdXdXdXdXdXdXdXdXdXdXdXdXdXdXdXdXdXdXdXdXtX.X].-XoX`.V.V.C.[.>XdXdXdXdX;X;X*X8XdXdXdXdXdXdXdXdXdXdX",
"dXdXdXdXdXdXdXdXdXdXdXdXdXdXdXdXdXdXdXdXdXpX[.'.@X`.N.c.c.K.,XqXpXaXaXpXrX*X#X4X8XdXdXdXdXdXdXdXdXdX",
"dXdXdXdXdXdXdXdXdXdXdXdXdXdXdXdXdXdXdXdXdXyX+XB.`.k.B.C.B.*XqX$X9XaXaXaX9XK.@X4X5XdXdXdXdXdXdXdXdXdX",
"dXdXdXdXdXdXdXdXdXdXdXdXdXdXdXdXdXdXdXdXdXdX9X@XC.V.V.Z.*X<X$Xy.1XaXaXaX7XM.G.#X4X9XdXdXdXdXdXdXdXdX",
"dXdXdXdXdXdXdXdXdXdXdXdXdXdXdXdXdXdXdXdXdXdX,XK.8.8.k.C.9X=Xy.i.).eXsXaXqX@XG.'.4X*XqXdXdXdXdXdXdXdX",
"dXdXdXdXdXdXdXdXdXdXdXdXdXdXdXdXdXdXdXdXdXdX$.V I [ 4.8.J.l.i.0.S.1XsXaXpXrX@XK.#X>XeXdXdXdXdXdXdXdX",
"dXdXdXdXdXdXdXdXdXdXdXdXdXdXdXdXdXdXdXdXdXdXX.5 A Y X.$.r.y.y.0.y.$XsXaXpXpXK.Z.[.9XpXdXdXdXdXdXdXdX",
"dXdXdXdXdXdXdXdXdXdXdXdXdXdXdXdXdXdXdXdXdXA.~ b V I [ | 5.M.S.u.y.I.9XsXpXpXK.M.K.rXdXdXdXdXdXdXdXdX",
"dXdXdXdXdXdXdXdXdXdXdXdXdXdXdXdXdXdXdXdX|.Z 0 4 M M F | 5.x.F.F.t.u.I.qXaXpX}.m.[.uXdXdXdXdXdXdXdXdX",
"dXdXdXdXdXdXdXdXdXdXdXdXdXdXdXdXdXdXdXdXL.0 ; 4 M J I { | 5.t.t.r.r.F.eXaXyX@X}.rXdXdXdXdXdXdXdXdXdX",
"dXdXdXdXdXdXdXdXdXdXdXdXdXdXdXdXdXdXdXdXL.9 0 8 M M S Y | X.#.#.#.9.F.0XdXdX<X9XdXdXdXdXdXdXdXdXdXdX",
"dXdXdXdXdXdXdXdXdXdXdXdXdXdXdXdXdXdXdXdXl.9 + ; N n N M D U Q ~ U #.I.wXdXdXdXdXdXdXdXdXdXdXdXdXdXdX",
"dXdXdXdXdXdXdXdXdXdXdXdXdXdXdXdXdXdXdXi.E & O X * * * * - $ $ O O Q S.dXdXdXdXdXdXdXdXdXdXdXdXdXdXdX",
"dXdXdXdXdXdXdXdXdXdXdXdXdXdXdXdXdXdXdX@.< < O O o * * = o       B  .*.f.~.dXdXdXdXdXdXdXdXdXdXdXdXdX",
"dXdXdXdXdXdXdXdXdXdXdXdXdXdXdXdXdXdXdX&.w 7 O , 1 , 2 m 4 X   O #.&.g 7 <.dXdXdXdXdXdXdXdXdXdXdXdXdX",
"dXdXdXdXdXdXdXdXdXdXdXdXdXdXdXdXdXdXdX*.< . 3 + o # 2 C b # X O @.,.h p 2.dXdXdXdXdXdXdXdXdXdXdXdXdX",
"dXdXdXdXdXdXdXdXdXdXdXdXdXdXdXdXdXdXdXu.P < < , # 1 b m m } X. .q.a.1.<.W.dXdXdXdXdXdXdXdXdXdXdXdXdX",
"dXdXdXdXdXdXdXdXdXdXdXdXdXdXdXdXdXdXdXD.' 6 + < # @ 8 b S X.7.7.U.R.R./._.dXdXdXdXdXdXdXdXdXdXdXdXdX",
"dXdXdXdXdXdXdXdXdXdXdXdXdXdXdXdXdXdXdXI.@.6 , # ; @ > 4 b S K L :.U././.a.' dXdXdXdXdXdXdXdXdXdXdXdX",
"dXdXdXdXdXdXdXdXdXdXdXdXdXdXdXdXdXdXdX3Xe.w & 1 ; $ - 4 n S G L / ' ;.;.=.u ;.dXdXdXdXdXdXdXdXdXdXdX",
"dXdXdXdXdXdXdXdXdXdXdXdXdXdXdXdXdXdXdXdXP.w # % $ ; = - V I [ o.E g i t u z u ;.dXdXdXdXdXdXdXdXdXdX",
"dXdXdXdXdXdXdXdXdXdXdXdXdXdXdXdXdXdXdXdXP.q % $ @ ; - - M F I [ ~ L L d y u u u z k dXdXdXdXdXdXdXdX",
"dXdXdXdXdXdXdXdXdXdXdXdXdXdXdXdXdXdXdXdXL.9 % ; ; - - 4 M S I { { D C B d y u u s t ( dXdXdXdXdXdXdX",
"dXdXdXdXdXdXdXdXdXdXdXdXdXdXdXdXdXdXdXdXXX9 % % ; - = > 4 n A Y ..Y A m q L +.' t u s z dXdXdXdXdXdX",
"dXdXdXdXdXdXdXdXdXdXdXdXdXdXdXdXdXdXdXdX|.H 0 $ - > > - 4 v D Y T T J A m L %XD./ x f f f k +.dXdXdX",
"dXdXdXdXdXdXdXdXdXdXdXdXdXdXdXdXdXdXdXdXdX.Xo.$ ; = > > - n A Y R R ..J m Q =XdXdXdX<.t i t k +.dXdX",
"dXdXdXdXdXdXdXdXdXdXdXdXdXdXdXdXdXdXdXdXdXdX .% O 1 = > = n S F { ..K F C ! =XdXdXdXdXp.q._ y i ,.~.",
"dXdXdXdXdXdXdXdXdXdXdXdXdXdXdXdXdXdXdXdXdXdX5.e % 0 O ; > V } S S } L C H @.dXdXdXdXdXdXdXdX_ / ` 7.",
"dXdXdXdXdXdXdXdXdXdXdXdXdXdXdXdXdXdXdXdXdXdXdXe., , , # $ 7. X! V B L L 4.<XdXdXdXdXdXdXdXdXdXdXdXdX",
"dXdXdXdXdXdXdXdXdXdXdXdXdXdXdXdXdXdXdXdXdXdXdXdXe.e < Z 0.dXdXb.O.3 L w ,.dXdXdXdXdXdXdXdXdXdXdXdXdX",
"dXdXdXdXdXdXdXdXdXdXdXdXdXdXdXdXdXdXdXdXdXdXdXdXdXO.6 E dXdXdXdX,.7 j h >.dXdXdXdXdXdXdXdXdXdXdXdXdX",
"dXdXdXdXdXdXdXdXdXdXdXdXdXdXdXdXdXdXdXdXdXdXdXdXdX^ 7 W dXdXdXdX>.h t j >.dXdXdXdXdXdXdXdXdXdXdXdXdX",
"dXdXdXdXdXdXdXdXdXdXdXdXdXdXdXdXdXdXdXdXdXdXdXdX,.j . W dXdXdXdX).>.k a / p.dXdXdXdXdXdXdXdXdXdXdXdX",
"dXdXdXdXdXdXdXdXdXdXdXdXdXdXdXdXdXdXdXdXdXdXdX2.7 7 7 W dXdXdXdXdX~.k a a W &XdXdXdXdXdXdXdXdXdXdXdX",
"dXdXdXdXdXdXdXdXdXdXdXdXdXdXdXdXdXdXdXdXdXdX0.j g g a ` dXdXdXdXdXdXW h h / &XdXdXdXdXdXdXdXdXdXdXdX"
};
