/* XPM */
static char *result[] = {
/* columns rows colors chars-per-pixel */
"50 50 224 2 ",
"   c #090516",
".  c #150E19",
"X  c #2D191B",
"o  c #0B0B27",
"O  c #110E26",
"+  c #0D122A",
"@  c #141424",
"#  c #1C1624",
"$  c #15152A",
"%  c #1A152C",
"&  c #151A2D",
"*  c #1D1A2C",
"=  c #1E1926",
"-  c #131431",
";  c #1E1533",
":  c #141B33",
">  c #1B1B32",
",  c #161C38",
"<  c #1B1B3B",
"1  c #0F1835",
"2  c #22192A",
"3  c #241727",
"4  c #211D3C",
"5  c #201830",
"6  c #341E20",
"7  c #1E233A",
"8  c #1B2137",
"9  c #2D242C",
"0  c #24212C",
"q  c #322022",
"w  c #36282C",
"e  c #25243B",
"r  c #332932",
"t  c #3B2C35",
"y  c #362837",
"u  c #3E333A",
"i  c #3F3037",
"p  c #441A1C",
"a  c #401D23",
"s  c #462D2E",
"d  c #4C2C2C",
"f  c #462429",
"g  c #53262B",
"h  c #532B2C",
"j  c #462D34",
"k  c #542D34",
"l  c #433235",
"z  c #4B3333",
"x  c #4D3B3D",
"c  c #54363B",
"v  c #52383B",
"b  c #4F3725",
"n  c #643B3D",
"m  c #5F4230",
"M  c #725337",
"N  c #242644",
"B  c #242946",
"V  c #2C2B43",
"C  c #2A2D4C",
"Z  c #242949",
"A  c #372C48",
"S  c #2C324D",
"D  c #2B3245",
"F  c #34334B",
"G  c #383547",
"H  c #2C3353",
"J  c #2E395D",
"K  c #2A3456",
"L  c #343552",
"P  c #333955",
"I  c #3B3D5D",
"U  c #3B3B58",
"Y  c #2A2E51",
"T  c #3C3F62",
"R  c #433C48",
"E  c #653A44",
"W  c #3F4457",
"Q  c #3C4365",
"!  c #3B466D",
"~  c #3C476D",
"^  c #3E4A72",
"/  c #49444E",
"(  c #5C4A4D",
")  c #444551",
"_  c #454B5E",
"`  c #4B4957",
"'  c #585258",
"]  c #5B4F53",
"[  c #644040",
"{  c #71494E",
"}  c #67564B",
"|  c #795A4A",
" . c #714B50",
".. c #6A5758",
"X. c #6D5259",
"o. c #7A6154",
"O. c #464C63",
"+. c #4B4D65",
"@. c #444768",
"#. c #4C5267",
"$. c #5B5766",
"%. c #434B72",
"&. c #414E78",
"*. c #575E73",
"=. c #695860",
"-. c #796866",
";. c #63657A",
":. c #6B6E79",
">. c #7D7276",
",. c #6B6C74",
"<. c #835B59",
"1. c #846467",
"2. c #8E7B7D",
"3. c #8B7579",
"4. c #8F746B",
"5. c #82817D",
"6. c #AB8B72",
"7. c #6E6F81",
"8. c #717488",
"9. c #837781",
"0. c #7D879A",
"q. c #7D848E",
"w. c #8D8C8C",
"e. c #8A8888",
"r. c #968887",
"t. c #92918E",
"y. c #888896",
"u. c #968F92",
"i. c #999698",
"p. c #8D9298",
"a. c #B89C86",
"s. c #A29C9B",
"d. c #AB9D9E",
"f. c #AB9994",
"g. c #B69E93",
"h. c #A68F8D",
"j. c #B6A49D",
"k. c #AAA09F",
"l. c #858DA3",
"z. c #9A9CA5",
"x. c #929EAD",
"c. c #9B9DAA",
"v. c #9398A5",
"b. c #979EB1",
"n. c #8890A5",
"m. c #A29CA4",
"M. c #A59EA6",
"N. c #9AA5AE",
"B. c #9BA5B4",
"V. c #98A6B8",
"C. c #8EA0B4",
"Z. c #A0A1AC",
"A. c #A9A7A8",
"S. c #B1A2A2",
"D. c #B5ABA8",
"F. c #A4A4B2",
"G. c #A4AAB4",
"H. c #A9ADB3",
"J. c #A2AABA",
"K. c #A7ACBC",
"L. c #B2ACB1",
"P. c #BBAEB1",
"I. c #ACB2BC",
"U. c #A7B0B7",
"Y. c #B4B2B2",
"T. c #B7B6BC",
"R. c #BDB2AC",
"E. c #C5A58B",
"W. c #C9A795",
"Q. c #CDB19F",
"!. c #D5AC9A",
"~. c #C9B1A3",
"^. c #CAB7A9",
"/. c #C3B7B7",
"(. c #D7BDAE",
"). c #EBBDA7",
"_. c #CBC2BD",
"`. c #DFC5AE",
"'. c #EEC7AF",
"]. c #A5AEC4",
"[. c #ACB4C3",
"{. c #A8B6C7",
"}. c #B4B5C3",
"|. c #B9BAC3",
" X c #B3BDCD",
".X c #BCBDCB",
"XX c #B7B7C7",
"oX c #C1BECF",
"OX c #BCC2CC",
"+X c #BDC6D2",
"@X c #BCC5DD",
"#X c #BDCADB",
"$X c #BCCBE2",
"%X c #C9C3C7",
"&X c #DBCCC7",
"*X c #C5C9D2",
"=X c #CACBD4",
"-X c #C4CCDB",
";X c #CACED9",
":X c #C5C6D5",
">X c #CAD3DC",
",X c #D4D4DB",
"<X c #DCD5DA",
"1X c #D6D6D7",
"2X c #D5C9D3",
"3X c #E7D5D4",
"4X c #C6CDE2",
"5X c #CAD3E9",
"6X c #CBD3E0",
"7X c #D4DAE4",
"8X c #D5D7E4",
"9X c #DEE4EB",
"0X c #E4E3EC",
"qX c #E4ECEE",
"wX c #E5E5E7",
"eX c #F3F4EF",
"rX c #EBEDF4",
"tX c #E5E9F5",
"yX c #E9F1F4",
"uX c #F3F5FC",
"iX c #F5FBFE",
"pX c #FBFEFE",
"aX c #F5F6F6",
"sX c None",
/* pixels */
"sXsXsXsXsXsXsXsXsXsXsXsXsXsXsXsXsXsXsXsXsXsXsXsXsXsXsXsXsXsXsXsXsXsXsXsXsXsXsXsXsXsXsXsXsXsXsXsXsXsX",
"sXsXsXsXsXsXsXsXsXsXsXsXsXsXsXsXsXsXsXsXsXsXsXsXsXsXsXsXsXsXsXsXsXsXsXsXsXsXsXsXsXsXsXsXsXsXsXsXsXsX",
"sXsXsXsXsXsXsXsXsXsXsXsXsXsXsXsXsXsXsXsXsXsXsXsXsXsXsXsXsXsXsXsXsXsXsXsXsXsXsXsXsXsXsXsXsXsXsXsXsXsX",
"sXsXsXsXsXsXsXsXsXsXsXsXsXsXsXsXsXsXsXsXsXsX}.y._ +.v.F.T.2XsXsXsXsXsXsXsXsXsXsXsXsXsXsXsXsXsXsXsXsX",
"sXsXsXsXsXsXsXsXsXsXsXsXsXsXsXsXsXsXsXsXsX:Xy.G *.l.J.|.oX&X&X&XsXsXsXsXsXsXsXsXsXsXsXsXsXsXsXsXsXsX",
"sXsXsXsXsXsXsXsXsXsXsXsXsXsXsXsXsXsXsXsXsXrXoX8.9.c.c.P.^.^.~.^._.sXsXsXsXsXsXsXsXsXsXsXsXsXsXsXsXsX",
"sXsXsXsXsXsXsXsXsXsXsXsXsXsXsXsXsXsXsXsXsXsX0XF.F.M.d.S.D.Q.W.Q.R.sXsXsXsXsXsXsXsXsXsXsXsXsXsXsXsXsX",
"sXsXsXsXsXsXsXsXsXsXsXsXsXsXsXsXsXsXsXsXsX9X.XK.m.L.d.a.g.Q.'.W.k.%XsXsXsXsXsXsXsXsXsXsXsXsXsXsXsXsX",
"sXsXsXsXsXsXsXsXsXsXsXsXsXsXsXsXsXsXsXsX9XOXJ.Z.d.g.g.| m <.E.6.} sXsXsXsXsXsXsXsXsXsXsXsXsXsXsXsXsX",
"sXsXsXsXsXsXsXsXsXsXsXsXsXsXsXsXsXsXsX9X>X XN.c.S.S.g.o.b M E.6.-.1XsXsXsXsXsXsXsXsXsXsXsXsXsXsXsXsX",
"sXsXsXsXsXsXsXsXsXsXsXsXsXsXsXsXsXsXtX5X@X].c.Z.A.f.W.E.6.E.'.`.D.rXsXsXsXsXsXsXsXsXsXsXsXsXsXsXsXsX",
"sXsXsXsXsXsXsXsXsXsXsXsXsXsXsXsXsXtX5X$X{.V.B.c.m.A./.~.(._.`._.1XuXsXsXsXsXsXsXsXsXsXsXsXsXsXsXsXsX",
"sXsXsXsXsXsXsXsXsXsXsXsXsXsXsXsXsX8X-X#XV.[.OXF.N.A.oXP.^.P.oX|.T.0XsXsXsXsXsXsXsXsXsXsXsXsXsXsXsXsX",
"sXsXsXsXsXsXsXsXsXsXsXsXsXsXsXsXrX8X-X+X{.7XrX*XI.z.Z.XX.XF.Z.J.I.:X0XsXsXsXsXsXsXsXsXsXsXsXsXsXsXsX",
"sXsXsXsXsXsXsXsXsXsXsXsXsXsXsXuX7X4XOX}.>XuXpXtX:XH.B.x.V.V. X.XOXH.=XsXsXsXsXsXsXsXsXsXsXsXsXsXsXsX",
"sXsXsXsXsXsXsXsXsXsXsXsXsXsXsXrX4X4XXXH.uXpXpXpXqX*X[.C.V.C. X X+XG.>XsXsXsXsXsXsXsXsXsXsXsXsXsXsXsX",
"sXsXsXsXsXsXsXsXsXsXsXsXsXsXsXqX5X@XXX].yXpXpXpXaXwX*XG.b.V.x.{.+XB.;XsXsXsXsXsXsXsXsXsXsXsXsXsXsXsX",
"sXsXsXsXsXsXsXsXsXsXsXsXsXsX9X>X$X].B.K.yXpXpXaX1X2XwX=X].c.V.V.V.x.;XsXsXsXsXsXsXsXsXsXsXsXsXsXsXsX",
"sXsXsXsXsXsXsXsXsXsXsXsXsXsX9X+X4X].}.8XuXpXeX1XD.A.<X7X:XJ.V.x.n.;.H.sXsXsXsXsXsXsXsXsXsXsXsXsXsXsX",
"sXsXsXsXsXsXsXsXsXsXsXsXsXpX>XOX XB.-XsXpXpXeX_.i.t.H.1X6X[.l.0.8.S y.sXsXsXsXsXsXsXsXsXsXsXsXsXsXsX",
"sXsXsXsXsXsXsXsXsXsXsXsXsXiXOXB.B.G.>XsXpXpXqXR.t.5.w.U.B.0.*.O.S 8 y.sXsXsXsXsXsXsXsXsXsXsXsXsXsXsX",
"sXsXsXsXsXsXsXsXsXsXsXsXsXaX|.v.N.>XsXsXpXwXT.s.t.e.s.s.q.*.#.P D 8 _ y.sXsXsXsXsXsXsXsXsXsXsXsXsXsX",
"sXsXsXsXsXsXsXsXsXsXsXsXsXsX7XT.H.qXsXsXsX,XA.u.t.i.H.p.:.O.O.J S & + ` sXsXsXsXsXsXsXsXsXsXsXsXsXsX",
"sXsXsXsXsXsXsXsXsXsXsXsXsXsXsX<XT.qXsXsXsX,XL.e.i.Y.U.p.:.O.P S B 8 & ) sXsXsXsXsXsXsXsXsXsXsXsXsXsX",
"sXsXsXsXsXsXsXsXsXsXsXsXsXsXsXsXqXsXsXsXsX8XL.w.w.i.p.:.#.W Q Z B e $ ) sXsXsXsXsXsXsXsXsXsXsXsXsXsX",
"sXsXsXsXsXsXsXsXsXsXsXsXsXsXsXsXsXsXsXsXsX<Xm.>.$.' _ #._ W H S C > $ ) sXsXsXsXsXsXsXsXsXsXsXsXsXsX",
"sXsXsXsXsXsXsXsXsXsXsXsXsXsXsXsXsXsXsXsXsXsXs.' 0 @ @ D L Y N Z V ; * ) sXsXsXsXsXsXsXsXsXsXsXsXsXsX",
"sXsXsXsXsXsXsXsXsXsXsXsXsXsXsXsXsXsXsXsXsX3Xu.r @     + - + + - o O @ 3 ' sXsXsXsXsXsXsXsXsXsXsXsXsX",
"sXsXsXsXsXsXsXsXsXsXsXsXsXsXsXsXsXsXsXsXD.5.o..   O , , , , - + - % 3 2 9 sXsXsXsXsXsXsXsXsXsXsXsXsX",
"sXsXsXsXsXsXsXsXsXsXsXsXsXsXsXsXsXsXsXsX} f q r r e B Y Y N < % 5 % 3 2 9 sXsXsXsXsXsXsXsXsXsXsXsXsX",
"sXsXsXsXsXsXsXsXsXsXsXsXsXsXsXsXsXsXsXsX} s j >.y.;.T Y C B e * 5 3 2 9 r sXsXsXsXsXsXsXsXsXsXsXsXsX",
"sXsXsXsXsXsXsXsXsXsXsXsXsXsXsXsXsXsXsXsXa.4.4.f.9.$.F Z S S e $ * 2 2 r ] sXsXsXsXsXsXsXsXsXsXsXsXsX",
"sXsXsXsXsXsXsXsXsXsXsXsXsXsXsXsXsXsXsXsX'.).W.W.o.R A S H N < ; : > 2 r >.sXsXsXsXsXsXsXsXsXsXsXsXsX",
"sXsXsXsXsXsXsXsXsXsXsXsXsXsXsXsXsXsXsX| !.).!.W.-.R ) S N < < : ; % 3 r 2.sXsXsXsXsXsXsXsXsXsXsXsXsX",
"sXsXsXsXsXsXsXsXsXsXsXsXsXsXsXsXsXsX .k <.1.1.=.$.O.%.J N < ; ; 4 % 2 R sXsXsXsXsXsXsXsXsXsXsXsXsXsX",
"sXsXsXsXsXsXsXsXsXsXsXsXsXsXsXsXsX .f a f j A G Q @.^ J Z < ; 2 > $ = / sXsXsXsXsXsXsXsXsXsXsXsXsXsX",
"sXsXsXsXsXsXsXsXsXsXsXsXsXsXsXsXn g g j j G C T %.&.T K Z : = * > % * / sXsXsXsXsXsXsXsXsXsXsXsXsXsX",
"sXsXsXsXsXsXsXsXsXsXsXsXsXsXsX .g p f j y N I ^ &.^ T H N : @ & > > % ) sXsXsXsXsXsXsXsXsXsXsXsXsXsX",
"sXsXsXsXsXsXsXsXsXsXsXsXsXsX{ g k 1.=.y F C K ! ! Q Y C < > & & : $ % ` sXsXsXsXsXsXsXsXsXsXsXsXsXsX",
"sXsXsXsXsXsXsXsXsXsXsX3.z k E E X.sXsXF B K J ^ %.@.C N - : 8 & : 8 e $.sXsXsXsXsXsXsXsXsXsXsXsXsXsX",
"sXsXsXsXsXsXsXsXsXsX-.v f c sXsXsXsXsXS Y J ! %.%.@.A 4 < : 1 , : % 7.8XsXsXsXsXsXsXsXsXsXsXsXsXsXsX",
"sXsXsXsXsXsXsXsXsX2.v 1.h.sXsXsXsXsXsXS H Q %.%.T T C 4 ; , , , > $ p.sXsXsXsXsXsXsXsXsXsXsXsXsXsXsX",
"sXsXsXsXsXsXsXsXd...X.sXsXsXsXsXsXsXsXO.S P Q +.L R +.V ; > > # * G z.sXsXsXsXsXsXsXsXsXsXsXsXsXsXsX",
"sXsXsXsXsXsXsXsXsXsXsXsXsXsXsXsXsXsXsX%X_ G G V A ;.XX$.# # 3 # u T.sXsXsXsXsXsXsXsXsXsXsXsXsXsXsXsX",
"sXsXsXsXsXsXsXsXsXsXsXsXsXsXsXsXsXsXsXsX] i u y :.T.sX|.,.w 6 ] i.sXsXsXsXsXsXsXsXsXsXsXsXsXsXsXsXsX",
"sXsXsXsXsXsXsXsXsXsXsXsXsXsXsXsXsXsXsXsX} x j l P.sXsXsXY.t X 2.sXsXsXsXsXsXsXsXsXsXsXsXsXsXsXsXsXsX",
"sXsXsXsXsXsXsXsXsXsXsXsXsXsXsXsXsXsXsX3X .h h s S.sXsXsXL.u f 9.sXsXsXsXsXsXsXsXsXsXsXsXsXsXsXsXsXsX",
"sXsXsXsXsXsXsXsXsXsXsXsXsXsXsXsXsXsXsX3.n g n f.sXsXsXsXL.j 6 ( r.sXsXsXsXsXsXsXsXsXsXsXsXsXsXsXsXsX",
"sXsXsXsXsXsXsXsXsXsXsXsXsXsXsXsXsXsXM.d d f } 3XsXsXsXsXP.l q 6 x s.sXsXsXsXsXsXsXsXsXsXsXsXsXsXsXsX",
"sXsXsXsXsXsXsXsXsXsXsXsXsXsXsXsXsXsXS.z d d o.sXsXsXsXsX/.R s s l ] S.sXsXsXsXsXsXsXsXsXsXsXsXsXsXsX"
};
